<svg xmlns="http://www.w3.org/2000/svg" viewBox="0 0 205.19 205.19"><defs><style>.cls-1{fill:#fff;}.cls-2{fill:#1f3664;}</style></defs><g id="Livello_2" data-name="Livello 2"><g id="Livello_1-2" data-name="Livello 1"><path class="cls-1" d="M84.06,56.59V27.82c.1-2-2.82-2.31-4.25-2.34H76V61.22c4.48-1.58,7-2.62,7.38-3.09A2.26,2.26,0,0,0,84.06,56.59Z"/><path class="cls-1" d="M88,108.15q-2.28,12.24-4.62,24.34l-.19,1-.89,4.54A11.79,11.79,0,0,1,85.34,135a14,14,0,0,1,6.72-2.27l0-.24Q90,120.34,88,108.15Z"/><path class="cls-1" d="M82.05,83.6a3.55,3.55,0,0,0,2.37-3.38V63.69a4.27,4.27,0,0,0-.76-2.44,2.45,2.45,0,0,0-2-1.21L76,62.13V83.82h4.13A7.77,7.77,0,0,0,82.05,83.6Z"/><path class="cls-1" d="M129.57,56.59V27.82c.1-2-2.82-2.31-4.26-2.34h-3.77V61.22c4.48-1.58,6.94-2.62,7.37-3.09A2.27,2.27,0,0,0,129.57,56.59Z"/><path class="cls-1" d="M97.45,61.75a13,13,0,0,1,6.27-2.11l0-.23q-1.92-11.32-3.8-22.68-2.11,11.4-4.3,22.68l-.18,1-.83,4.23A11,11,0,0,1,97.45,61.75Z"/><path class="cls-1" d="M198.19,102.6a95.6,95.6,0,1,0-95.59,95.59A95.7,95.7,0,0,0,198.19,102.6ZM90,82.51C92,72.67,94,62.38,96,51.61q2.68-14,5.26-27h1l10.12,57.86a3.17,3.17,0,0,0,2.27,2.1,2.43,2.43,0,0,0,2.06-2.12V27.22a3.24,3.24,0,0,0-3.25-2.67h11.78a11.28,11.28,0,0,1,6.52,1.84,5.4,5.4,0,0,1,2.49,4.66V53.4a5.47,5.47,0,0,1-2.49,4.68,12.79,12.79,0,0,1-3.17,1.48,8.39,8.39,0,0,1,6.17,8.51l-.13,14.34c.3,1.69,1.36,2.14,3.25,2.34l-11.3,0c1.89-.2,3-.65,3.29-2.29l.13-18.78a4.58,4.58,0,0,0-.73-2.49,2.49,2.49,0,0,0-2-1.18l-.18,0-5.61,2.09v20h0v.35c.28,1.71,1.36,2.14,3.28,2.34l-11.31,0h-8.7a4.82,4.82,0,0,0,2-.83,1.6,1.6,0,0,0,.8-1.25.65.65,0,0,0,0-.18q-1.89-11-3.75-21.9A13.18,13.18,0,0,0,98,62.66a11.7,11.7,0,0,0-4.18,5.61C92.92,73,92,77.76,91,82.51a1.12,1.12,0,0,0,0,.31c0,1.13,1.31,1.76,2.82,1.93H86.93C88.67,84.55,89.62,84,90,82.51Zm-22-58H79.81a11.28,11.28,0,0,1,6.52,1.84,5.4,5.4,0,0,1,2.49,4.66V53.4a5.47,5.47,0,0,1-2.49,4.68,9.47,9.47,0,0,1-3.4,1.48,8.28,8.28,0,0,1,3.75,2.17,8.48,8.48,0,0,1,2.49,6.36v7.78a8.41,8.41,0,0,1-7.62,8.78,8,8,0,0,1-1.39.1H68c1.84-.2,3-.62,3.25-2.31V27.22A3.24,3.24,0,0,0,68,24.55ZM61.76,159.69c2-.21,3.16-.73,3.48-2.54V96.08H60.05a9.07,9.07,0,0,0-5.24,1.84,5.83,5.83,0,0,0-2.4,4.62V95.37a3,3,0,0,0-2.13,2.52q0,28.53-.08,57.29v2c.35,1.73,1.48,2.25,3.51,2.46H41.61c2-.21,3.16-.7,3.48-2.51V97.92q-.53-2.55-3.48-2.84H83.23v7.46a5.83,5.83,0,0,0-2.43-4.62,9.07,9.07,0,0,0-5.24-1.84H70.43q0,26.51-.06,53c0,2.73,0,5.43,0,8.16.32,1.75,1.51,2.27,3.48,2.48Zm62.34,0H93.25a5.16,5.16,0,0,0,2.19-.89,1.7,1.7,0,0,0,.86-1.35.72.72,0,0,0,0-.19q-2-11.79-4-23.5A14.1,14.1,0,0,0,86,136a12.54,12.54,0,0,0-4.49,6c-1,5.08-2,10.18-3,15.29a1.72,1.72,0,0,0,0,.32c0,1.22,1.4,1.89,3,2.08H74.05c1.86-.21,2.89-.86,3.32-2.4q3.12-15.84,6.45-33.17,2.88-15,5.65-29h1.11l10.86,62.09a3.36,3.36,0,0,0,2.41,2.26,2.55,2.55,0,0,0,2.26-2.26V97.92q-.52-2.55-3.49-2.84h12.16q-3,.28-3.49,2.84,0,26.37-.08,52.91v7.86h5.24a9,9,0,0,0,5.32-1.89,5.94,5.94,0,0,0,2.33-4.56Zm28.76,0a5.16,5.16,0,0,0,2.19-.89,1.71,1.71,0,0,0,.87-1.35.49.49,0,0,0,0-.19q-2-11.79-4-23.5a14.14,14.14,0,0,0-6.29,2.22,12.53,12.53,0,0,0-4.48,6c-1,5.08-2,10.18-3.05,15.29a1.16,1.16,0,0,0,0,.32c0,1.22,1.4,1.89,3,2.08H124.21c2-.21,3.16-.7,3.48-2.51V97.92q-.52-2.55-3.48-2.84h12.15c-2,.22-3.16,1-3.48,2.81q0,28.53-.08,57.29v2a2.59,2.59,0,0,0,2.1,2.21,2.86,2.86,0,0,0,2.08-2.15q3.12-15.84,6.46-33.17,2.88-15,5.64-29h1.11l10.86,62.09a3.64,3.64,0,0,0,3.32,2.46Z"/><path class="cls-1" d="M147.57,108.15q-2.26,12.24-4.62,24.34l-.19,1-.89,4.54A11.79,11.79,0,0,1,145,135a14,14,0,0,1,6.73-2.27l0-.24Q149.58,120.34,147.57,108.15Z"/><path class="cls-2" d="M102.6,0A102.6,102.6,0,1,0,205.19,102.6,102.71,102.71,0,0,0,102.6,0ZM7,102.6a95.6,95.6,0,1,1,95.6,95.59A95.7,95.7,0,0,1,7,102.6Z"/><path class="cls-2" d="M68,84.75H80.16a8,8,0,0,0,1.39-.1,8.41,8.41,0,0,0,7.62-8.78V68.09a8.48,8.48,0,0,0-2.49-6.36,8.28,8.28,0,0,0-3.75-2.17,9.47,9.47,0,0,0,3.4-1.48,5.47,5.47,0,0,0,2.49-4.68V31.05a5.4,5.4,0,0,0-2.49-4.66,11.28,11.28,0,0,0-6.52-1.84H68a3.24,3.24,0,0,1,3.25,2.67V82.44C71,84.13,69.87,84.55,68,84.75Zm8-59.27h3.78c1.43,0,4.35.36,4.25,2.34V56.59a2.26,2.26,0,0,1-.65,1.54c-.43.47-2.9,1.51-7.38,3.09Zm0,36.65L81.65,60a2.45,2.45,0,0,1,2,1.21,4.27,4.27,0,0,1,.76,2.44V80.22a3.55,3.55,0,0,1-2.37,3.38,7.77,7.77,0,0,1-1.89.22H76Z"/><path class="cls-2" d="M70.35,157.21c0-2.73,0-5.43,0-8.16q0-26.46.06-53h5.13a9.07,9.07,0,0,1,5.24,1.84,5.83,5.83,0,0,1,2.43,4.62V95.08H41.61q3,.28,3.48,2.84v59.26c-.32,1.81-1.46,2.3-3.48,2.51h12.1c-2-.21-3.16-.73-3.51-2.46v-2q0-28.77.08-57.29a3,3,0,0,1,2.13-2.52v7.17a5.83,5.83,0,0,1,2.4-4.62,9.07,9.07,0,0,1,5.24-1.84h5.19v61.07c-.32,1.81-1.51,2.33-3.48,2.54H73.83C71.86,159.48,70.67,159,70.35,157.21Z"/><path class="cls-2" d="M121.77,156.8a9,9,0,0,1-5.32,1.89h-5.24v-7.86q0-26.54.08-52.91.49-2.55,3.49-2.84H102.62q3,.28,3.49,2.84v59.31a2.55,2.55,0,0,1-2.26,2.26,3.36,3.36,0,0,1-2.41-2.26L90.58,95.14H89.47q-2.76,13.94-5.65,29-3.36,17.34-6.45,33.17c-.43,1.54-1.46,2.19-3.32,2.4h7.37c-1.62-.19-3-.86-3-2.08a1.72,1.72,0,0,1,0-.32c1.06-5.11,2.06-10.21,3-15.29A12.54,12.54,0,0,1,86,136a14.1,14.1,0,0,1,6.29-2.22q2,11.72,4,23.5a.72.72,0,0,1,0,.19,1.7,1.7,0,0,1-.86,1.35,5.16,5.16,0,0,1-2.19.89H124.1v-7.45A5.94,5.94,0,0,1,121.77,156.8ZM85.34,135a11.79,11.79,0,0,0-3.08,3.06l.89-4.54.19-1Q85.7,120.39,88,108.15q2,12.19,4.08,24.34l0,.24A14,14,0,0,0,85.34,135Z"/><path class="cls-2" d="M161.05,157.23,150.19,95.14h-1.11q-2.75,13.94-5.64,29-3.36,17.34-6.46,33.17a2.86,2.86,0,0,1-2.08,2.15,2.59,2.59,0,0,1-2.1-2.21v-2q0-28.77.08-57.29c.32-1.81,1.51-2.59,3.48-2.81H124.21q3,.28,3.48,2.84v59.26c-.32,1.81-1.46,2.3-3.48,2.51H141c-1.62-.19-3-.86-3-2.08a1.16,1.16,0,0,1,0-.32c1.05-5.11,2.05-10.21,3.05-15.29a12.53,12.53,0,0,1,4.48-6,14.14,14.14,0,0,1,6.29-2.22q2,11.72,4,23.5a.49.49,0,0,1,0,.19,1.71,1.71,0,0,1-.87,1.35,5.16,5.16,0,0,1-2.19.89h11.51A3.64,3.64,0,0,1,161.05,157.23ZM145,135a11.79,11.79,0,0,0-3.08,3.06l.89-4.54.19-1q2.36-12.11,4.62-24.34,2,12.19,4.08,24.34l0,.24A14,14,0,0,0,145,135Z"/><path class="cls-2" d="M93.8,84.75C92.29,84.58,91,84,91,82.82a1.12,1.12,0,0,1,0-.31c1-4.75,1.91-9.51,2.84-14.24A11.7,11.7,0,0,1,98,62.66a13.18,13.18,0,0,1,5.87-2.07q1.84,10.92,3.75,21.9a.65.65,0,0,1,0,.18,1.6,1.6,0,0,1-.8,1.25,4.82,4.82,0,0,1-2,.83h8.7l11.31,0c-1.92-.2-3-.63-3.28-2.34v-.35h0v-20L127.15,60l.18,0a2.49,2.49,0,0,1,2,1.18,4.58,4.58,0,0,1,.73,2.49l-.13,18.78c-.32,1.64-1.4,2.09-3.29,2.29l11.3,0c-1.89-.2-2.95-.65-3.25-2.34l.13-14.34a8.39,8.39,0,0,0-6.17-8.51,12.79,12.79,0,0,0,3.17-1.48,5.47,5.47,0,0,0,2.49-4.68V31.05a5.4,5.4,0,0,0-2.49-4.66,11.28,11.28,0,0,0-6.52-1.84H113.53a3.24,3.24,0,0,1,3.25,2.67V82.44a2.43,2.43,0,0,1-2.06,2.12,3.17,3.17,0,0,1-2.27-2.1L102.33,24.6h-1q-2.56,13-5.26,27C94,62.38,92,72.67,90,82.51c-.41,1.44-1.36,2-3.1,2.24Zm27.74-59.27h3.77c1.44,0,4.36.36,4.26,2.34V56.59a2.27,2.27,0,0,1-.66,1.54c-.43.47-2.89,1.51-7.37,3.09ZM95.41,60.37l.18-1q2.19-11.28,4.3-22.68,1.89,11.37,3.8,22.68l0,.23a13,13,0,0,0-6.27,2.11,11,11,0,0,0-2.87,2.85Z"/></g></g></svg>