<svg xmlns="http://www.w3.org/2000/svg" viewBox="0 0 122.76 64.61"><defs><style>.cls-1{fill:#1f3664;}</style></defs><g id="Livello_2" data-name="Livello 2"><g id="Livello_1-2" data-name="Livello 1"><path class="cls-1" d="M28.74,62.12c0-2.72,0-5.42,0-8.15q0-26.46.05-53H34a9,9,0,0,1,5.24,1.84,5.82,5.82,0,0,1,2.43,4.61V0H0C2,.19,3.13,1.13,3.48,2.84V62.1C3.16,63.91,2,64.39,0,64.61H12.1c-2-.22-3.16-.73-3.51-2.46v-2q0-28.77.08-57.29A3,3,0,0,1,10.8.28V7.45a5.83,5.83,0,0,1,2.41-4.61A9,9,0,0,1,18.45,1h5.18V62.07c-.32,1.81-1.51,2.32-3.48,2.54H32.22C30.25,64.39,29.06,63.88,28.74,62.12Z"/><path class="cls-1" d="M80.17,61.72a9,9,0,0,1-5.32,1.89H69.61V55.75q0-26.53.08-52.91C70,1.13,71.17.19,73.17,0H61c2,.19,3.13,1.13,3.48,2.84V62.15a2.56,2.56,0,0,1-2.25,2.26,3.36,3.36,0,0,1-2.42-2.26L49,.05H47.86q-2.74,14-5.64,29-3.36,17.34-6.46,33.17c-.43,1.54-1.46,2.18-3.32,2.4h7.37c-1.62-.19-3-.86-3-2.08a1.12,1.12,0,0,1,0-.32c1-5.11,2-10.21,3-15.29a12.61,12.61,0,0,1,4.48-6,14.25,14.25,0,0,1,6.3-2.21q2,11.72,4,23.5a.47.47,0,0,1,0,.19,1.74,1.74,0,0,1-.87,1.35,5.12,5.12,0,0,1-2.18.89H82.49V57.16A6,6,0,0,1,80.17,61.72ZM43.73,39.92a12.07,12.07,0,0,0-3.08,3l.89-4.53.19-1q2.35-12.12,4.62-24.34,2,12.2,4.08,24.34l0,.24A14,14,0,0,0,43.73,39.92Z"/><path class="cls-1" d="M119.44,62.15,108.58.05h-1.1q-2.76,14-5.65,29-3.36,17.34-6.45,33.17a2.89,2.89,0,0,1-2.09,2.15,2.62,2.62,0,0,1-2.1-2.21v-2q0-28.77.08-57.29C91.59,1,92.78.22,94.75,0H82.6c2,.19,3.13,1.13,3.48,2.84V62.1c-.32,1.81-1.45,2.29-3.48,2.51H99.43c-1.62-.19-3-.86-3-2.08a1.12,1.12,0,0,1,0-.32c1-5.11,2-10.21,3-15.29a12.62,12.62,0,0,1,4.49-6,14.21,14.21,0,0,1,6.29-2.21q2,11.72,4,23.5a.47.47,0,0,1,0,.19,1.75,1.75,0,0,1-.86,1.35,5.16,5.16,0,0,1-2.19.89h11.5A3.64,3.64,0,0,1,119.44,62.15Zm-16.1-22.23a12.07,12.07,0,0,0-3.08,3l.9-4.53.18-1Q103.7,25.29,106,13.07q2,12.2,4.08,24.34l0,.24A14.08,14.08,0,0,0,103.34,39.92Z"/></g></g></svg>