<svg xmlns="http://www.w3.org/2000/svg" viewBox="0 0 364.25 385.9"><defs><style>.cls-1{fill:#1f3663;}.cls-2{fill:#1f3664;}.cls-3{fill:#799cd2;}.cls-4{fill:#fff;}.cls-5{fill:#1e3663;}.cls-6{fill:#4b4b4f;}.cls-7{fill:#616368;}.cls-8{fill:#4c4c4f;}.cls-9{fill:none;stroke:#1e3663;stroke-miterlimit:10;stroke-width:1.13px;}.cls-10{fill:#fbc481;}</style></defs><g id="Livello_2" data-name="Livello 2"><g id="Livello_1-2" data-name="Livello 1"><path class="cls-1" d="M105.06,385.77h-3.7V374.86h2.86a5,5,0,0,1,2.11.36,2.85,2.85,0,0,1,1.16,1,2.8,2.8,0,0,1,.39,1.48,2.37,2.37,0,0,1-1.66,2.3,3.33,3.33,0,0,1,1.9,1,2.55,2.55,0,0,1,.71,1.81,2.71,2.71,0,0,1-.43,1.49,3.19,3.19,0,0,1-1.26,1.07A4.62,4.62,0,0,1,105.06,385.77Zm-.79-9.52h-1.35v3.28h1a2.69,2.69,0,0,0,1.78-.47,1.6,1.6,0,0,0,.53-1.24C106.27,376.77,105.6,376.25,104.27,376.25Zm.11,4.67h-1.46v3.46h1.54a4.81,4.81,0,0,0,1.74-.2,1.63,1.63,0,0,0,.73-.62,1.57,1.57,0,0,0,.28-.9,1.59,1.59,0,0,0-.29-.92,1.74,1.74,0,0,0-.83-.61A5.08,5.08,0,0,0,104.38,380.92Z"/><path class="cls-1" d="M114.17,374.8h1.1l4.9,11h-1.6l-1.46-3.23h-4.66l-1.36,3.23h-1.6Zm2.3,6.35-1.76-3.95-1.63,3.95Z"/><path class="cls-1" d="M121.41,385.77V374.86h2.73a3.93,3.93,0,0,1,2.63.82,2.75,2.75,0,0,1,1,2.22,2.71,2.71,0,0,1-1.84,2.69,4.83,4.83,0,0,1,1,.93,21.21,21.21,0,0,1,1.41,2.07c.38.62.68,1.09.91,1.4l.58.78H128l-.47-.71-.1-.14-.3-.43-.49-.79-.52-.86a9.13,9.13,0,0,0-.89-1.07,3.55,3.55,0,0,0-.72-.57,2.41,2.41,0,0,0-1.09-.18H123v4.75Zm2-9.58H123v3.44h.59a4.32,4.32,0,0,0,1.63-.2,1.52,1.52,0,0,0,.69-.61,1.86,1.86,0,0,0,.25-.94,1.69,1.69,0,0,0-.28-.93,1.43,1.43,0,0,0-.77-.59A5.71,5.71,0,0,0,123.44,376.19Z"/><path class="cls-1" d="M135.49,374.86h1.56v10.91h-1.56Z"/><path class="cls-1" d="M138.54,374.84h9.12v1.4h-3.81v9.53h-1.57v-9.53h-3.74Z"/><path class="cls-1" d="M151,374.8h1.09l4.9,11h-1.6L154,382.54H149.3l-1.37,3.23h-1.6Zm2.29,6.35-1.76-3.95-1.63,3.95Z"/><path class="cls-1" d="M158.2,374.86h1.57v9.49h4.91v1.42H158.2Z"/><path class="cls-1" d="M166.06,374.86h1.57v10.91h-1.57Z"/><path class="cls-1" d="M173.53,374.8h1.1l4.89,11h-1.6l-1.45-3.23h-4.66l-1.36,3.23h-1.61Zm2.3,6.35-1.76-3.95-1.64,3.95Z"/><path class="cls-1" d="M185.17,374.86h6.18v1.39h-4.62v3.33h4.47V381h-4.47v3.39h4.77v1.39h-6.33Z"/><path class="cls-1" d="M201.07,374.86H203l-4.36,5.26,4.67,5.65h-1.89l-3.72-4.52-3.75,4.52H192l4.7-5.65-4.36-5.26h1.91l3.42,4.17Z"/><path class="cls-1" d="M204.41,385.77V374.84h3.46a3.58,3.58,0,0,1,2.49.85,2.9,2.9,0,0,1,.93,2.26,3,3,0,0,1-.48,1.69,2.69,2.69,0,0,1-1.3,1.07,6.67,6.67,0,0,1-2.38.33H206v4.73Zm3.18-9.53H206v3.41h1.71a2.19,2.19,0,0,0,1.47-.45,1.63,1.63,0,0,0,.51-1.29C209.67,376.79,209,376.24,207.59,376.24Z"/><path class="cls-1" d="M212.65,374.86h6.19v1.39h-4.63v3.33h4.47V381h-4.47v3.39H219v1.39h-6.34Z"/><path class="cls-1" d="M220.7,385.77V374.86h2.73a3.94,3.94,0,0,1,2.63.82,2.75,2.75,0,0,1,1,2.22,2.71,2.71,0,0,1-1.84,2.69,4.83,4.83,0,0,1,1,.93,21.21,21.21,0,0,1,1.41,2.07c.38.62.68,1.09.91,1.4l.58.78h-1.86l-.48-.71a.72.72,0,0,0-.09-.14l-.3-.43-.49-.79-.52-.86a9.13,9.13,0,0,0-.89-1.07,3.84,3.84,0,0,0-.72-.57,2.41,2.41,0,0,0-1.09-.18h-.41v4.75Zm2-9.58h-.47v3.44h.59a4.32,4.32,0,0,0,1.63-.2,1.63,1.63,0,0,0,.69-.61,1.86,1.86,0,0,0,.25-.94,1.69,1.69,0,0,0-.28-.93,1.43,1.43,0,0,0-.77-.59A5.71,5.71,0,0,0,222.73,376.19Z"/><path class="cls-1" d="M230.33,374.86h1.56v10.91h-1.56Z"/><path class="cls-1" d="M234.31,374.86h6.19v1.39h-4.62v3.33h4.46V381h-4.46v3.39h4.77v1.39h-6.34Z"/><path class="cls-1" d="M251,374.86h1.48v10.91h-1.34l-7.3-8.4v8.4h-1.47V374.86h1.27l7.36,8.48Z"/><path class="cls-1" d="M264.21,383.24V385a8.09,8.09,0,0,1-4,.94,6.11,6.11,0,0,1-3.1-.74,5.27,5.27,0,0,1-2-2,5.46,5.46,0,0,1-.75-2.79,5.35,5.35,0,0,1,1.7-4,5.85,5.85,0,0,1,4.19-1.62,9.8,9.8,0,0,1,3.82.9v1.68a7.49,7.49,0,0,0-3.74-1.1,4.31,4.31,0,0,0-3.11,1.19,4.18,4.18,0,0,0,0,5.92,4.34,4.34,0,0,0,3.12,1.15A7,7,0,0,0,264.21,383.24Z"/><path class="cls-1" d="M266.13,374.86h6.19v1.39H267.7v3.33h4.47V381H267.7v3.39h4.77v1.39h-6.34Z"/><circle class="cls-2" cx="43.4" cy="92.96" r="11.73"/><path class="cls-3" d="M286.78,147.24V217h69.78V147.24Zm55.13,36.28c-2.31,4.21-19.51,20.74-19.51,20.74s-17.21-16.53-19.52-20.74c-6-10.91,4.53-27,19.52-18.19C337.38,156.54,347.9,172.61,341.91,183.52Z"/><path class="cls-2" d="M322.4,208.79l-2.23-2.14c-2.93-2.81-17.68-17.08-20.11-21.51a17.87,17.87,0,0,1,3.21-21.09c5.06-4.93,12.11-5.73,19.13-2.28,7-3.45,14.06-2.65,19.12,2.27a17.89,17.89,0,0,1,3.21,21.1c-2.43,4.43-17.18,18.7-20.11,21.51ZM314,166.08a8.7,8.7,0,0,0-6.22,2.57,11.5,11.5,0,0,0-2.05,13.4c1.35,2.46,10.18,11.46,16.7,17.82,6.51-6.36,15.35-15.36,16.7-17.82a11.52,11.52,0,0,0-2.05-13.4c-3.36-3.26-8-3.42-13-.47l-1.62,1-1.63-1A13.62,13.62,0,0,0,314,166.08Z"/><path class="cls-2" d="M217,286.79H147.24V217H217Zm-65.87-3.9h62v-62h-62Z"/><path class="cls-2" d="M286.78,77.47v69.77h69.77V77.47Zm30,8c.29-.22.57-.45.87-.69a25.68,25.68,0,0,0,3.91-4.24l.14.19V95.84h-2.59a5.74,5.74,0,0,0,1.49-2.26A16,16,0,0,0,321,92a3.92,3.92,0,0,1-2.85,1.23h0a4.06,4.06,0,0,1-2.8-1.14,3.75,3.75,0,0,1-1.15-2.73C314.13,87.59,315.29,86.67,316.75,85.51ZM291.38,110c-.34-2.21.53-4.53,3.15-5a3.47,3.47,0,0,1,4,2.15v11l-.05-.09C297.29,115.8,291.92,113.48,291.38,110Zm30.05,32.41a31.11,31.11,0,0,0-5.84-7.95,31.64,31.64,0,0,0,5.84-8Zm22.31-7.19-22.26-22.25-22.26,22.25-1.49-1.49L320,111.45,297.82,89.28l1.49-1.49L321.48,110l22.17-22.17,1.49,1.49L323,111.45l22.26,22.25Zm.13-20.82a3.5,3.5,0,1,1-3.42-4.23,3.63,3.63,0,0,1,1.27.24,3.46,3.46,0,0,1-.83-2.27,3.5,3.5,0,0,1,3.5-3.5v14.22h-2.27A4.59,4.59,0,0,0,343.87,114.37Z"/><rect class="cls-2" x="39.15" y="170.04" width="6.87" height="6.87" transform="translate(-110.18 80.9) rotate(-44.99)"/><path class="cls-2" d="M32.27,173.48l10.31,10.31,10.31-10.31L42.58,163.17Zm10.31,7.65-7.65-7.65,7.65-7.65,7.65,7.65Z"/><path class="cls-2" d="M7.7,147.22V217H77.47v-69.8Zm34.88,45.91L22.94,173.48l19.64-19.65,19.64,19.65Z"/><path class="cls-2" d="M25.73,173.48l16.85,16.86,16.85-16.86L42.58,156.62Zm16.85,13.1-13.1-13.1,13.1-13.1,13.1,13.1Z"/><polygon class="cls-3" points="286.78 247.49 286.78 254.34 217.01 231.13 217.01 224.28 286.78 247.49"/><polygon class="cls-3" points="286.78 236.39 286.78 240.83 217.01 217.62 217.01 213.18 286.78 236.39"/><polygon class="cls-3" points="286.78 225.29 286.78 229.73 217.01 206.52 217.01 202.08 286.78 225.29"/><polygon class="cls-3" points="286.78 214.19 286.78 218.63 217.01 195.42 217.01 190.98 286.78 214.19"/><polygon class="cls-3" points="286.78 203.09 286.78 207.53 217.01 184.32 217.01 179.88 286.78 203.09"/><polygon class="cls-3" points="286.78 191.99 286.78 196.43 217.01 173.22 217.01 168.78 286.78 191.99"/><polygon class="cls-3" points="286.78 180.89 286.78 185.33 217.01 162.12 217.01 157.68 286.78 180.89"/><polygon class="cls-3" points="286.78 169.79 286.78 174.23 271.4 169.12 270.16 168.71 253.83 163.27 247.25 161.09 247.25 156.73 245.38 156.73 245.38 160.46 243.53 159.85 241.67 159.22 239.81 158.61 237.96 158 236.09 157.37 234.25 156.76 233.28 156.44 232.39 156.13 217.01 151.02 217.01 146.58 232.39 151.69 233.28 152 241.9 154.87 243.53 155.41 249.11 157.26 249.11 161.42 250.96 161.42 250.96 157.89 252.82 158.5 252.82 161.42 254.69 161.42 254.69 159.12 256.54 159.74 256.54 161.42 258.4 161.42 258.4 160.35 260.26 160.98 261.59 161.42 267.16 163.27 270.16 164.27 271.4 164.68 286.78 169.79"/><polygon class="cls-3" points="233.28 140.9 243.53 144.31 243.53 148.75 233.28 145.34 232.39 145.04 217.01 139.93 217.01 135.49 232.39 140.6 233.28 140.9"/><polygon class="cls-3" points="286.78 158.69 286.78 163.13 271.4 158.02 270.16 157.6 260.26 154.31 260.26 149.87 270.16 153.16 271.4 153.58 286.78 158.69"/><path class="cls-3" d="M233.29,129.8l15.38,5.11a8.44,8.44,0,0,0-3.8,3.18l-11.58-3.85-.9-.3L217,128.82v-4.44l15.38,5.12Z"/><path class="cls-3" d="M286.78,147.59V152l-15.38-5.12-1.24-.41-9.9-3.29v-.59a8.33,8.33,0,0,0-1.15-4.24l11.05,3.67,1.24.41Z"/><polygon class="cls-3" points="286.78 136.49 286.78 140.93 217.01 117.72 217.01 113.28 286.78 136.49"/><path class="cls-3" d="M286.78,125.39v4.44l-15.38-5.12-1.24-.41L233.29,112l-.9-.3L217,106.62v-4.44l15.38,5.12.9.3,13.91,4.62a6.83,6.83,0,0,0,4.7,1.86,4.53,4.53,0,0,0,.74,0l17.52,5.83,1.24.42Z"/><path class="cls-3" d="M233.29,96.5l14.82,4.93a6.82,6.82,0,0,0-2.73,3.53l-12.09-4-.9-.31L217,95.52V91.08l15.38,5.11Z"/><polygon class="cls-3" points="251.99 106.84 254.69 106.84 254.69 107.54 253.14 107.54 251.27 106.93 251.27 102.99 251.99 102.99 251.99 106.84"/><path class="cls-3" d="M286.78,114.3v4.43l-15.38-5.11-1.24-.41-11.71-3.9a6.77,6.77,0,0,0,.34-2.12,6.57,6.57,0,0,0-.42-2.35l11.79,3.93,1.24.41Z"/><polygon class="cls-3" points="286.78 103.19 286.78 107.63 271.4 102.52 270.16 102.1 247.03 94.4 244.48 93.56 239.81 92.01 239.81 87.86 237.96 87.86 237.96 91.38 236.09 90.77 236.09 87.86 234.25 87.86 234.25 90.16 233.28 89.83 232.39 89.53 217.01 84.42 217.01 79.98 235.1 86 240.69 87.86 241.67 88.18 241.67 92.55 243.53 92.55 243.53 88.81 245.38 89.42 245.38 92.55 247.25 92.55 247.25 90.03 249.11 90.66 249.11 92.55 250.96 92.55 250.96 91.27 252.82 91.9 252.82 92.55 254.69 92.55 254.69 92.51 257.83 93.56 260.37 94.4 270.16 97.67 271.4 98.08 286.78 103.19"/><polygon class="cls-3" points="286.78 92.09 286.78 96.53 271.4 91.41 270.16 91 269.55 90.8 269.55 87.86 267.69 87.86 267.69 90.17 265.84 89.56 265.84 87.86 263.98 87.86 263.98 88.95 262.12 88.32 262.12 87.86 260.72 87.86 255.12 86 217.01 73.32 217.01 68.88 268.47 86 271.4 86.97 286.78 92.09"/><path class="cls-3" d="M286.78,81v4.44L217,62.22V57.78L234.2,63.5h0l1.82.6a0,0,0,0,0,0,0,27,27,0,0,0,15.62,5.2h0l1.79.59Z"/><path class="cls-3" d="M226.3,50.53a27.59,27.59,0,0,0,1.75,4.26l-.86-.28L217,51.11V46.68l8.3,2.75h0l.75.25Q226.17,50.11,226.3,50.53Z"/><path class="cls-3" d="M286.78,69.89v4.44l-22.3-7.42-.87-.29a25.86,25.86,0,0,0,4.67-2.89L269,64Z"/><path class="cls-3" d="M224.76,38.16l.63.21a26,26,0,0,0-.33,4.33l-.64-.21L217,40V35.58Z"/><path class="cls-3" d="M286.78,58.79v4.44l-12.9-4.29-.64-.21a27.13,27.13,0,0,0,2.34-3.67l.62.2Z"/><path class="cls-3" d="M228.39,28.26l.64.21a27.74,27.74,0,0,0-1.94,3.8l-.6-.2L217,28.92V24.48Z"/><path class="cls-3" d="M286.78,47.69v4.44l-8.31-2.76-.6-.2a26.76,26.76,0,0,0,.75-4.2l.61.21Z"/><path class="cls-3" d="M236.37,19.82l.77.25a25.92,25.92,0,0,0-3.91,3.15l-.69-.23L217,17.82V13.37Z"/><path class="cls-3" d="M286.78,36.59V41l-7.7-2.56h0l-.69-.22a27.75,27.75,0,0,0-.89-3.82c-.11-.35-.23-.7-.36-1l.76.25h0Z"/><path class="cls-3" d="M286.78,25.57V30l-13.19-4.39-1.14-.37a26.9,26.9,0,0,0-20.57-9.61,26.31,26.31,0,0,0-6.13.72L244.62,16,217,6.8V2.36l38.9,13,9,3Z"/><polygon class="cls-3" points="252.21 2.97 286.78 14.47 286.78 18.91 245.7 5.25 252.21 2.97"/><path class="cls-4" d="M252,106.84V103h-.72v4.55h3.42v-.7Zm0,0V103h-.72v4.55h3.42v-.7Zm0,0V103h-.72v4.55h3.42v-.7Zm0,0V103h-.72v4.55h3.42v-.7Zm0,0V103h-.72v4.55h3.42v-.7Zm0,0V103h-.72v4.55h3.42v-.7Zm0,0V103h-.72v4.55h3.42v-.7Zm0,0V103h-.72v4.55h3.42v-.7Zm0,0V103h-.72v4.55h3.42v-.7Zm0,0V103h-.72v4.55h3.42v-.7Zm0,0V103h-.72v4.55h3.42v-.7Zm0,0V103h-.72v4.55h3.42v-.7Zm0,0V103h-.72v4.55h3.42v-.7Zm0,0V103h-.72v4.55h3.42v-.7Zm0,0V103h-.72v4.55h3.42v-.7Zm0,0V103h-.72v4.55h3.42v-.7Zm0,0V103h-.72v4.55h3.42v-.7Zm0,0V103h-.72v4.55h3.42v-.7Zm0,0V103h-.72v4.55h3.42v-.7Zm0,0V103h-.72v4.55h3.42v-.7Zm0,0V103h-.72v4.55h3.42v-.7Zm0,0V103h-.72v4.55h3.42v-.7Zm0,0V103h-.72v4.55h3.42v-.7Zm0,0V103h-.72v4.55h3.42v-.7Zm0,0V103h-.72v4.55h3.42v-.7Zm0,0V103h-.72v4.55h3.42v-.7Zm17.56-19v4.69h-1.86V87.86h-1.85v4.69H264V87.86h-1.86v4.69h-1.86V87.86H258.4v4.69h-1.86V87.86h-1.85v4.69h-1.87V87.86H251v4.69h-1.85V87.86h-1.86v4.69h-1.86V87.86h-1.86v4.69h-1.86V87.86h-1.86v4.69H238V87.86h-1.87v4.69h-1.84V87.86h-1V208.48h36.87V87.86Zm-22.3,73.56h-1.86v-4.69h1.86Zm13-18.79V161l-1.86-.63v1.07h-1.86v-1.68l-1.85-.62v2.3h-1.87V158.5l-1.86-.61v3.53h-1.85v-4.16l-5.58-1.85V142.63a8.37,8.37,0,1,1,16.73,0Zm-1.47-35.44a6.77,6.77,0,0,1-.34,2.12,6.84,6.84,0,0,1-5.81,4.72,4.53,4.53,0,0,1-.74,0,6.92,6.92,0,0,1-6.9-6.89,6.61,6.61,0,0,1,.38-2.23,6.88,6.88,0,0,1,13-.12A6.57,6.57,0,0,1,258.79,107.19ZM252,103h-.72v4.55h3.42v-.7H252Zm0,3.85V103h-.72v4.55h3.42v-.7Zm0,0V103h-.72v4.55h3.42v-.7Zm0,0V103h-.72v4.55h3.42v-.7Zm0,0V103h-.72v4.55h3.42v-.7Zm0,0V103h-.72v4.55h3.42v-.7Zm0,0V103h-.72v4.55h3.42v-.7Zm0,0V103h-.72v4.55h3.42v-.7Zm0,0V103h-.72v4.55h3.42v-.7Zm0,0V103h-.72v4.55h3.42v-.7Zm0,0V103h-.72v4.55h3.42v-.7Zm0,0V103h-.72v4.55h3.42v-.7Zm0,0V103h-.72v4.55h3.42v-.7Zm0,0V103h-.72v4.55h3.42v-.7Zm0,0V103h-.72v4.55h3.42v-.7Zm0,0V103h-.72v4.55h3.42v-.7Zm0,0V103h-.72v4.55h3.42v-.7Zm0,0V103h-.72v4.55h3.42v-.7Zm0,0V103h-.72v4.55h3.42v-.7Zm0,0V103h-.72v4.55h3.42v-.7Zm0,0V103h-.72v4.55h3.42v-.7Zm0,0V103h-.72v4.55h3.42v-.7Zm0,0V103h-.72v4.55h3.42v-.7Zm0,0V103h-.72v4.55h3.42v-.7Zm0,0V103h-.72v4.55h3.42v-.7Zm-.72.09v.61h1.87Z"/><path class="cls-2" d="M344,309.13,344,309c-.13-.29-.26-.58-.4-.87l-6.19-13.27H306l-6.18,13.27c-.15.3-.3.6-.43.9l-.05.1a18.17,18.17,0,0,0-1.46,7.12c0,11.35,10.66,20.55,23.83,20.55s23.83-9.2,23.83-20.55A18,18,0,0,0,344,309.13Zm-15,4.32,8.45,2.57-.26.82-2.31,7.62-8.45-2.56,1.54-5.06Zm-9.23,1,3.44,2.35,3.16,2.17-4.53,6.6-6.6-4.52,2.91-4.25Zm-12,14.22-.74-7.93,7.94-.73.73,7.93Zm5.32-17.26,1.7,5.39.4,1.27-6.67,2.11-1.06-3.38-1-3.3Z"/><path class="cls-3" d="M337.21,316.84l-2.31,7.62-8.45-2.56,1.54-5.06h-4.76l3.16,2.17-4.53,6.6-6.6-4.52,2.91-4.25H314.8l.4,1.27-6.67,2.11-1.06-3.38h-5.42v.35c0,9.35,8.78,16.92,19.62,16.92s19.62-7.57,19.62-16.92v-.35Zm-29.43,11.87-.74-7.93,7.94-.73.73,7.93Z"/><path class="cls-4" d="M138.6,327.93V315.72H118.31l28.92-28.93H77.47l28.92,28.93H100a16.17,16.17,0,0,0-15.71-12.33H77.47v35.46h6.27a16.76,16.76,0,0,0,15.72-10.92h6.64L77.47,356.56h69.76L118.6,327.93Zm-8.4-8.6.32,0a2.61,2.61,0,0,1,2.29,2.59v.12a2.6,2.6,0,0,1-2.29,2.58l-.32,0H115.91L119,322l-3.09-2.67Z"/><path class="cls-4" d="M144.75,317.1h2.48v1.75h-2.48a.88.88,0,1,1,0-1.75Z"/><path class="cls-4" d="M142.27,320.8h5v1.76h-5a.88.88,0,0,1,0-1.76Z"/><path class="cls-4" d="M144.75,324.66h2.48v1.76h-2.48a.88.88,0,0,1,0-1.76Z"/><polygon class="cls-3" points="147.24 356.56 77.47 356.56 106.1 327.93 112.35 321.68 147.24 356.56"/><polygon class="cls-2" points="147.24 286.79 118.31 315.72 112.35 321.68 77.47 286.79 147.24 286.79"/><path class="cls-3" d="M324.76,28.79l-.09.14-.12-.14Z"/><path class="cls-3" d="M311,33.82h-.43a1.29,1.29,0,0,0-1.29,1.29V60.87a1.28,1.28,0,0,0,1.29,1.28H311a1.28,1.28,0,0,0,1.29-1.28V35.11A1.29,1.29,0,0,0,311,33.82Zm6.59-5.08-.05.05h.08Zm-1.21,5.08H316a1.29,1.29,0,0,0-1.29,1.29V60.87A1.28,1.28,0,0,0,316,62.15h.43a1.28,1.28,0,0,0,1.29-1.28V35.11A1.29,1.29,0,0,0,316.39,33.82Zm5.38,0h-.44a1.28,1.28,0,0,0-1.28,1.29V60.87a1.28,1.28,0,0,0,1.28,1.28h.44a1.28,1.28,0,0,0,1.28-1.28V35.11A1.28,1.28,0,0,0,321.77,33.82Zm0,0h-.44a1.28,1.28,0,0,0-1.28,1.29V60.87a1.28,1.28,0,0,0,1.28,1.28h.44a1.28,1.28,0,0,0,1.28-1.28V35.11A1.28,1.28,0,0,0,321.77,33.82Zm-5.38,0H316a1.29,1.29,0,0,0-1.29,1.29V60.87A1.28,1.28,0,0,0,316,62.15h.43a1.28,1.28,0,0,0,1.29-1.28V35.11A1.29,1.29,0,0,0,316.39,33.82Zm1.21-5.08-.05.05h.08ZM311,33.82h-.43a1.29,1.29,0,0,0-1.29,1.29V60.87a1.28,1.28,0,0,0,1.29,1.28H311a1.28,1.28,0,0,0,1.29-1.28V35.11A1.29,1.29,0,0,0,311,33.82Zm0,0h-.43a1.29,1.29,0,0,0-1.29,1.29V60.87a1.28,1.28,0,0,0,1.29,1.28H311a1.28,1.28,0,0,0,1.29-1.28V35.11A1.29,1.29,0,0,0,311,33.82Zm6.59-5.08-.05.05h.08Zm-1.21,5.08H316a1.29,1.29,0,0,0-1.29,1.29V60.87A1.28,1.28,0,0,0,316,62.15h.43a1.28,1.28,0,0,0,1.29-1.28V35.11A1.29,1.29,0,0,0,316.39,33.82Zm5.38,0h-.44a1.28,1.28,0,0,0-1.28,1.29V60.87a1.28,1.28,0,0,0,1.28,1.28h.44a1.28,1.28,0,0,0,1.28-1.28V35.11A1.28,1.28,0,0,0,321.77,33.82Zm0,0h-.44a1.28,1.28,0,0,0-1.28,1.29V60.87a1.28,1.28,0,0,0,1.28,1.28h.44a1.28,1.28,0,0,0,1.28-1.28V35.11A1.28,1.28,0,0,0,321.77,33.82Zm-5.38,0H316a1.29,1.29,0,0,0-1.29,1.29V60.87A1.28,1.28,0,0,0,316,62.15h.43a1.28,1.28,0,0,0,1.29-1.28V35.11A1.29,1.29,0,0,0,316.39,33.82Zm1.21-5.08-.05.05h.08ZM311,33.82h-.43a1.29,1.29,0,0,0-1.29,1.29V60.87a1.28,1.28,0,0,0,1.29,1.28H311a1.28,1.28,0,0,0,1.29-1.28V35.11A1.29,1.29,0,0,0,311,33.82Zm0,0h-.43a1.29,1.29,0,0,0-1.29,1.29V60.87a1.28,1.28,0,0,0,1.29,1.28H311a1.28,1.28,0,0,0,1.29-1.28V35.11A1.29,1.29,0,0,0,311,33.82Zm6.59-5.08-.05.05h.08Zm-1.21,5.08H316a1.29,1.29,0,0,0-1.29,1.29V60.87A1.28,1.28,0,0,0,316,62.15h.43a1.28,1.28,0,0,0,1.29-1.28V35.11A1.29,1.29,0,0,0,316.39,33.82Zm5.38,0h-.44a1.28,1.28,0,0,0-1.28,1.29V60.87a1.28,1.28,0,0,0,1.28,1.28h.44a1.28,1.28,0,0,0,1.28-1.28V35.11A1.28,1.28,0,0,0,321.77,33.82Zm5.38,0h-.44a1.28,1.28,0,0,0-1.28,1.29V60.87a1.28,1.28,0,0,0,1.28,1.28h.44a1.28,1.28,0,0,0,1.28-1.28V35.11A1.28,1.28,0,0,0,327.15,33.82Zm6.64,6.24h-2a1.59,1.59,0,0,0-.5.07v13a1.59,1.59,0,0,0,.5.07h2a2,2,0,0,0,2-2V42A2,2,0,0,0,333.79,40.06Zm0,0h-2a1.59,1.59,0,0,0-.5.07v13a1.59,1.59,0,0,0,.5.07h2a2,2,0,0,0,2-2V42A2,2,0,0,0,333.79,40.06Zm-6.64-6.24h-.44a1.28,1.28,0,0,0-1.28,1.29V60.87a1.28,1.28,0,0,0,1.28,1.28h.44a1.28,1.28,0,0,0,1.28-1.28V35.11A1.28,1.28,0,0,0,327.15,33.82Zm-5.38,0h-.44a1.28,1.28,0,0,0-1.28,1.29V60.87a1.28,1.28,0,0,0,1.28,1.28h.44a1.28,1.28,0,0,0,1.28-1.28V35.11A1.28,1.28,0,0,0,321.77,33.82Zm-5.38,0H316a1.29,1.29,0,0,0-1.29,1.29V60.87A1.28,1.28,0,0,0,316,62.15h.43a1.28,1.28,0,0,0,1.29-1.28V35.11A1.29,1.29,0,0,0,316.39,33.82Zm1.21-5.08-.05.05h.08ZM311,33.82h-.43a1.29,1.29,0,0,0-1.29,1.29V60.87a1.28,1.28,0,0,0,1.29,1.28H311a1.28,1.28,0,0,0,1.29-1.28V35.11A1.29,1.29,0,0,0,311,33.82ZM286.78,7.7V77.47h69.77V7.7Zm51.79,43.56a4.79,4.79,0,0,1-4.78,4.79h-2l-.5,0v7.83A3.33,3.33,0,0,1,328,67.18H309.74a3.32,3.32,0,0,1-3.32-3.32V32.12a3.37,3.37,0,0,1,1-2.38,2.33,2.33,0,0,1-1.51-2.11,2.44,2.44,0,0,1,2.33-2.31,2.57,2.57,0,0,1-.32-1.24,3,3,0,0,1,3.2-2.85,3.59,3.59,0,0,1,1.08.17,4.16,4.16,0,0,1,4.22-3.18,4.48,4.48,0,0,1,3.22,1.3,3.31,3.31,0,0,1,1.08-.18,3.1,3.1,0,0,1,2.73,1.52h.32a3,3,0,0,1,2.85,1.79,3,3,0,0,1,2.21,1.6h.24A2.9,2.9,0,0,1,332.11,27a2.76,2.76,0,0,1-2.06,2.57,3.3,3.3,0,0,1,1.26,2.6v5.15l.5,0h2A4.79,4.79,0,0,1,338.57,42Zm-4.78-11.2h-2a1.59,1.59,0,0,0-.5.07v13a1.59,1.59,0,0,0,.5.07h2a2,2,0,0,0,2-2V42A2,2,0,0,0,333.79,40.06Zm-6.64-6.24h-.44a1.28,1.28,0,0,0-1.28,1.29V60.87a1.28,1.28,0,0,0,1.28,1.28h.44a1.28,1.28,0,0,0,1.28-1.28V35.11A1.28,1.28,0,0,0,327.15,33.82Zm-5.38,0h-.44a1.28,1.28,0,0,0-1.28,1.29V60.87a1.28,1.28,0,0,0,1.28,1.28h.44a1.28,1.28,0,0,0,1.28-1.28V35.11A1.28,1.28,0,0,0,321.77,33.82Zm-5.38,0H316a1.29,1.29,0,0,0-1.29,1.29V60.87A1.28,1.28,0,0,0,316,62.15h.43a1.28,1.28,0,0,0,1.29-1.28V35.11A1.29,1.29,0,0,0,316.39,33.82Zm1.21-5.08-.05.05h.08ZM311,33.82h-.43a1.29,1.29,0,0,0-1.29,1.29V60.87a1.28,1.28,0,0,0,1.29,1.28H311a1.28,1.28,0,0,0,1.29-1.28V35.11A1.29,1.29,0,0,0,311,33.82Zm0,0h-.43a1.29,1.29,0,0,0-1.29,1.29V60.87a1.28,1.28,0,0,0,1.29,1.28H311a1.28,1.28,0,0,0,1.29-1.28V35.11A1.29,1.29,0,0,0,311,33.82Zm6.59-5.08-.05.05h.08Zm-1.21,5.08H316a1.29,1.29,0,0,0-1.29,1.29V60.87A1.28,1.28,0,0,0,316,62.15h.43a1.28,1.28,0,0,0,1.29-1.28V35.11A1.29,1.29,0,0,0,316.39,33.82Zm5.38,0h-.44a1.28,1.28,0,0,0-1.28,1.29V60.87a1.28,1.28,0,0,0,1.28,1.28h.44a1.28,1.28,0,0,0,1.28-1.28V35.11A1.28,1.28,0,0,0,321.77,33.82Zm5.38,0h-.44a1.28,1.28,0,0,0-1.28,1.29V60.87a1.28,1.28,0,0,0,1.28,1.28h.44a1.28,1.28,0,0,0,1.28-1.28V35.11A1.28,1.28,0,0,0,327.15,33.82Zm0,0h-.44a1.28,1.28,0,0,0-1.28,1.29V60.87a1.28,1.28,0,0,0,1.28,1.28h.44a1.28,1.28,0,0,0,1.28-1.28V35.11A1.28,1.28,0,0,0,327.15,33.82Zm-5.38,0h-.44a1.28,1.28,0,0,0-1.28,1.29V60.87a1.28,1.28,0,0,0,1.28,1.28h.44a1.28,1.28,0,0,0,1.28-1.28V35.11A1.28,1.28,0,0,0,321.77,33.82Zm-5.38,0H316a1.29,1.29,0,0,0-1.29,1.29V60.87A1.28,1.28,0,0,0,316,62.15h.43a1.28,1.28,0,0,0,1.29-1.28V35.11A1.29,1.29,0,0,0,316.39,33.82Zm1.21-5.08-.05.05h.08ZM311,33.82h-.43a1.29,1.29,0,0,0-1.29,1.29V60.87a1.28,1.28,0,0,0,1.29,1.28H311a1.28,1.28,0,0,0,1.29-1.28V35.11A1.29,1.29,0,0,0,311,33.82Zm0,0h-.43a1.29,1.29,0,0,0-1.29,1.29V60.87a1.28,1.28,0,0,0,1.29,1.28H311a1.28,1.28,0,0,0,1.29-1.28V35.11A1.29,1.29,0,0,0,311,33.82Zm6.59-5.08-.05.05h.08Zm-1.21,5.08H316a1.29,1.29,0,0,0-1.29,1.29V60.87A1.28,1.28,0,0,0,316,62.15h.43a1.28,1.28,0,0,0,1.29-1.28V35.11A1.29,1.29,0,0,0,316.39,33.82Zm5.38,0h-.44a1.28,1.28,0,0,0-1.28,1.29V60.87a1.28,1.28,0,0,0,1.28,1.28h.44a1.28,1.28,0,0,0,1.28-1.28V35.11A1.28,1.28,0,0,0,321.77,33.82Zm0,0h-.44a1.28,1.28,0,0,0-1.28,1.29V60.87a1.28,1.28,0,0,0,1.28,1.28h.44a1.28,1.28,0,0,0,1.28-1.28V35.11A1.28,1.28,0,0,0,321.77,33.82Zm-5.38,0H316a1.29,1.29,0,0,0-1.29,1.29V60.87A1.28,1.28,0,0,0,316,62.15h.43a1.28,1.28,0,0,0,1.29-1.28V35.11A1.29,1.29,0,0,0,316.39,33.82Zm1.21-5.08-.05.05h.08ZM311,33.82h-.43a1.29,1.29,0,0,0-1.29,1.29V60.87a1.28,1.28,0,0,0,1.29,1.28H311a1.28,1.28,0,0,0,1.29-1.28V35.11A1.29,1.29,0,0,0,311,33.82Z"/><rect class="cls-2" x="15.59" y="303.39" width="19.7" height="35.46"/><polygon class="cls-2" points="36.21 304.7 44.78 312.26 36.21 319.81 36.21 304.7"/><polygon class="cls-2" points="36.78 303.39 45.36 303.39 45.36 310.95 36.78 303.39"/><polygon class="cls-2" points="54.85 303.39 46.27 310.94 46.27 303.39 54.85 303.39"/><polygon class="cls-2" points="55.42 304.7 55.42 319.81 46.84 312.26 55.42 304.7"/><polygon class="cls-2" points="54.84 321.12 46.27 328.67 46.27 313.57 54.84 321.12"/><polygon class="cls-2" points="44.78 329.98 36.21 337.54 36.21 322.43 44.78 329.98"/><polygon class="cls-2" points="36.78 321.12 45.36 313.56 45.36 328.68 36.78 321.12"/><polygon class="cls-2" points="36.77 338.85 45.36 331.29 45.36 338.85 36.77 338.85"/><polygon class="cls-2" points="46.27 331.3 54.85 338.85 46.27 338.85 46.27 331.3"/><polygon class="cls-2" points="55.42 322.43 55.42 337.54 46.84 329.98 55.42 322.43"/><path class="cls-2" d="M100.51,319.59v2.48a16.76,16.76,0,0,1-16.77,16.78H56.33V303.39h28A16.17,16.17,0,0,1,100,315.72,15.9,15.9,0,0,1,100.51,319.59Z"/><path class="cls-2" d="M90.42,315.72a5.67,5.67,0,0,0-5.68,5.67v.86a5.68,5.68,0,0,0,5.68,5.68H138.6V315.72Zm39.78,3.61.32,0a2.61,2.61,0,0,1,2.29,2.59v.12a2.6,2.6,0,0,1-2.29,2.58l-.32,0H115.91L119,322l-3.09-2.67Z"/><path class="cls-3" d="M138.6,315.72v12.21h-8.08v-3.29a2.6,2.6,0,0,0,2.29-2.58v-.12a2.61,2.61,0,0,0-2.29-2.59v-3.63Z"/><path class="cls-3" d="M202.68,314.38H209a0,0,0,0,1,0,0v14.89a0,0,0,0,1,0,0h-6.33a3.53,3.53,0,0,1-3.53-3.53v-7.83A3.53,3.53,0,0,1,202.68,314.38Z" transform="translate(408.16 643.65) rotate(180)"/><path class="cls-2" d="M182.47,315.72h11a5.68,5.68,0,0,1,5.68,5.68v.86a5.68,5.68,0,0,1-5.68,5.68h-11a0,0,0,0,1,0,0V315.72a0,0,0,0,1,0,0Z" transform="translate(381.63 643.65) rotate(180)"/><rect class="cls-3" x="33.34" y="303.39" width="1.95" height="35.46"/><polygon class="cls-3" points="36.21 304.7 44.78 312.26 36.21 319.81 36.21 304.7"/><polygon class="cls-3" points="36.78 303.39 45.36 303.39 45.36 310.95 36.78 303.39"/><polygon class="cls-3" points="54.85 303.39 46.27 310.94 46.27 303.39 54.85 303.39"/><polygon class="cls-3" points="55.42 304.7 55.42 319.81 46.84 312.26 55.42 304.7"/><polygon class="cls-3" points="54.84 321.12 46.27 328.67 46.27 313.57 54.84 321.12"/><polygon class="cls-3" points="44.78 329.98 36.21 337.54 36.21 322.43 44.78 329.98"/><polygon class="cls-3" points="36.78 321.12 45.36 313.56 45.36 328.68 36.78 321.12"/><polygon class="cls-3" points="36.77 338.85 45.36 331.29 45.36 338.85 36.77 338.85"/><polygon class="cls-3" points="46.27 331.3 54.85 338.85 46.27 338.85 46.27 331.3"/><polygon class="cls-3" points="55.42 322.43 55.42 337.54 46.84 329.98 55.42 322.43"/><rect class="cls-3" x="56.33" y="303.39" width="2.37" height="35.46"/><path class="cls-3" d="M232.39,154.87v8.4h39v-8.4Zm33.45,1.86v4.69H264v-4.69Zm-16.73,0H251v4.69h-1.85Zm-13,4.69h-1.84v-4.69h1.84Zm3.72,0H238v-4.69h1.85Zm3.72,0h-1.86v-4.69h1.86Zm3.72,0h-1.86v-4.69h1.86Zm5.57-4.69h1.87v4.69h-1.87m5.58,0h-1.86v-4.69h1.86Zm1.86,0v-4.69h1.86v4.69Zm9.29,0h-1.86v-4.69h1.86Z"/><path class="cls-2" d="M232.39,93.56V208.48h39V93.56Zm26.4,13.63a6.77,6.77,0,0,1-.34,2.12,6.84,6.84,0,0,1-5.81,4.72,4.53,4.53,0,0,1-.74,0,6.92,6.92,0,0,1-6.9-6.89,6.61,6.61,0,0,1,.38-2.23,6.88,6.88,0,0,1,13-.12A6.57,6.57,0,0,1,258.79,107.19Zm1.47,35.44v20.64H243.53V142.63a8.37,8.37,0,1,1,16.73,0Z"/><rect class="cls-3" x="232.39" y="166.85" width="39.01" height="1.9"/><rect class="cls-3" x="232.39" y="116.93" width="39.01" height="1.9"/><path class="cls-3" d="M232.39,86v8.4h39V86Zm37.16,1.86v4.69h-1.86V87.86Zm-13,0h1.86v4.69h-1.86Zm9.3,0v4.69H264V87.86Zm-3.72,0v4.69h-1.86V87.86Zm-7.43,0v4.69h-1.87V87.86Zm-3.73,0v4.69h-1.85V87.86Zm-3.71,0v4.69h-1.86V87.86Zm-3.72,0v4.69h-1.86V87.86Zm-3.72,4.69H238V87.86h1.85Zm-3.72-4.69v4.69h-1.84V87.86Z"/><polygon class="cls-3" points="254.69 106.84 254.69 107.54 251.27 107.54 251.27 102.99 251.99 102.99 251.99 106.84 254.69 106.84"/><rect class="cls-3" x="344.93" y="217.02" width="11.63" height="69.77"/><rect class="cls-2" x="321.67" y="217.02" width="11.63" height="69.77"/><rect class="cls-3" x="310.04" y="217.02" width="11.63" height="69.77"/><rect class="cls-2" x="286.78" y="217.02" width="11.63" height="69.77"/><path class="cls-3" d="M201.35,257.83a18.27,18.27,0,0,1-36.23,0,18.27,18.27,0,1,0,36.23,0Z"/><path class="cls-2" d="M183.45,269.45a12.35,12.35,0,0,0,2.11-.18,14.49,14.49,0,0,0,11.24-10.12,18.39,18.39,0,0,0-.7-11.13c-2-6-5.92-10.87-9.41-16l-1.77-2.63a16.91,16.91,0,0,1-1.69-2.54c-2.27,3.46-4.67,6.83-6.94,10.28A49.32,49.32,0,0,0,170.36,248a18.38,18.38,0,0,0-.69,11.13A14.65,14.65,0,0,0,183.45,269.45Zm-8.8-24.65c-4.5,16.33,7.93,21.07,7.93,21.07-3.12-.9-7.63-2.46-9.73-7.87S174.65,244.8,174.65,244.8Z"/><path class="cls-2" d="M175.8,341.26a12.92,12.92,0,0,0-3-4.11A28.36,28.36,0,0,0,168.7,334c-1.41-.95-2.83-1.85-4.24-2.8a8.42,8.42,0,0,1,.23,1.23c.08.43.16.85.23,1.28a39.72,39.72,0,0,0,1.74,7.56,13,13,0,0,0,2.62,4.32c1.62,1.71,3.77,2.56,5.23,2.06a2.81,2.81,0,0,0,.55-.27C176.55,346.35,176.87,343.74,175.8,341.26Z"/><path class="cls-2" d="M187.82,333a10.7,10.7,0,0,0-3.73-1.79,20.92,20.92,0,0,0-4.11-.6c-1.34-.1-2.66-.16-4-.26a8.52,8.52,0,0,1,.69.81l.71.85a35.47,35.47,0,0,0,4.46,4.86,11,11,0,0,0,3.61,2.09c1.8.57,3.57.28,4.31-.71a1.82,1.82,0,0,0,.24-.43C190.55,336.45,189.61,334.38,187.82,333Z"/><path class="cls-2" d="M175.06,296a2.31,2.31,0,0,0-.55-.26c-1.46-.5-3.61.34-5.23,2.05a13,13,0,0,0-2.62,4.32,39.64,39.64,0,0,0-1.74,7.57c-.07.42-.15.85-.23,1.27a8.17,8.17,0,0,1-.23,1.23c1.41-.95,2.83-1.85,4.24-2.79a28.45,28.45,0,0,0,4.15-3.2,13,13,0,0,0,3-4.1C176.87,299.6,176.55,297,175.06,296Z"/><path class="cls-2" d="M190,305.52a1.82,1.82,0,0,0-.24-.43c-.74-1-2.51-1.28-4.31-.71a10.86,10.86,0,0,0-3.61,2.1,34.9,34.9,0,0,0-4.46,4.86l-.71.84a10.22,10.22,0,0,1-.69.82c1.33-.11,2.65-.17,4-.27a20.92,20.92,0,0,0,4.11-.6,10.52,10.52,0,0,0,3.73-1.79C189.61,309,190.55,306.89,190,305.52Z"/><path class="cls-3" d="M56.9,173.59c0,.23-.14.43-.31.43h-28c-.18,0-.32-.2-.32-.43s.14-.44.32-.44H42.15V139.52L15,107.74h9.51L41.85,139l-15-31.24H70.16L43,139.52v33.63H56.59C56.76,173.15,56.9,173.35,56.9,173.59Z"/><polygon class="cls-2" points="42.15 139.52 15.01 107.74 24.52 107.74 41.85 138.99 41.85 138.99 42.15 139.52"/><polygon class="cls-2" points="60.65 107.73 43.01 139.52 70.16 107.74 60.65 107.73"/><path class="cls-3" d="M28.72,200.45v.13h-.8a.69.69,0,0,0-.51.21.73.73,0,0,0-.2.51v9.78h-.14a1.73,1.73,0,0,1-.89-.38,12.44,12.44,0,0,1-1.21-1c-.44-.4-.9-.86-1.39-1.38s-1-1-1.42-1.57c-1.11-1.26-2.28-2.68-3.52-4.28v7.74a.73.73,0,0,0,.2.51.69.69,0,0,0,.51.21h.8v.13H17V211h.79a.69.69,0,0,0,.51-.21.67.67,0,0,0,.22-.51v-7.85l-.63-.64a6.17,6.17,0,0,0-.66-.56,5.07,5.07,0,0,0-.55-.36,2.31,2.31,0,0,0-.51-.24v-.13h3.27a3,3,0,0,1,.73.14,6.8,6.8,0,0,1,.76.31,4.59,4.59,0,0,1,.88.6c.3.26.63.57,1,.92s.72.72,1.09,1.11.72.78,1.07,1.18l.95,1.12c.29.35.53.67.74.94a6.42,6.42,0,0,1,.42.65V201.3a.73.73,0,0,0-.2-.51.69.69,0,0,0-.51-.21h-.81v-.13h3.17Z"/><path class="cls-3" d="M37.37,211.08a3.72,3.72,0,0,1-1.42-.25,3,3,0,0,1-1-.71,4.26,4.26,0,0,1-.75-1.1c-.22-.43-.43-.91-.64-1.43H30.2l-.79,2.77a.36.36,0,0,0,0,.1v.1a.45.45,0,0,0,.09.28.37.37,0,0,0,.31.11h.8v.13H27.42V211h.87a1,1,0,0,0,.56-.19.9.9,0,0,0,.38-.5l2.32-7.67-.39-.64a5.6,5.6,0,0,0-.48-.66,3.6,3.6,0,0,0-.53-.51.86.86,0,0,0-.53-.2v-.13h2.75a2.25,2.25,0,0,1,1,.21,2.92,2.92,0,0,1,.76.52,3.09,3.09,0,0,1,.55.69,7,7,0,0,1,.37.71l.49,1.2c.17.43.36.89.56,1.36l.6,1.41.57,1.37,1.34,3.16Zm-7.13-3.62h3.25l-1.85-4.61Z"/><path class="cls-3" d="M45.08,211.08H38.63V211H40V200.58H38.63v-.13h9.53V204H48c0-.22,0-.43,0-.61a2.34,2.34,0,0,0-.08-.53,2.77,2.77,0,0,0-.2-.54c-.1-.18-.22-.39-.38-.63a3.15,3.15,0,0,0-.56-.62,2.07,2.07,0,0,0-.62-.33,2.63,2.63,0,0,0-.7-.13c-.24,0-.5,0-.78,0H43.47v5h1.17a1.63,1.63,0,0,0,.45-.09,1.36,1.36,0,0,0,.4-.2,1.87,1.87,0,0,0,.35-.38,4,4,0,0,0,.4-.76,2,2,0,0,0,.16-.83h.12V208H46.4a2.21,2.21,0,0,0-.15-.82,3.4,3.4,0,0,0-.41-.77,1.32,1.32,0,0,0-.74-.56,3.32,3.32,0,0,0-1-.13h-.65v5.27h1.61Z"/><path class="cls-3" d="M58.55,200.45v4h-.14a3.52,3.52,0,0,0-.24-1.29,8.67,8.67,0,0,0-.73-1.33,4,4,0,0,0-.53-.63,2.14,2.14,0,0,0-.5-.36,1.34,1.34,0,0,0-.47-.17,2.25,2.25,0,0,0-.44,0V211H57v.13H50.64V211h1.52V200.59a2.71,2.71,0,0,0-.47,0,1.88,1.88,0,0,0-.53.16,2.69,2.69,0,0,0-.56.35,2.61,2.61,0,0,0-.55.62,5.11,5.11,0,0,0-.66,1.33,5,5,0,0,0-.17,1.29h-.15v-3.93Z"/><path class="cls-3" d="M67.77,211.08a3.72,3.72,0,0,1-1.42-.25,3.17,3.17,0,0,1-1-.71,4.83,4.83,0,0,1-.75-1.1c-.21-.43-.42-.91-.63-1.43H60.59l-.78,2.77a.18.18,0,0,0,0,.1v.1a.45.45,0,0,0,.09.28.35.35,0,0,0,.3.11H61v.13H57.82V211h.86a1,1,0,0,0,.57-.19.85.85,0,0,0,.37-.5l2.32-7.67-.38-.64a5.6,5.6,0,0,0-.48-.66,3.6,3.6,0,0,0-.53-.51.86.86,0,0,0-.53-.2v-.13h2.74a2.26,2.26,0,0,1,1,.21,3.2,3.2,0,0,1,1.31,1.21,5.28,5.28,0,0,1,.36.71l.5,1.2c.17.43.36.89.56,1.36s.39.94.6,1.41l.57,1.37L69,211.08Zm-7.13-3.62h3.25L62,202.85Z"/><path class="cls-2" d="M332,348.49H311.38c3.45-1.78,7.11-4.07,7.11-6.57s-2.05-4.76-5.46-6.53H330.3c-3.41,1.77-5.46,4.05-5.46,6.53S328.5,346.72,332,348.49Z"/><path class="cls-3" d="M217,225h0v61.81h69.77V250.66Zm64.23,43.5s-.06,0-.12,0a3,3,0,0,1-.47.66A3.21,3.21,0,0,1,279,270a2.77,2.77,0,0,1-.2,2.8c-.26.25-.79.53-3.37,0a23.8,23.8,0,0,1-3-.81c-.77.18-2-.29-4.12-.56-1.52-.19-1.53,0-5.84,0-3,0-2.51-.05-7.82-.1-4.87,0-7.32-.06-8.21,0a34.28,34.28,0,0,1-5.75.1c-.86-.06-1.1-.12-2.28-.19-1.9-.13-3.37-.11-4.65-.1H232.5a39.31,39.31,0,0,1-5.17,1.45c-.8.17-2.23.43-2.67-.2-.19-.29-.16-.78-.11-1.79,0-.24,0-.47.06-.65a3,3,0,0,1-1.47-.79c-1.79-1.82-.62-6,1.15-8.63a9.49,9.49,0,0,1,.94-1.28,8.74,8.74,0,0,1,2.47-1.84l1.17-.83c4.12-2.81,6.32-4.32,9.91-5.74.71-.29,1.41-.54,2.08-.76a24,24,0,0,1,5.35-1.52,37.8,37.8,0,0,1,11.37,0,24.31,24.31,0,0,1,5.35,1.52c.67.22,1.37.47,2.08.76,3.58,1.42,5.79,2.93,9.91,5.74l1.18.83a8.92,8.92,0,0,1,2.47,1.84,10.32,10.32,0,0,1,.93,1.28,11.49,11.49,0,0,1,2,6.17A4.16,4.16,0,0,1,281.25,268.48Z"/><path class="cls-2" d="M279.08,38.47h0a26.92,26.92,0,0,0-1-4.23c-.06-.2-.13-.4-.2-.59h0a27.51,27.51,0,0,0-22-18.32,26.94,26.94,0,0,0-11.29.68c-.32.08-.64.18-1,.28a27.51,27.51,0,0,0-7.28,3.55A26.54,26.54,0,0,0,232.54,23a27.38,27.38,0,0,0-4.15,5.27,28.19,28.19,0,0,0-1.9,3.81,26.89,26.89,0,0,0-1.73,6.09,28.31,28.31,0,0,0-.34,4.33,27.59,27.59,0,0,0,.89,6.94h0c.11.44.24.86.37,1.29a27.83,27.83,0,0,0,1.51,3.78,27.39,27.39,0,0,0,7,9h0A27.67,27.67,0,0,0,251.92,70c.51,0,1,0,1.55,0a27,27,0,0,0,6.67-1.22,28.21,28.21,0,0,0,4.34-1.78A27.66,27.66,0,0,0,269,64a27.32,27.32,0,0,0,4.87-5,27.73,27.73,0,0,0,2.32-3.68,26.3,26.3,0,0,0,2.27-5.89,25.94,25.94,0,0,0,.76-4.19A27,27,0,0,0,279.08,38.47Zm-1.21,10.7a26.17,26.17,0,0,1-2.29,5.89,27.13,27.13,0,0,1-2.34,3.67,26.68,26.68,0,0,1-5,5,25.86,25.86,0,0,1-4.67,2.89A27.91,27.91,0,0,1,260,68.08a26.73,26.73,0,0,1-8.27,1.24h0a27,27,0,0,1-15.62-5.2,0,0,0,0,1,0,0,26.66,26.66,0,0,1-8-9.32,27.59,27.59,0,0,1-1.75-4.26q-.13-.42-.24-.84a26.47,26.47,0,0,1-1-7,26,26,0,0,1,.33-4.33,26.69,26.69,0,0,1,1.7-6.1,27.74,27.74,0,0,1,1.94-3.8,27,27,0,0,1,8.11-8.4,26.57,26.57,0,0,1,6.71-3.18c.63-.2,1.26-.38,1.9-.53a26.31,26.31,0,0,1,6.13-.72,26.9,26.9,0,0,1,20.57,9.61,26.24,26.24,0,0,1,4.69,8.13c.13.34.25.69.36,1a27.75,27.75,0,0,1,.89,3.82,25.83,25.83,0,0,1,.23,6.73A26.76,26.76,0,0,1,277.87,49.17Z"/><path class="cls-3" d="M244.33,50.13a0,0,0,0,0,0,.06l2.93,9.32-1.15.36-2.93-9.32a0,0,0,0,0-.06,0l-1.26.4s-.05,0,0,.06c.48,1.52,1,3,1.42,4.53s.94,3,1.42,4.54l.12.35a1.11,1.11,0,0,0,.18.32,1.38,1.38,0,0,0,.75.51,1.73,1.73,0,0,0,.9,0l1.12-.36a1.17,1.17,0,0,0,.61-.41,1.37,1.37,0,0,0,.3-.67.94.94,0,0,0,0-.47,4.28,4.28,0,0,0-.13-.46l-2.85-9.06a0,0,0,0,0-.06,0Z"/><path class="cls-4" d="M246,62h0l0,0Z"/><path class="cls-3" d="M261.84,22.94a1.8,1.8,0,0,0-.3-.56,2,2,0,0,0-.49-.46,2,2,0,0,0-.6-.27,1.7,1.7,0,0,0-.63-.07,2.63,2.63,0,0,0-.47.1l-.46.14-1.47.47a1.22,1.22,0,0,0-.47.28,2.44,2.44,0,0,0-.39.46,2.89,2.89,0,0,0-.27.56,1.64,1.64,0,0,0-.1.54,2.59,2.59,0,0,0,.12.65c.08.28.15.5.19.65.58,1.85,1.16,3.67,1.74,5.48s1.16,3.64,1.74,5.49a1.91,1.91,0,0,0,.77,1,1.87,1.87,0,0,0,1.24.33,3.4,3.4,0,0,0,.46-.09l.45-.14,1.49-.47a1.59,1.59,0,0,0,.95-.84,2.19,2.19,0,0,0,.25-1.25,2.68,2.68,0,0,0-.11-.49c-.06-.15-.11-.31-.17-.47Zm-3.57,1.2,1.33-.42,1.43,9.2Zm5.3,11.06-1.28.4c-.25-1.5-.48-3-.71-4.47l-.69-4.47Z"/><path class="cls-3" d="M260.71,50.06s0,0,0,0l-.24-.75s0,0,0,0l-1,.33L257.64,44s0,0,0,0l-.77.24s0,0,0,0l2,6.41s0,0,0,0Z"/><path class="cls-3" d="M239.2,54.55h.07l1.17-.37,0,0a.11.11,0,0,1,0,0s0,0,0,0l-.1-.33a3.57,3.57,0,0,0-.12-.4c0-.14-.08-.27-.13-.4a1.92,1.92,0,0,0-.14-.32,1.25,1.25,0,0,0-.49-.48,1.45,1.45,0,0,0-.66-.2,1.06,1.06,0,0,0-.35,0l-.35.1-.34.12-.34.12a2,2,0,0,0-1.06.68,1.35,1.35,0,0,0-.08,1.23l.89,2.84c0,.1.07.21.11.31a.74.74,0,0,0,.16.27A1.4,1.4,0,0,0,238,58a1.37,1.37,0,0,0,.58.16,2,2,0,0,0,.36,0l.39-.11a4,4,0,0,0,.45-.15l.46-.15,0,0,1.14,3.63-1.15.36L239.28,59c-.05,0-.08-.06-.1,0l-1.22.38a0,0,0,0,0,0,.06l.89,2.82a1.33,1.33,0,0,0,.65.8,1.27,1.27,0,0,0,1,.09l.94-.29a5.16,5.16,0,0,0,.65-.26,1.15,1.15,0,0,0,.47-.5,1.23,1.23,0,0,0,.16-.66,3,3,0,0,0-.14-.66l-1-3.16-.17-.46a1.32,1.32,0,0,0-.26-.4,1.23,1.23,0,0,0-.64-.35,1.33,1.33,0,0,0-.74,0l-1.19.37v0l-.95-3v0l1.13-.35h0l.37,1.17A0,0,0,0,0,239.2,54.55Z"/><path class="cls-4" d="M253.4,41.52l0,0h0Z"/><path class="cls-3" d="M234.08,35.31l0,0c0,.78,0,1.55.05,2.31s0,1.54.07,2.31l-2.55-3.86h0l-1.26.39s0,0,0,.07l3.36,10.68a0,0,0,0,0,.06,0l1.26-.4a0,0,0,0,0,0-.06l-1.82-5.76,2.46,3.72s0,0,.05,0,.05,0,0,0l-.12-4.47,1.81,5.78a.05.05,0,0,0,.05,0l1.27-.4s0,0,0-.07l-3.36-10.68a0,0,0,0,0-.06,0Z"/><path class="cls-3" d="M268.81,49.3v0l0,1.38c0,.46,0,.92,0,1.39l-1.53-2.32h0l-.76.24s0,0,0,0l2,6.41s0,0,0,0l.75-.24s0,0,0,0l-1.09-3.45L269.74,55h0s0,0,0,0l-.08-2.68,1.1,3.47,0,0,.77-.24s0,0,0,0l-2-6.41s0,0,0,0Z"/><path class="cls-3" d="M254.73,31a1.49,1.49,0,0,0-1-.42,4,4,0,0,0-1.11.19l-1.4.44-1.37-4.37,3.06-1s.06-.05,0-.09l-.56-1.8s-.05-.06-.09,0l-4.92,1.55a.06.06,0,0,0,0,.08l2.55,8.1a.06.06,0,0,0,.08,0l3.53-1.11,1.66,5.25-1.67.53-.54-1.73a.07.07,0,0,0-.09-.05l-1.8.57a.05.05,0,0,0,0,.08l.54,1.73a1.91,1.91,0,0,0,1,1.28,2.31,2.31,0,0,0,1.64,0l1.36-.42A2.17,2.17,0,0,0,257,38.75,2.5,2.5,0,0,0,257,37l-1.53-4.86a2.7,2.7,0,0,0-.27-.62A2,2,0,0,0,254.73,31Z"/><path class="cls-3" d="M252,58.09l-2.94-9.32s0,0-.06,0l-1.26.4a0,0,0,0,0,0,.06l3.34,10.6s0,.05.06,0l3-1a0,0,0,0,0,0-.06l-.39-1.24a0,0,0,0,0-.06,0Z"/><path class="cls-3" d="M244.4,27.63a1.83,1.83,0,0,0-1.06-.62,2.93,2.93,0,0,0-1.24.14l-1.33.42a2.05,2.05,0,0,0-1.43,1.11,2.84,2.84,0,0,0,.07,1.83l.44,1.4a.06.06,0,0,0,.08.05l1.82-.58a.06.06,0,0,0,.05-.08l-.55-1.76,1.66-.52,1.65,5.26-1.31.41-.46.15a1.52,1.52,0,0,0-.45.21,2,2,0,0,0-.74,1,2.09,2.09,0,0,0-.08,1.24l.15.48,1.85,5.86a.05.05,0,0,0,.08,0l5.42-1.7s.06,0,0-.09L248.5,40a.07.07,0,0,0-.09,0l-3.53,1.11-1.37-4.37.49-.14c.21-.06.43-.12.66-.2l.67-.23a2.09,2.09,0,0,0,.5-.26,1.57,1.57,0,0,0,.7-1.06,2.61,2.61,0,0,0-.08-1.3l-1.51-4.81q-.1-.32-.21-.6A1.81,1.81,0,0,0,244.4,27.63Z"/><path class="cls-2" d="M235.77,34.62a.36.36,0,0,0-.25-.2.62.62,0,0,0-.33,0l-1.62.51c0,.4,0,.79,0,1.19s0,.8,0,1.19l-.49-.75-1-.7a.59.59,0,0,0-.28-.2.56.56,0,0,0-.36-.06l-1.25.4a.48.48,0,0,0-.35.67l3.37,10.7a.72.72,0,0,0,.14.26.38.38,0,0,0,.27.12l.9.55a.5.5,0,0,0,.42,0l1.25-.4a.43.43,0,0,0,.32-.61l-.6-1.88.18.12.26.16a1.39,1.39,0,0,0,.28.12.38.38,0,0,0,.23,0,1.67,1.67,0,0,1,.06.2,1.83,1.83,0,0,0,.08.25.72.72,0,0,0,.12.21.23.23,0,0,0,.2.08l.93.57a.41.41,0,0,0,.22,0l.21,0,1.28-.4a.44.44,0,0,0,.32-.62l-3.37-10.69a.51.51,0,0,0-.26-.33Zm3,11s0,.06,0,.07l-1.27.4a.05.05,0,0,1-.05,0l-1.81-5.78.12,4.47s0,0,0,0-.05,0-.05,0l-2.46-3.72L235,46.81a0,0,0,0,1,0,.06l-1.26.4a0,0,0,0,1-.06,0l-3.36-10.68s0-.06,0-.07l1.26-.39h0L234.18,40c0-.77-.05-1.54-.07-2.31s0-1.53-.05-2.31l0,0,1.27-.4a0,0,0,0,1,.06,0Z"/><path class="cls-2" d="M246.24,28a4.24,4.24,0,0,0-.6-.44l-.84-.52a.4.4,0,0,1-.12-.11.4.4,0,0,0-.12-.11,2.52,2.52,0,0,0-1.26-.53,3.58,3.58,0,0,0-1.41.18l-1.33.42a3.3,3.3,0,0,0-1.49.9,2.44,2.44,0,0,0-.59,1.63,2.64,2.64,0,0,0,.07.64,7.44,7.44,0,0,0,.2.74c.07.25.16.49.24.73l.19.57a1.15,1.15,0,0,0,.2.38.66.66,0,0,0,.39.19l1.28.79a.7.7,0,0,0,.59,0l1.78-.56.27.86-.89.28a4,4,0,0,0-.86.37,2.53,2.53,0,0,0-.6.58,3.57,3.57,0,0,0-.41.74,2.51,2.51,0,0,0-.18.81,2.06,2.06,0,0,0,.1.82l2,6.37a1.2,1.2,0,0,0,.2.39.45.45,0,0,0,.39.16l1.28.81a.67.67,0,0,0,.59,0l5.42-1.7a.61.61,0,0,0,.45-.87l-.56-1.8c0-.07-.06-.15-.1-.23a.67.67,0,0,0-.18-.2l-1.28-.81a.59.59,0,0,0-.38-.27,1,1,0,0,0-.48,0l-1.82.57-.56-1.8,1-.29a3.08,3.08,0,0,0,.93-.43,2.17,2.17,0,0,0,.94-1.38,3.14,3.14,0,0,0-.08-1.69l-1.51-4.81a5,5,0,0,0-.37-.91A2.58,2.58,0,0,0,246.24,28Zm.21,5.52a2.61,2.61,0,0,1,.08,1.3,1.57,1.57,0,0,1-.7,1.06,2.09,2.09,0,0,1-.5.26l-.67.23c-.23.08-.45.14-.66.2l-.49.14,1.37,4.37L248.41,40a.07.07,0,0,1,.09,0l.56,1.79c0,.05,0,.08,0,.09l-5.42,1.7a.05.05,0,0,1-.08,0l-1.85-5.86-.15-.48A2.09,2.09,0,0,1,241.6,36a2,2,0,0,1,.74-1,1.52,1.52,0,0,1,.45-.21l.46-.15,1.31-.41L242.91,29l-1.66.52.55,1.76a.06.06,0,0,1-.05.08l-1.82.58a.06.06,0,0,1-.08-.05l-.44-1.4a2.84,2.84,0,0,1-.07-1.83,2.05,2.05,0,0,1,1.43-1.11l1.33-.42a2.93,2.93,0,0,1,1.24-.14,2,2,0,0,1,1.39,1.12q.11.29.21.6Z"/><path class="cls-2" d="M256.74,31.52a4.6,4.6,0,0,0-.6-.43l-.78-.48-.1-.09a.36.36,0,0,0-.09-.09,2,2,0,0,0-.76-.42,3.18,3.18,0,0,0-.84-.18,3.13,3.13,0,0,0-.43,0l-.45.1-.57-1.8,2.47-.77a.62.62,0,0,0,.45-.88l-.56-1.8a2.14,2.14,0,0,0-.1-.22.57.57,0,0,0-.18-.2l-1.28-.82a.61.61,0,0,0-.38-.27,1,1,0,0,0-.48,0l-4.92,1.55a.68.68,0,0,0-.51,1l2.55,8.1a1,1,0,0,0,.21.37.57.57,0,0,0,.39.2l1.27.79a.67.67,0,0,0,.59,0l1.76-.55.56,1.8-.49-.31a.6.6,0,0,0-.38-.28.79.79,0,0,0-.48,0l-1.8.56a.68.68,0,0,0-.5,1l.5,1.6c.06.16.11.34.18.52a2.09,2.09,0,0,0,.26.49,6.16,6.16,0,0,0,.44.45,2.38,2.38,0,0,0,.5.35l.18,0a.54.54,0,0,1,.15.09c.17.09.32.19.46.28l.45.29,0,0,.06,0h0l.12.06a1.94,1.94,0,0,0,1.16.38,4.3,4.3,0,0,0,1.19-.2l1.36-.42a3.63,3.63,0,0,0,1.37-.79,2.23,2.23,0,0,0,.66-1.41l0,0a1.89,1.89,0,0,0,0-.75c-.05-.23-.11-.47-.19-.72l-1.52-4.82a3.54,3.54,0,0,0-.35-.8A2.45,2.45,0,0,0,256.74,31.52ZM257,37a2.5,2.5,0,0,1,0,1.79,2.17,2.17,0,0,1-1.43,1.07l-1.36.42a2.31,2.31,0,0,1-1.64,0,1.91,1.91,0,0,1-1-1.28L251,37.23a.05.05,0,0,1,0-.08l1.8-.57a.07.07,0,0,1,.09.05l.54,1.73,1.67-.53-1.66-5.25-3.53,1.11a.06.06,0,0,1-.08,0l-2.55-8.1a.06.06,0,0,1,0-.08l4.92-1.55s.07,0,.09,0l.56,1.8s0,.07,0,.09l-3.06,1,1.37,4.37,1.4-.44a4,4,0,0,1,1.11-.19,1.49,1.49,0,0,1,1,.42,2,2,0,0,1,.43.52,2.7,2.7,0,0,1,.27.62Z"/><polygon class="cls-2" points="258.27 24.14 261.03 32.92 259.6 23.72 258.27 24.14"/><path class="cls-2" d="M264,23.71a2.16,2.16,0,0,0-.49-.85,3.74,3.74,0,0,0-.78-.62v0a10.85,10.85,0,0,1-1-.7,3.39,3.39,0,0,0-.8-.48,2.23,2.23,0,0,0-.88-.17,4.35,4.35,0,0,0-1.29.24l-1.51.48a1.74,1.74,0,0,0-.63.38,3.54,3.54,0,0,0-.53.63,3.78,3.78,0,0,0-.38.75,2.1,2.1,0,0,0-.13.74,1.59,1.59,0,0,0,.05.39c0,.16.07.32.12.5s.09.34.14.5l.13.4c.56,1.79,1.13,3.57,1.69,5.34s1.13,3.55,1.7,5.34a2.32,2.32,0,0,0,.48.87,2.8,2.8,0,0,0,.77.64l.2.11a.93.93,0,0,1,.2.08l.61.37a4.82,4.82,0,0,0,.63.35,4.44,4.44,0,0,0,.66.25,1.74,1.74,0,0,0,.72.06,3.1,3.1,0,0,0,.51-.11l.5-.16,1.51-.48a1.89,1.89,0,0,0,.72-.42,2.79,2.79,0,0,0,.54-.68,2.72,2.72,0,0,0,.31-.82,2.35,2.35,0,0,0,.05-.83,2.4,2.4,0,0,0-.14-.54c-.06-.19-.12-.37-.18-.53ZM265.59,35a2.19,2.19,0,0,1-.25,1.25,1.59,1.59,0,0,1-.95.84l-1.49.47-.45.14a3.4,3.4,0,0,1-.46.09,1.87,1.87,0,0,1-1.24-.33,1.91,1.91,0,0,1-.77-1q-.87-2.77-1.74-5.49c-.58-1.81-1.16-3.63-1.74-5.48,0-.15-.11-.37-.19-.65a2.59,2.59,0,0,1-.12-.65,1.64,1.64,0,0,1,.1-.54,2.89,2.89,0,0,1,.27-.56,2.44,2.44,0,0,1,.39-.46,1.22,1.22,0,0,1,.47-.28l1.47-.47.46-.14a2.63,2.63,0,0,1,.47-.1,1.7,1.7,0,0,1,.63.07,2,2,0,0,1,.6.27,2,2,0,0,1,.49.46,1.8,1.8,0,0,1,.3.56L265.31,34c.06.16.11.32.17.47A2.68,2.68,0,0,1,265.59,35Z"/><path class="cls-2" d="M262.29,35.6l1.28-.4-2.68-8.54.69,4.47C261.81,32.61,262,34.1,262.29,35.6Z"/><path class="cls-2" d="M240,55.61a.54.54,0,0,0,.42,0h.07l1.17-.37a.43.43,0,0,0,.22-.19.53.53,0,0,0,.1-.27h0a1.25,1.25,0,0,0-.09-.46c-.06-.15-.11-.29-.16-.44l-.13-.43a3,3,0,0,0-.18-.41h0a1.6,1.6,0,0,0-.57-.61l-.1-.06,0,0h0c-.2-.12-.4-.23-.59-.36a.31.31,0,0,1-.11-.09l-.12-.1a1.8,1.8,0,0,0-1.05-.38,1.63,1.63,0,0,0-.44,0l-.42.12-.35.12-.34.11a4.21,4.21,0,0,0-.76.33,1.69,1.69,0,0,0-.57.61,1.83,1.83,0,0,0-.24.78,2.32,2.32,0,0,0,.12.8l.89,2.85c0,.14.09.27.14.39a1.4,1.4,0,0,0,.22.36,1.64,1.64,0,0,0,.66.51.24.24,0,0,0,.11.06l.11,0a.46.46,0,0,0,.13.08l.12.08-.33.1a1,1,0,0,0-.28.12.39.39,0,0,0-.17.21.6.6,0,0,0,0,.37l.89,2.81a1.9,1.9,0,0,0,.86,1.1l.18.06a.52.52,0,0,1,.15.07l.31.19.31.21,0,0a1.63,1.63,0,0,0,1.53.23l.94-.29a4.72,4.72,0,0,0,.8-.33,1.5,1.5,0,0,0,.56-.64,1.86,1.86,0,0,0,.18-.44,1.55,1.55,0,0,0,0-.78c0-.13-.07-.28-.12-.44l-1-3.15a5.34,5.34,0,0,0-.31-.73,1.52,1.52,0,0,0-.54-.56l-.15-.09-.22-.14-.22-.13c-.07,0-.1-.07-.1-.08a1.79,1.79,0,0,0-.88-.49,1.93,1.93,0,0,0-1,0l-.21-.66Zm-1.22-2.27-1.13.35v0l.95,3v0l1.19-.37a1.33,1.33,0,0,1,.74,0,1.23,1.23,0,0,1,.64.35,1.32,1.32,0,0,1,.26.4l.17.46,1,3.16a3,3,0,0,1,.14.66,1.23,1.23,0,0,1-.16.66,1.15,1.15,0,0,1-.47.5,5.16,5.16,0,0,1-.65.26l-.94.29a1.27,1.27,0,0,1-1-.09,1.33,1.33,0,0,1-.65-.8l-.89-2.82a0,0,0,0,1,0-.06l1.22-.38s0,0,.1,0l.86,2.74,1.15-.36-1.14-3.63,0,0-.46.15a4,4,0,0,1-.45.15l-.39.11a2,2,0,0,1-.36,0A1.37,1.37,0,0,1,238,58a1.4,1.4,0,0,1-.48-.37.74.74,0,0,1-.16-.27c0-.1-.08-.21-.11-.31l-.89-2.84a1.35,1.35,0,0,1,.08-1.23,2,2,0,0,1,1.06-.68l.34-.12.34-.12.35-.1a1.06,1.06,0,0,1,.35,0,1.45,1.45,0,0,1,.66.2,1.25,1.25,0,0,1,.49.48,1.92,1.92,0,0,1,.14.32c0,.13.09.26.13.4a3.57,3.57,0,0,1,.12.4l.1.33s0,0,0,0a.11.11,0,0,0,0,0l0,0-1.17.37h-.07a0,0,0,0,1-.06,0l-.37-1.17Z"/><path class="cls-2" d="M247.08,50.31a1,1,0,0,0-.07-.15.35.35,0,0,0-.13-.14l-.88-.57a.45.45,0,0,0-.26-.19.74.74,0,0,0-.33,0l-1.23.39q-.33.11-.36.3a1.14,1.14,0,0,0,.06.49l-.34-.22a.41.41,0,0,0-.26-.19.56.56,0,0,0-.34,0l-1.26.4a.47.47,0,0,0-.35.66c.48,1.52.95,3,1.42,4.53s.94,3,1.42,4.53c.06.2.12.36.17.49a1.63,1.63,0,0,0,.21.34,1.5,1.5,0,0,0,.29.27c.11.08.25.18.42.28L246,62h0l0,0a2.88,2.88,0,0,0,.79.33,1.44,1.44,0,0,0,.87,0l.12,0,.12-.05.76-.24a2.88,2.88,0,0,0,.64-.28,1.62,1.62,0,0,0,.48-.46,1.84,1.84,0,0,0,.29-.75h0a1.32,1.32,0,0,0,0-.56,4,4,0,0,0-.13-.55c-.48-1.52-1-3-1.44-4.54Zm1.39,8.52a4.28,4.28,0,0,1,.13.46.94.94,0,0,1,0,.47,1.37,1.37,0,0,1-.3.67,1.17,1.17,0,0,1-.61.41l-1.12.36a1.73,1.73,0,0,1-.9,0,1.38,1.38,0,0,1-.75-.51,1.11,1.11,0,0,1-.18-.32l-.12-.35c-.48-1.52-.95-3-1.42-4.54s-.94-3-1.42-4.53c0,0,0,0,0-.06l1.26-.4a0,0,0,0,1,.06,0l2.93,9.32,1.15-.36-2.93-9.32a0,0,0,0,1,0-.06l1.23-.39a0,0,0,0,1,.06,0Z"/><path class="cls-2" d="M246,62l.13.07L246,62h0Z"/><path class="cls-2" d="M255.06,57.82l-.88-.57a.47.47,0,0,0-.27-.19.75.75,0,0,0-.33,0l-.54.17-2.5-7.94a.44.44,0,0,0-.06-.16.43.43,0,0,0-.13-.14l-.89-.56a.36.36,0,0,0-.26-.19.62.62,0,0,0-.33,0l-1.26.39a.47.47,0,0,0-.35.67L250.6,60a.72.72,0,0,0,.14.26.38.38,0,0,0,.26.12l.89.56a.5.5,0,0,0,.42,0l3-1a.42.42,0,0,0,.32-.6l-.39-1.25-.07-.16A.4.4,0,0,0,255.06,57.82Zm-.88,1a0,0,0,0,1,0,.06l-3,1s-.05,0-.06,0l-3.34-10.6a0,0,0,0,1,0-.06l1.26-.4s.06,0,.06,0L252,58.09l1.72-.54a0,0,0,0,1,.06,0Z"/><path class="cls-2" d="M258.81,50.93l.54.35a.3.3,0,0,0,.25,0l1.83-.58a.26.26,0,0,0,.19-.36l-.24-.76a.36.36,0,0,0,0-.09.2.2,0,0,0-.08-.08l-.53-.35a.25.25,0,0,0-.16-.11.45.45,0,0,0-.2,0l-.33.11-1.51-4.81a.36.36,0,0,0,0-.09.23.23,0,0,0-.08-.09l-.53-.34a.25.25,0,0,0-.16-.11.34.34,0,0,0-.2,0l-.76.24a.28.28,0,0,0-.21.4l2,6.41a.35.35,0,0,0,.09.16A.22.22,0,0,0,258.81,50.93Zm-2-6.72s0,0,0,0l.77-.24s0,0,0,0l1.78,5.63,1-.33s0,0,0,0l.24.75s0,0,0,0l-1.83.58s0,0,0,0Z"/><path class="cls-2" d="M269.83,48.89a.21.21,0,0,0-.16-.12.31.31,0,0,0-.19,0l-1,.3v.72c0,.24,0,.47,0,.71l-.3-.45-.62-.42a.41.41,0,0,0-.17-.12.28.28,0,0,0-.21,0l-.75.23a.28.28,0,0,0-.21.41l2,6.42a.28.28,0,0,0,.08.15.23.23,0,0,0,.16.08l.54.33a.3.3,0,0,0,.25,0l.75-.24a.25.25,0,0,0,.19-.36l-.35-1.13.11.07.15.09.17.08a.23.23,0,0,0,.14,0,1,1,0,0,1,0,.12.88.88,0,0,0,.05.15.54.54,0,0,0,.07.13.17.17,0,0,0,.12.05l.56.33a.19.19,0,0,0,.13,0l.13,0,.76-.24a.27.27,0,0,0,.2-.37l-2-6.41a.32.32,0,0,0-.16-.2Zm1.8,6.6s0,0,0,0l-.77.24,0,0-1.1-3.47L269.8,55s0,0,0,0h0l-1.47-2.23,1.09,3.45s0,0,0,0l-.75.24s0,0,0,0l-2-6.41s0,0,0,0l.76-.24h0l1.53,2.32c0-.47,0-.93,0-1.39l0-1.38v0l.76-.24s0,0,0,0Z"/><path class="cls-2" d="M268,46a.35.35,0,0,0,0-.24l.22-.94a.22.22,0,0,0-.08-.25l-.54-.38c-.14-.1-.31,0-.52.29L260,54.5l-.1.15a.67.67,0,0,0-.07.18l-.22.94a.53.53,0,0,0-.08.29.19.19,0,0,0,.08.17l.54.39c.16.1.35,0,.58-.32l7.09-10A1.64,1.64,0,0,0,268,46Zm-.37.13-7.09,10s0,0-.06,0L260,55.8s0,0,0-.06l7.1-10s0,0,.05,0l.54.38S267.67,46.09,267.65,46.12Z"/><path class="cls-3" d="M267.07,45.71l-7.1,10s0,0,0,.06l.54.38s0,0,.06,0l7.09-10s0,0,0-.06l-.54-.38S267.09,45.68,267.07,45.71Z"/><path class="cls-3" d="M126.81,239l-5.38,22.64a7.32,7.32,0,0,1-7.15,5.66H110.5a7.34,7.34,0,0,1-7.15-5.64L97.9,239Z"/><path class="cls-3" d="M90.53,230.9l10.15,42h23.47l10-42ZM123.09,262a9,9,0,0,1-8.81,7H110.5a9,9,0,0,1-8.81-7l-6-24.79H129Z"/><path class="cls-2" d="M126.81,239l-5.38,22.64a7.32,7.32,0,0,1-7.15,5.66H110.5a7.34,7.34,0,0,1-7.15-5.64L97.9,239Z"/><path class="cls-2" d="M229.17,349.28c.26,1.14,1.22,1.46,2.81,1.6h-9.74c1.63-.14,2.57-.46,2.83-1.64v-38.7c-.29-1.1-1.22-1.74-2.81-1.86h7v1.85q0,18.77-.07,37.64Z"/><path class="cls-3" d="M247.32,314.82l0,30.09a5.08,5.08,0,0,1-1.63,3.65,7.91,7.91,0,0,1-4,2.09,12,12,0,0,1-2.39.25,17.94,17.94,0,0,1-2.24-.2,7.41,7.41,0,0,1-3-1.21,4.24,4.24,0,0,1-2.19-3.43l0-4.17h6.91c-1.63.21-2.57.95-2.83,2.2v3.46a2.71,2.71,0,0,0,2.29,2.48,4.49,4.49,0,0,0,1.32.2,4.08,4.08,0,0,0,2.59-.83,2.76,2.76,0,0,0,.93-1.81,15.71,15.71,0,0,0,.13-2V335.43a9.39,9.39,0,0,1-3.63.68,9,9,0,0,1-5.45-1.74,5.41,5.41,0,0,1-2.28-4.24V314.82a5.35,5.35,0,0,1,2.28-4.22,9.36,9.36,0,0,1,10.93,0A5.33,5.33,0,0,1,247.32,314.82Zm-4.09-2.66a2.27,2.27,0,0,0-1.08-1.86,4.38,4.38,0,0,0-5.13,0,2.24,2.24,0,0,0-1.07,1.86v20.45a2.41,2.41,0,0,0,1.07,2,4.38,4.38,0,0,0,5.13,0,2.7,2.7,0,0,0,1.06-1.69Z"/><path class="cls-2" d="M265.93,314.85v3.31a5.53,5.53,0,0,1-2.28,4.31,8.17,8.17,0,0,1-2.89,1.44,8,8,0,0,1,2.89,1.41,5.43,5.43,0,0,1,2.28,4.22v15.29a5.43,5.43,0,0,1-2.28,4.23,9.36,9.36,0,0,1-10.93,0,5.43,5.43,0,0,1-2.28-4.23V329.54a5.43,5.43,0,0,1,2.28-4.22,8,8,0,0,1,2.89-1.41,8.26,8.26,0,0,1-2.89-1.44,5.53,5.53,0,0,1-2.28-4.31v-3.31a5.52,5.52,0,0,1,2.28-4.3,9.24,9.24,0,0,1,10.93,0A5.52,5.52,0,0,1,265.93,314.85Zm-4.11-2.52a2.49,2.49,0,0,0-1.06-2,4.33,4.33,0,0,0-5.15,0,2.48,2.48,0,0,0-1.07,2v8.54a2.33,2.33,0,0,0,1.07,1.9,4.46,4.46,0,0,0,2.58.81,4.4,4.4,0,0,0,2.57-.81,2.35,2.35,0,0,0,1.06-1.9Zm0,14.73a2.45,2.45,0,0,0-1.06-2,4.5,4.5,0,0,0-5.15,0,2.44,2.44,0,0,0-1.07,2v20.41a2.3,2.3,0,0,0,1.07,1.89,4.45,4.45,0,0,0,5.15,0,2.32,2.32,0,0,0,1.06-1.89Z"/><path class="cls-3" d="M281.55,308.74q-2.7,14-4.84,28.25c-.63,4.06-1.29,8.11-1.94,12.12v.14c-.08.95,1.72,1.43,2.76,1.5h-9.71c.59,0,2.52-.44,2.87-1.64l6.65-39.72H272.8a8.32,8.32,0,0,0-4.22,1.18,3.68,3.68,0,0,0-2,3v-4.86Z"/><path class="cls-2" d="M241.89,294.3a1.82,1.82,0,0,1,.57-1.3,2,2,0,0,1,2.72,0,1.81,1.81,0,0,1,.56,1.3v2.25H244a.72.72,0,0,0,.7-.63v-2.43a.77.77,0,0,0-.26-.58.94.94,0,0,0-1.28,0,.74.74,0,0,0-.26.58v3.06c0,.31.43.59,1,.91.83.5,1.87,1.17,1.87,2.3v2.69a1.81,1.81,0,0,1-.56,1.3,2,2,0,0,1-1.36.54,2,2,0,0,1-1.36-.54,1.81,1.81,0,0,1-.56-1.3v-3.16h1.72a.73.73,0,0,0-.7.65v3.33a.75.75,0,0,0,.26.58.94.94,0,0,0,1.28,0,.76.76,0,0,0,.27-.58v-3.51a1.33,1.33,0,0,0-.45-.8,5.14,5.14,0,0,0-.89-.61,5.72,5.72,0,0,1-1-.74,1.55,1.55,0,0,1-.48-1.06Z"/><path class="cls-2" d="M248.38,292.46c-.4.05-.63.21-.7.57q0,4.37,0,8.41v2.36c.06.35.3.45.69.49h-2.42c.41,0,.64-.14.71-.5V293a.71.71,0,0,0-.7-.57Z"/><path class="cls-2" d="M248.41,304.29c.41,0,.64-.14.7-.49V293c-.06-.36-.29-.52-.7-.56h1.77l2.61,11V293.05a.68.68,0,0,0-.7-.57h1.6a.68.68,0,0,0-.7.57v11.24h-1l-2.61-11.07V303.8c.06.37.29.46.7.49Z"/><path class="cls-2" d="M256,295.13a.73.73,0,0,0,.7-.64v-1a.78.78,0,0,0-.28-.6.94.94,0,0,0-.62-.22h0a.88.88,0,0,0-.62.25.8.8,0,0,0-.27.61v9.73a.76.76,0,0,0,.27.58.93.93,0,0,0,.46.24h.21a1,1,0,0,0,.58-.25.73.73,0,0,0,.26-.58V302.2a.75.75,0,0,0-.7-.64h1.74v1.24a1.34,1.34,0,0,1-.54,1.06,2.11,2.11,0,0,1-1.29.43h-.21a1.88,1.88,0,0,1-1.23-.53,1.8,1.8,0,0,1-.57-1.3v-8.16a1.82,1.82,0,0,1,.57-1.3,2,2,0,0,1,.89-.47,2.37,2.37,0,0,1,.52-.06,2.22,2.22,0,0,1,.51.06,2,2,0,0,1,.81.38,1.38,1.38,0,0,1,.55,1.05v1.19Z"/><path class="cls-2" d="M259.33,299.47c0,.44,0,.89,0,1.34v3.28h1.05a1.79,1.79,0,0,0,1.06-.37,1.21,1.21,0,0,0,.47-.92v1.49h-4.3c.4,0,.63-.13.7-.48V293.09a.74.74,0,0,0-.7-.61h4.3V294a1.21,1.21,0,0,0-.47-.92,1.79,1.79,0,0,0-1.06-.37h-1v6.6h.55a1,1,0,0,0,.78-.32,1.72,1.72,0,0,0,.2-1v0c0,.46,0,.92,0,1.38s0,.92,0,1.38v0a1.51,1.51,0,0,0-.21-.93,1,1,0,0,0-.77-.31h-.55Z"/><path class="cls-2" d="M87.14,138c1.6-.17,2.49-.56,2.75-2V89.08a2.75,2.75,0,0,0-2.75-2.25h9.6c-1.56.17-2.5.79-2.75,2.22q0,22.58-.07,45.34V136c.28,1.37,1.17,1.78,2.77,2Z"/><path class="cls-2" d="M106.21,87.62a7.19,7.19,0,0,0-4.14,1.46,4.59,4.59,0,0,0-1.9,3.65v-5.9h24.34v5.9a4.59,4.59,0,0,0-1.92-3.65,7.17,7.17,0,0,0-4.14-1.46h-4q0,21,0,41.92c0,2.16,0,4.29,0,6.45.25,1.39,1.19,1.8,2.75,2h-9.54c1.56-.17,2.5-.58,2.75-2V87.62Z"/><path class="cls-2" d="M124.75,136.06a1.06,1.06,0,0,0,0,.25c0,1,1.11,1.5,2.39,1.65h-5.83c1.48-.17,2.29-.69,2.63-1.9q2.46-12.54,5.1-26.25,2.26-11.9,4.46-22.94h.87L142.93,136a2.86,2.86,0,0,0,2.62,2h-9.09a4.08,4.08,0,0,0,1.73-.71,1.35,1.35,0,0,0,.68-1.07.47.47,0,0,0,0-.15q-1.59-9.32-3.18-18.59a11.09,11.09,0,0,0-5,1.75,10,10,0,0,0-3.54,4.77C126.37,128,125.58,132,124.75,136.06Zm10.75-19.63c-1.09-6.41-2.15-12.82-3.22-19.25q-1.78,9.67-3.65,19.25l-.15.82-.7,3.59a9.48,9.48,0,0,1,2.43-2.42,11.05,11.05,0,0,1,5.31-1.79Z"/><path class="cls-2" d="M150.23,138c1.6-.17,2.52-.51,2.78-2V89.08a2.75,2.75,0,0,0-2.75-2.25h9.6a2.72,2.72,0,0,0-2.76,2.25q0,20.86-.06,41.87v6.22h4.14a7.08,7.08,0,0,0,4.2-1.5,4.74,4.74,0,0,0,1.84-3.61V138Z"/><path class="cls-2" d="M171.92,138c1.6-.17,2.49-.56,2.75-2V89.08a2.75,2.75,0,0,0-2.75-2.25h9.6c-1.56.17-2.5.79-2.75,2.22q0,22.58-.07,45.34V136c.28,1.37,1.17,1.78,2.77,2Z"/><path class="cls-2" d="M187.74,136.06a1.06,1.06,0,0,0,0,.25c0,1,1.11,1.5,2.39,1.65h-5.82c1.47-.17,2.28-.69,2.62-1.9q2.46-12.54,5.1-26.25,2.27-11.9,4.46-22.94h.87L205.92,136a2.87,2.87,0,0,0,2.62,2h-9.09a4.08,4.08,0,0,0,1.73-.71,1.36,1.36,0,0,0,.69-1.07.33.33,0,0,0,0-.15c-1.06-6.21-2.13-12.41-3.17-18.59a11.13,11.13,0,0,0-5,1.75,10,10,0,0,0-3.54,4.77C189.36,128,188.57,132,187.74,136.06Zm10.75-19.63q-1.62-9.62-3.22-19.25-1.78,9.67-3.64,19.25l-.15.82-.71,3.59a9.48,9.48,0,0,1,2.43-2.42,11.05,11.05,0,0,1,5.32-1.79Z"/><path class="cls-2" d="M217,147.24H77.47V77.47H217ZM81.36,143.36H213.11v-62H81.36Z"/><path class="cls-3" d="M7.7,7.7V77.47H77.47V7.7ZM42.58,60.78a18.2,18.2,0,1,1,18.2-18.2A18.2,18.2,0,0,1,42.58,60.78Z"/><path class="cls-2" d="M147.23,7.7V77.47H217V7.7Zm34.9,53.08a18.2,18.2,0,1,1,18.2-18.2A18.2,18.2,0,0,1,182.13,60.78Z"/><circle class="cls-2" cx="112.35" cy="42.58" r="18.2"/><path class="cls-2" d="M35.88,29.3h6.28c4.51,0,6.69,2,6.69,6.06v1.06c0,3.6-1.34,4.73-2.6,5.2,1.23.51,3,1.49,3,5.2v2.11c0,4.64-1.93,6.93-6.78,6.93H35.88Zm5.76,10.46c1.72,0,2.32-.56,2.32-2.59V35.8c0-1.7-.55-2.47-2.17-2.47h-1v6.43Zm-.81,12.11h1c1.82,0,2.25-.84,2.25-2.81V46.63c0-2.06-.49-2.94-2.58-2.94h-.7Z"/><path class="cls-3" d="M110.61,49.54,110,55.86h-5.2L108.5,29.3h7.62L120,55.86h-5.31l-.73-6.32ZM113.48,45c-.37-3.39-.9-8.56-1.15-11.1h-.2c-.09,1.85-.73,7.82-1.08,11.1Z"/><path class="cls-3" d="M180.59,44.31V55.86h-5.1V29.3h6.62c4.45,0,6.65,2,6.65,6.6v1c0,3.78-1.51,4.91-2.65,5.44,1.65.8,2.43,2,2.43,5.72,0,2.57,0,6.44.18,7.84h-4.94c-.33-1.2-.3-4.66-.3-8,0-3-.35-3.5-2.29-3.5Zm0-4h.63c1.71,0,2.41-.54,2.41-3V36c0-1.79-.36-2.67-2.24-2.67h-.8Z"/><polygon class="cls-2" points="77.47 224.31 77.47 233.09 63.61 219.28 48.8 234.08 33.98 219.26 19.18 234.03 7.7 222.55 7.7 217.02 10.94 217.02 19.19 225.25 27.43 217.02 40.52 217.02 48.81 225.3 57.1 217.02 70.14 217.02 77.47 224.31"/><polygon class="cls-2" points="77.47 239.95 77.47 248.73 63.61 234.92 48.8 249.71 33.98 234.9 19.18 249.66 7.7 238.19 7.7 229.41 19.19 240.88 33.98 226.12 48.81 240.93 63.61 226.15 77.47 239.95"/><polygon class="cls-2" points="18.79 217.16 21.51 217.16 20.15 218.52 18.79 217.16"/><polygon class="cls-2" points="46.96 217.16 49.76 217.16 48.36 218.56 46.96 217.16"/><polygon class="cls-2" points="75.66 217.16 75.66 217.63 75.2 217.16 75.66 217.16"/><polygon class="cls-2" points="77.47 254.86 77.47 263.63 63.61 249.83 48.8 264.62 33.98 249.8 19.18 264.56 7.7 253.1 7.7 244.32 19.19 255.79 33.98 241.02 48.81 255.84 63.61 241.05 77.47 254.86"/><polygon class="cls-2" points="77.47 269.28 77.47 278.06 63.61 264.25 48.8 279.04 33.98 264.23 19.18 278.99 7.7 267.52 7.7 258.75 19.19 270.21 33.98 255.45 48.81 270.26 63.61 255.48 77.47 269.28"/><polygon class="cls-2" points="77.47 283.95 77.47 286.79 71.51 286.79 63.61 278.92 55.74 286.79 41.87 286.79 33.98 278.9 26.07 286.79 12.3 286.79 7.7 282.19 7.7 273.42 19.19 284.89 33.98 270.12 48.81 284.94 63.61 270.15 77.47 283.95"/><path class="cls-5" d="M179,321.68a.88.88,0,0,1-.88.88H142.27a.88.88,0,0,1,0-1.76h35.89A.88.88,0,0,1,179,321.68Z"/><path class="cls-5" d="M181.66,325.54a.87.87,0,0,1-.87.88h-36a.88.88,0,0,1,0-1.76h36A.88.88,0,0,1,181.66,325.54Z"/><path class="cls-5" d="M181.66,318a.88.88,0,0,1-.87.88h-36a.88.88,0,1,1,0-1.75h36A.87.87,0,0,1,181.66,318Z"/><path class="cls-4" d="M305.57,110c-.54,3.51-5.9,5.83-7,8l0,.09v-11a3.45,3.45,0,0,1,3.94-2.15C305,105.44,305.92,107.76,305.57,110Z"/><path class="cls-3" d="M305.57,110c-.54,3.51-5.9,5.83-7,8l0,.09v-11a3.45,3.45,0,0,1,3.94-2.15C305,105.44,305.92,107.76,305.57,110Z"/><path class="cls-4" d="M351.84,113.64a3.5,3.5,0,0,1-6.93.71,5.4,5.4,0,0,0,.28,2.58h0l.23.43a6.17,6.17,0,0,0,1,1.18l.28.28h-2.28V104.61a3.5,3.5,0,0,1,2.67,5.77,3.6,3.6,0,0,1,1.28-.24A3.5,3.5,0,0,1,351.84,113.64Z"/><path d="M347.23,110.38a3.6,3.6,0,0,1,1.19-.24h-.08a3.59,3.59,0,0,0-1,.16l-.07.08Z"/><path class="cls-3" d="M351.84,113.64a3.5,3.5,0,0,1-6.93.71,5.16,5.16,0,0,0,.28,2.58h0a3.65,3.65,0,0,0,.23.43,6.17,6.17,0,0,0,1,1.18l.28.28h-2.28V104.61a3.5,3.5,0,0,1,2.67,5.77,3.6,3.6,0,0,1,1.28-.24A3.5,3.5,0,0,1,351.84,113.64Z"/><path class="cls-4" d="M327.28,134.43a30.9,30.9,0,0,0-5.85,7.95v-15.9A31.43,31.43,0,0,0,327.28,134.43Z"/><path class="cls-3" d="M327.28,134.43a30.9,30.9,0,0,0-5.85,7.95v-15.9A31.43,31.43,0,0,0,327.28,134.43Z"/><path class="cls-4" d="M328.94,89.33a3.74,3.74,0,0,1-1.14,2.73A4.05,4.05,0,0,1,325,93.2H325a3.85,3.85,0,0,1-2.66-1L322.1,92a15.91,15.91,0,0,0,.39,1.61A5.64,5.64,0,0,0,324,95.84h-2.31V80.77a24.4,24.4,0,0,0,3.76,4l.87.69C327.77,86.67,328.93,87.59,328.94,89.33Z"/><path d="M322.24,92l.06.27a3.83,3.83,0,0,0,2.56,1H325A3.88,3.88,0,0,1,322.24,92Z"/><path class="cls-3" d="M329.09,89.33a3.79,3.79,0,0,1-1.15,2.73,4.07,4.07,0,0,1-2.81,1.14H325A3.88,3.88,0,0,1,322.25,92c0,.06,0,.12,0,.18.11.5.21,1,.34,1.43a5.64,5.64,0,0,0,1.49,2.26h-2.45V80.58a25.37,25.37,0,0,0,3.9,4.24l.87.69C327.91,86.67,329.07,87.59,329.09,89.33Z"/><rect class="cls-3" x="33.7" y="92.35" width="19.24" height="1.28" transform="matrix(0.04, -1, 1, 0.04, -51.19, 132.9)"/><path class="cls-3" d="M43.32,103.26a10.27,10.27,0,0,1,0-20.53h0a10.27,10.27,0,1,1,0,20.53Zm0-19.88V84a9,9,0,0,0,0,18h0a9,9,0,0,0,0-18h0Z"/><rect class="cls-3" x="33.71" y="92.35" width="19.24" height="1.29" transform="translate(-0.14 0.07) rotate(-0.09)"/><rect class="cls-3" x="42.68" y="83.38" width="1.29" height="19.24" transform="translate(-53.1 57.96) rotate(-45.05)"/><rect class="cls-3" x="33.7" y="92.35" width="19.24" height="1.29" transform="translate(-53.13 58.03) rotate(-45.09)"/><path class="cls-3" d="M163.15,166.74c-.1,1-.19,2-.3,3s-.24,2.19-.35,3.29c-.19,1.76-.38,3.52-.55,5.27-.14,1.4-.26,2.8-.38,4.2a.55.55,0,0,1-.39.56.52.52,0,0,1-.51-.09c-.18-.13-.1-.31-.12-.5a.86.86,0,0,1,0-.16c.15-1.33.31-2.69.46-4.05.08-.76.13-1.52.21-2.28.14-1.41.29-2.83.44-4.24.1-1,.2-2,.29-3,.07-.67.13-1.33.19-2a.48.48,0,0,1,.56-.47C163.09,166.23,163.17,166.48,163.15,166.74Z"/><path class="cls-3" d="M204.56,179.57c-.11-1.1-.23-2.19-.35-3.28-.18-1.76-.37-3.53-.54-5.29-.14-1.4-.26-2.8-.38-4.19a.53.53,0,0,0-.4-.56.51.51,0,0,0-.5.09c-.18.13-.1.3-.12.51a.85.85,0,0,0,0,.16c.15,1.32.31,2.68.45,4,.08.76.13,1.52.21,2.29.14,1.41.3,2.82.45,4.24.1,1,.2,2,.29,3,.07.66.13,1.33.19,2a.48.48,0,0,0,.55.48.43.43,0,0,0,.46-.52C204.77,181.56,204.68,180.57,204.56,179.57Zm0,0c-.11-1.1-.23-2.19-.35-3.28-.18-1.76-.37-3.53-.54-5.29-.14-1.4-.26-2.8-.38-4.19a.53.53,0,0,0-.4-.56.51.51,0,0,0-.5.09c-.18.13-.1.3-.12.51a.85.85,0,0,0,0,.16c.15,1.32.31,2.68.45,4,.08.76.13,1.52.21,2.29.14,1.41.3,2.82.45,4.24.1,1,.2,2,.29,3,.07.66.13,1.33.19,2a.48.48,0,0,0,.55.48.43.43,0,0,0,.46-.52C204.77,181.56,204.68,180.57,204.56,179.57Zm-57.33-32.33V217H217V147.24Zm39.84,18.09a.83.83,0,0,1,.76-.82h2.49l5.59,0,5.41,0,.21-.06h2.54a.85.85,0,0,1,.78.82l1.25,18.45a.86.86,0,0,1-.76,1H186.47a.84.84,0,0,1-.76-.89.48.48,0,0,1,0-.12l1.2-16.32Zm-27.42,0a.83.83,0,0,1,.76-.82h2.49l5.59,0,5.41,0,.21-.06h2.55a.83.83,0,0,1,.76.82l.12,1.55,1.12,16.53,0,.37a.87.87,0,0,1-.76,1H159.06a.87.87,0,0,1-.77-1ZM179.3,207a1.21,1.21,0,0,1-1.09,1.29H158.78a1.2,1.2,0,0,1-1.09-1.29v-5.11a1.26,1.26,0,0,1,.78-1.23.81.81,0,0,1,.31-.06h19.43a.87.87,0,0,1,.32.06h0a1.24,1.24,0,0,1,.77,1.22Zm27.41,0a1.19,1.19,0,0,1-1.09,1.29H186.19a1.19,1.19,0,0,1-1.08-1.29v-5.11a1.24,1.24,0,0,1,.78-1.23.77.77,0,0,1,.3-.06h19.43a.87.87,0,0,1,.32.06,1.26,1.26,0,0,1,.77,1.23Zm-3.78-33.7c.14,1.41.3,2.82.45,4.24.1,1,.2,2,.29,3,.07.66.13,1.33.19,2a.48.48,0,0,0,.55.48.43.43,0,0,0,.46-.52c-.1-1-.19-2-.31-3s-.23-2.19-.35-3.28c-.18-1.76-.37-3.53-.54-5.29-.14-1.4-.26-2.8-.38-4.19a.53.53,0,0,0-.4-.56.51.51,0,0,0-.5.09c-.18.13-.1.3-.12.51a.85.85,0,0,0,0,.16c.15,1.32.31,2.68.45,4C202.8,171.81,202.85,172.57,202.93,173.34Z"/><path class="cls-2" d="M178.53,200.7a.87.87,0,0,0-.32-.06H158.78a.81.81,0,0,0-.31.06l1.17-15.91h17.79Z"/><path class="cls-2" d="M186,166.36a5.22,5.22,0,0,0-5.67-1.55,6.42,6.42,0,0,0-2.79,2.07l1.12,16.53c.09-.12.18-.22.27-.32a3.79,3.79,0,0,1,4.9-1,6,6,0,0,1,1.88,1.82.48.48,0,0,1,0-.12l1.2-16.32A8.06,8.06,0,0,0,186,166.36Zm-2.47,10.79c0,1.06-.59,1.8-1.39,1.81s-1.4-.74-1.41-1.79c0-1.26,0-2.54,0-3.81s0-2.51,0-3.77c0-1.05.57-1.78,1.39-1.78s1.41.72,1.41,1.77Q183.55,173.38,183.53,177.15Z"/><path class="cls-4" d="M163.15,166.74c-.1,1-.19,2-.3,3s-.24,2.19-.35,3.29c-.19,1.76-.38,3.52-.55,5.27-.14,1.4-.26,2.8-.38,4.2a.55.55,0,0,1-.39.56.52.52,0,0,1-.51-.09c-.18-.13-.1-.31-.12-.5a.86.86,0,0,1,0-.16c.15-1.33.31-2.69.46-4.05.08-.76.13-1.52.21-2.28.14-1.41.29-2.83.44-4.24.1-1,.2-2,.29-3,.07-.67.13-1.33.19-2a.48.48,0,0,1,.56-.47C163.09,166.23,163.17,166.48,163.15,166.74Z"/><path class="cls-4" d="M174.11,164.51l-.21.06-5.41,0-5.59,0h11.21Z"/><path class="cls-2" d="M174.14,159.61c0,1.63,0,3.27,0,4.9l-.21.06-5.41,0-5.59,0h0c-.1-1.66,0-3.31,0-5a.7.7,0,0,1,.49-.72,1.85,1.85,0,0,1,.78-.12h8.73a1.87,1.87,0,0,1,.78.11A.76.76,0,0,1,174.14,159.61Z"/><path class="cls-2" d="M163.15,166.74c-.1,1-.19,2-.3,3s-.24,2.19-.35,3.29c-.19,1.76-.38,3.52-.55,5.27-.14,1.4-.26,2.8-.38,4.2a.55.55,0,0,1-.39.56.52.52,0,0,1-.51-.09c-.18-.13-.1-.31-.12-.5a.86.86,0,0,1,0-.16c.15-1.33.31-2.69.46-4.05.08-.76.13-1.52.21-2.28.14-1.41.29-2.83.44-4.24.1-1,.2-2,.29-3,.07-.67.13-1.33.19-2a.48.48,0,0,1,.56-.47C163.09,166.23,163.17,166.48,163.15,166.74Z"/><path class="cls-2" d="M205.94,200.7a.87.87,0,0,0-.32-.06H186.19a.77.77,0,0,0-.3.06l1.17-15.91h17.8Z"/><path class="cls-4" d="M201.53,164.51l-.21.06-5.41,0-5.59,0h11.21Z"/><path class="cls-4" d="M204.87,182.56a.43.43,0,0,1-.46.52.48.48,0,0,1-.55-.48c-.06-.66-.12-1.33-.19-2-.09-1-.19-2-.29-3-.15-1.42-.31-2.83-.45-4.24-.08-.77-.13-1.53-.21-2.29-.14-1.36-.3-2.72-.45-4a.85.85,0,0,1,0-.16c0-.21-.06-.38.12-.51a.51.51,0,0,1,.5-.09.53.53,0,0,1,.4.56c.12,1.39.24,2.79.38,4.19.17,1.76.36,3.53.54,5.29.12,1.09.24,2.18.35,3.28S204.77,181.56,204.87,182.56Z"/><path class="cls-2" d="M201.55,159.61c0,1.63,0,3.27,0,4.9l-.21.06-5.41,0-5.59,0h0c-.11-1.66,0-3.31,0-5a.71.71,0,0,1,.49-.72,1.9,1.9,0,0,1,.78-.12h8.74a1.8,1.8,0,0,1,.77.11A.74.74,0,0,1,201.55,159.61Z"/><path class="cls-2" d="M204.87,182.56a.43.43,0,0,1-.46.52.48.48,0,0,1-.55-.48c-.06-.66-.12-1.33-.19-2-.09-1-.19-2-.29-3-.15-1.42-.31-2.83-.45-4.24-.08-.77-.13-1.53-.21-2.29-.14-1.36-.3-2.72-.45-4a.85.85,0,0,1,0-.16c0-.21-.06-.38.12-.51a.51.51,0,0,1,.5-.09.53.53,0,0,1,.4.56c.12,1.39.24,2.79.38,4.19.17,1.76.36,3.53.54,5.29.12,1.09.24,2.18.35,3.28S204.77,181.56,204.87,182.56Z"/><path class="cls-6" d="M86.66,162.55v43.17a7.52,7.52,0,0,0,7.52,7.52h32.29a7.52,7.52,0,0,0,7.52-7.52V169.08a3.22,3.22,0,0,0-.94-2.27l-1.75-1.75,2-2a.34.34,0,0,0,0-.48l-6.87-6.87a.35.35,0,0,0-.24-.1.33.33,0,0,0-.23.1l-2,2L122.21,156A3.21,3.21,0,0,0,120,155H94.18A7.52,7.52,0,0,0,86.66,162.55Zm5.85,0a1.67,1.67,0,0,1,.49-1.18,1.69,1.69,0,0,1,1.18-.49h18a1.67,1.67,0,0,1,0,3.34h-18a1.69,1.69,0,0,1-1.18-.49A1.67,1.67,0,0,1,92.51,162.55Z"/><path class="cls-7" d="M124.71,158.13l6.18,6.18.83-.83-6.18-6.18Zm-33.39,4.42a2.87,2.87,0,0,0,2.86,2.86h18a2.86,2.86,0,0,0,0-5.72h-18A2.87,2.87,0,0,0,91.32,162.55Zm.52,0a2.35,2.35,0,0,1,2.34-2.34h18a2.34,2.34,0,0,1,0,4.68h-18A2.35,2.35,0,0,1,91.84,162.55Zm-4.51,0v43.17a6.85,6.85,0,0,0,6.85,6.84h32.29a6.85,6.85,0,0,0,6.85-6.84V169.08a2.53,2.53,0,0,0-.74-1.79l-10.85-10.85a2.52,2.52,0,0,0-1.78-.74H94.18a6.86,6.86,0,0,0-6.85,6.85Zm.53,0a6.32,6.32,0,0,1,6.32-6.32H120a2,2,0,0,1,1.11.33,1.81,1.81,0,0,1,.3.25l1,1.05,9.8,9.8a2,2,0,0,1,.58,1.42v36.64a6.33,6.33,0,0,1-6.32,6.32H94.18a6.33,6.33,0,0,1-6.32-6.32Zm3.46,0a2.87,2.87,0,0,0,2.86,2.86h18a2.86,2.86,0,0,0,0-5.72h-18A2.87,2.87,0,0,0,91.32,162.55Zm.52,0a2.35,2.35,0,0,1,2.34-2.34h18a2.34,2.34,0,0,1,0,4.68h-18A2.35,2.35,0,0,1,91.84,162.55Zm1.54,8.39a1.06,1.06,0,0,0-.32.77v34a1.09,1.09,0,0,0,1.1,1.1H126.5a1.08,1.08,0,0,0,.77-.32,1.14,1.14,0,0,0,.33-.78v-34a1.11,1.11,0,0,0-.33-.77,1.08,1.08,0,0,0-.77-.32H94.16A1.09,1.09,0,0,0,93.38,170.94Zm.49.77a.28.28,0,0,1,.29-.28H126.5a.28.28,0,0,1,.29.28v34a.29.29,0,0,1-.29.29H94.07L94,206a.24.24,0,0,1-.11-.13.36.36,0,0,1,0-.11Zm-2.55-9.16a2.87,2.87,0,0,0,2.86,2.86h18a2.86,2.86,0,0,0,0-5.72h-18A2.87,2.87,0,0,0,91.32,162.55Zm.52,0a2.35,2.35,0,0,1,2.34-2.34h18a2.34,2.34,0,0,1,0,4.68h-18A2.35,2.35,0,0,1,91.84,162.55Zm1.54,8.39a1.06,1.06,0,0,0-.32.77v34a1.09,1.09,0,0,0,1.1,1.1H126.5a1.08,1.08,0,0,0,.77-.32,1.14,1.14,0,0,0,.33-.78v-34a1.11,1.11,0,0,0-.33-.77,1.08,1.08,0,0,0-.77-.32H94.16A1.09,1.09,0,0,0,93.38,170.94Zm.49.77a.28.28,0,0,1,.29-.28H126.5a.28.28,0,0,1,.29.28v34a.29.29,0,0,1-.29.29H94.07L94,206a.24.24,0,0,1-.11-.13.36.36,0,0,1,0-.11Zm-.81,0v34a1.09,1.09,0,0,0,1.1,1.1H126.5a1.08,1.08,0,0,0,.77-.32,1.14,1.14,0,0,0,.33-.78v-34a1.11,1.11,0,0,0-.33-.77,1.08,1.08,0,0,0-.77-.32H94.16a1.09,1.09,0,0,0-.78.32A1.06,1.06,0,0,0,93.06,171.71Zm.81,0a.28.28,0,0,1,.29-.28H126.5a.28.28,0,0,1,.29.28v34a.29.29,0,0,1-.29.29H94.07L94,206a.24.24,0,0,1-.11-.13.36.36,0,0,1,0-.11Z"/><path class="cls-2" d="M86.66,162.55v43.17a7.52,7.52,0,0,0,7.52,7.52h32.29a7.52,7.52,0,0,0,7.52-7.52V169.08a3.22,3.22,0,0,0-.94-2.27l-1.75-1.75,2-2a.34.34,0,0,0,0-.48l-6.87-6.87a.35.35,0,0,0-.24-.1.33.33,0,0,0-.23.1l-2,2L122.21,156A3.21,3.21,0,0,0,120,155H94.18A7.52,7.52,0,0,0,86.66,162.55Zm5.85,0a1.67,1.67,0,0,1,.49-1.18,1.69,1.69,0,0,1,1.18-.49h18a1.67,1.67,0,0,1,0,3.34h-18a1.69,1.69,0,0,1-1.18-.49A1.67,1.67,0,0,1,92.51,162.55Z"/><path class="cls-2" d="M87.33,162.55v43.17a6.85,6.85,0,0,0,6.85,6.84h32.29a6.85,6.85,0,0,0,6.85-6.84V169.08a2.53,2.53,0,0,0-.74-1.79l-10.85-10.85a2.52,2.52,0,0,0-1.78-.74H94.18a6.86,6.86,0,0,0-6.85,6.85Zm5.18,0a1.67,1.67,0,0,1,.49-1.18,1.69,1.69,0,0,1,1.18-.49h18a1.67,1.67,0,0,1,0,3.34h-18a1.69,1.69,0,0,1-1.18-.49A1.67,1.67,0,0,1,92.51,162.55Z"/><rect class="cls-8" x="92.39" y="169.94" width="35.88" height="37.57" rx="1.77"/><path class="cls-8" d="M93.06,171.71a1.06,1.06,0,0,1,.32-.77,1.09,1.09,0,0,1,.78-.32H126.5a1.08,1.08,0,0,1,.77.32,1.11,1.11,0,0,1,.33.77v34a1.14,1.14,0,0,1-.33.78,1.08,1.08,0,0,1-.77.32H94.16a1.09,1.09,0,0,1-1.1-1.1Z"/><rect class="cls-8" x="92.39" y="169.94" width="35.88" height="37.57" rx="1.77"/><path class="cls-8" d="M93.06,171.71a1.06,1.06,0,0,1,.32-.77,1.09,1.09,0,0,1,.78-.32H126.5a1.08,1.08,0,0,1,.77.32,1.11,1.11,0,0,1,.33.77v34a1.14,1.14,0,0,1-.33.78,1.08,1.08,0,0,1-.77.32H94.16a1.09,1.09,0,0,1-1.1-1.1Z"/><rect class="cls-3" x="92.39" y="169.94" width="35.88" height="37.57" rx="1.77"/><path class="cls-5" d="M126.5,208.07H94.16a2.33,2.33,0,0,1-2.34-2.33v-34a2.33,2.33,0,0,1,2.34-2.33H126.5a2.33,2.33,0,0,1,2.33,2.33v34A2.33,2.33,0,0,1,126.5,208.07ZM94.16,170.51a1.21,1.21,0,0,0-1.21,1.2v34A1.21,1.21,0,0,0,94.16,207H126.5a1.21,1.21,0,0,0,1.2-1.21v-34a1.2,1.2,0,0,0-1.2-1.2Z"/><path class="cls-3" d="M93.06,171.71a1.06,1.06,0,0,1,.32-.77,1.09,1.09,0,0,1,.78-.32H126.5a1.08,1.08,0,0,1,.77.32,1.11,1.11,0,0,1,.33.77v34a1.14,1.14,0,0,1-.33.78,1.08,1.08,0,0,1-.77.32H94.16a1.09,1.09,0,0,1-1.1-1.1Z"/><path class="cls-5" d="M126.5,207.4H94.16a1.67,1.67,0,0,1-1.18-.48,1.66,1.66,0,0,1-.48-1.18v-34a1.66,1.66,0,0,1,1.66-1.66H126.5a1.62,1.62,0,0,1,1.17.49,1.64,1.64,0,0,1,.49,1.16v34a1.66,1.66,0,0,1-1.66,1.66ZM94.16,171.18a.52.52,0,0,0-.38.16.51.51,0,0,0-.16.37v34a.53.53,0,0,0,.54.53H126.5a.51.51,0,0,0,.37-.15.55.55,0,0,0,.16-.38v-34a.57.57,0,0,0-.16-.38.51.51,0,0,0-.37-.15Z"/><path class="cls-9" d="M124.43,158.19l6.4,6.4m1.8-1.8-6.4-6.4"/><path class="cls-3" d="M87.86,162.55v43.17A6.33,6.33,0,0,0,94.18,212h32.29a6.33,6.33,0,0,0,6.32-6.32V169.08a2,2,0,0,0-.58-1.42l-9.8-9.8-1-1.05a1.81,1.81,0,0,0-.3-.25,2,2,0,0,0-1.11-.33H94.18A6.32,6.32,0,0,0,87.86,162.55Zm4.53,9.16a1.77,1.77,0,0,1,1.77-1.77H126.5a1.77,1.77,0,0,1,1.76,1.77v34a1.76,1.76,0,0,1-1.76,1.77H94.16a1.77,1.77,0,0,1-1.77-1.77Zm-1.07-9.16a2.87,2.87,0,0,1,2.86-2.86h18a2.86,2.86,0,0,1,0,5.72h-18A2.87,2.87,0,0,1,91.32,162.55Z"/><path class="cls-5" d="M118,196.39H102.87V181.27H118Zm-14-1.13h12.86V182.4H104Z"/><rect class="cls-5" x="99.82" y="174.61" width="1.13" height="8.35" transform="translate(-97.01 123.33) rotate(-45)"/><rect class="cls-5" x="119.81" y="194.74" width="1.13" height="8.06" transform="translate(-105.3 143.33) rotate(-45)"/><rect class="cls-5" x="96.28" y="198.21" width="8.21" height="1.13" transform="translate(-109.93 125.59) rotate(-44.02)"/><rect class="cls-5" x="116.27" y="178.22" width="8.21" height="1.13" transform="translate(-91.84 141.11) rotate(-45.98)"/><rect class="cls-3" x="128.45" y="150.9" width="6.03" height="13.39" rx="0.64" transform="translate(-72.93 139.12) rotate(-45)"/><path class="cls-5" d="M134.07,164.76h0a1.23,1.23,0,0,1-.85-.35l-8.56-8.56a1.21,1.21,0,0,1,0-1.71l3.35-3.36a1.21,1.21,0,0,1,1.71,0l8.56,8.56a1.2,1.2,0,0,1,.36.86,1.18,1.18,0,0,1-.36.85l-3.35,3.36A1.19,1.19,0,0,1,134.07,164.76Zm-5.2-13.2-.06,0-3.35,3.36a.08.08,0,0,0,0,.11l8.56,8.56.51.4-.4-.4,3.35-3.36v-.11l-8.56-8.56Z"/><rect class="cls-2" x="133.05" y="161.07" width="4.01" height="0.24" transform="translate(-74.42 142.71) rotate(-45)"/><rect class="cls-2" x="132.34" y="160.35" width="4.01" height="0.24" transform="translate(-74.12 141.99) rotate(-45)"/><rect class="cls-2" x="131.62" y="159.63" width="4.01" height="0.24" transform="translate(-73.82 141.27) rotate(-45)"/><rect class="cls-2" x="130.9" y="158.91" width="4.01" height="0.24" transform="translate(-73.52 140.56) rotate(-45)"/><rect class="cls-2" x="130.18" y="158.19" width="4.01" height="0.24" transform="translate(-73.23 139.84) rotate(-45)"/><rect class="cls-2" x="129.46" y="157.48" width="4.01" height="0.24" transform="translate(-72.93 139.12) rotate(-45)"/><rect class="cls-2" x="128.75" y="156.76" width="4.01" height="0.24" transform="translate(-72.63 138.4) rotate(-45)"/><rect class="cls-2" x="128.03" y="156.04" width="4.01" height="0.24" transform="translate(-72.34 137.68) rotate(-45)"/><rect class="cls-2" x="127.31" y="155.32" width="4.01" height="0.24" transform="translate(-72.04 136.97) rotate(-45)"/><rect class="cls-2" x="126.59" y="154.6" width="4.01" height="0.24" transform="translate(-71.74 136.25) rotate(-45)"/><rect class="cls-2" x="125.87" y="153.89" width="4.01" height="0.24" transform="translate(-71.44 135.53) rotate(-45)"/><rect class="cls-3" x="127.41" y="156.3" width="1.76" height="8.8" transform="translate(-76.06 137.78) rotate(-45)"/><path class="cls-2" d="M0,0V364.25H364.25V0ZM356.55,356.56H7.7V7.69H356.55Z"/><path class="cls-2" d="M272.44,272c-.77.18-2-.29-4.12-.56-1.52-.19-1.53,0-5.84,0-3,0-2.51-.05-7.82-.1-4.87,0-7.32-.06-8.21,0a34.28,34.28,0,0,1-5.75.1c-.86-.06-1.1-.12-2.28-.19-1.9-.13-3.37-.11-4.65-.1H232.5l1.76-.63a43.29,43.29,0,0,1,5-1.39,48.74,48.74,0,0,1,8-1.08,47.75,47.75,0,0,1,7.82,0,54.67,54.67,0,0,1,8,1.38,53.31,53.31,0,0,1,8,2.08C271.14,271.54,271.64,271.74,272.44,272Z"/><path class="cls-2" d="M281.54,266.72a4.16,4.16,0,0,1-.29,1.76s-.06,0-.12,0a3,3,0,0,1-.47.66A3.21,3.21,0,0,1,279,270a9.2,9.2,0,0,1-2.9.05,9.44,9.44,0,0,1-2.81-.78c-.5-.2-1.09-.42-1.86-.7-2.17-.8-3.27-1.21-4.15-1.49s-1.77-.51-2.57-.69c-1.53-.36-2.91-.58-4.26-.79-2-.33-3.62-.47-4.95-.59s-2.47-.23-3.62-.27-2.21.14-3.61.27l-.79.08a0,0,0,0,0,0,0c-1.14.1-2.48.25-4.12.51a45.39,45.39,0,0,0-6.84,1.48c-.87.28-2,.69-4.16,1.49l-1.73.65a10,10,0,0,1-2.91.83,9,9,0,0,1-3.08-.09,3,3,0,0,1-1.47-.79c-1.79-1.82-.62-6,1.15-8.63a9.49,9.49,0,0,1,.94-1.28,8.74,8.74,0,0,1,2.47-1.84l1.17-.83c4.12-2.81,6.32-4.32,9.91-5.74.71-.29,1.41-.54,2.08-.76a24,24,0,0,1,5.35-1.52,37.8,37.8,0,0,1,11.37,0,24.31,24.31,0,0,1,5.35,1.52c.67.22,1.37.47,2.08.76,3.58,1.42,5.79,2.93,9.91,5.74l1.18.83a8.92,8.92,0,0,1,2.47,1.84,10.32,10.32,0,0,1,.93,1.28A11.49,11.49,0,0,1,281.54,266.72Z"/><path class="cls-2" d="M327,42v9.23a4.85,4.85,0,0,0,1.41,3.39v-16A4.85,4.85,0,0,0,327,42Z"/><path class="cls-10" d="M317.63,28.79h-.08l.05-.05Z"/><path class="cls-10" d="M324.76,28.79l-.09.14-.12-.14Z"/><path class="cls-2" d="M324.76,28.79l-.09.14-.12-.14Z"/><path class="cls-2" d="M333.79,37.25h-2l-.5,0V32.12a3.3,3.3,0,0,0-1.26-2.6,3.23,3.23,0,0,0-2.06-.73h-.07a2.2,2.2,0,0,1-3.25.14,4.18,4.18,0,0,1-2.85,1.82h0a4.07,4.07,0,0,1-.61.05,4.17,4.17,0,0,1-1.83-.42,4.24,4.24,0,0,1-1.74-1.59h-.08a3.59,3.59,0,0,1-2.24.79,3.53,3.53,0,0,1-1.23-.22l-.09-.09-.07,0a3.79,3.79,0,0,1-.87-.52h-3.31a3.32,3.32,0,0,0-2.33.95,3.37,3.37,0,0,0-1,2.38V63.86a3.32,3.32,0,0,0,3.32,3.32H328a3.33,3.33,0,0,0,3.32-3.32V56l.5,0h2a4.79,4.79,0,0,0,4.78-4.79V42A4.79,4.79,0,0,0,333.79,37.25ZM312.3,60.87A1.28,1.28,0,0,1,311,62.15h-.43a1.28,1.28,0,0,1-1.29-1.28V35.11a1.29,1.29,0,0,1,1.29-1.29H311a1.29,1.29,0,0,1,1.29,1.29Zm5.38,0a1.28,1.28,0,0,1-1.29,1.28H316a1.28,1.28,0,0,1-1.29-1.28V35.11A1.29,1.29,0,0,1,316,33.82h.43a1.29,1.29,0,0,1,1.29,1.29Zm5.37,0a1.28,1.28,0,0,1-1.28,1.28h-.44a1.28,1.28,0,0,1-1.28-1.28V35.11a1.28,1.28,0,0,1,1.28-1.29h.44a1.28,1.28,0,0,1,1.28,1.29Zm5.38,0a1.28,1.28,0,0,1-1.28,1.28h-.44a1.28,1.28,0,0,1-1.28-1.28V35.11a1.28,1.28,0,0,1,1.28-1.29h.44a1.28,1.28,0,0,1,1.28,1.29Zm7.33-9.61a2,2,0,0,1-2,2h-2a1.59,1.59,0,0,1-.5-.07v-13a1.59,1.59,0,0,1,.5-.07h2a2,2,0,0,1,2,2Z"/><rect class="cls-2" x="309.29" y="33.82" width="3.01" height="28.33" rx="1.29"/><path class="cls-2" d="M317.68,35.11V60.87a1.28,1.28,0,0,1-1.29,1.28H316a1.28,1.28,0,0,1-1.29-1.28V35.11A1.29,1.29,0,0,1,316,33.82h.43A1.29,1.29,0,0,1,317.68,35.11Z"/><path class="cls-2" d="M323.05,35.11V60.87a1.28,1.28,0,0,1-1.28,1.28h-.44a1.28,1.28,0,0,1-1.28-1.28V35.11a1.28,1.28,0,0,1,1.28-1.29h.44A1.28,1.28,0,0,1,323.05,35.11Z"/><path class="cls-2" d="M328.43,35.11V60.87a1.28,1.28,0,0,1-1.28,1.28h-.44a1.28,1.28,0,0,1-1.28-1.28V35.11a1.28,1.28,0,0,1,1.28-1.29h.44A1.28,1.28,0,0,1,328.43,35.11Z"/><rect class="cls-3" x="309.29" y="33.82" width="3.01" height="28.33" rx="1.29"/><path class="cls-3" d="M317.68,35.11V60.87a1.28,1.28,0,0,1-1.29,1.28H316a1.28,1.28,0,0,1-1.29-1.28V35.11A1.29,1.29,0,0,1,316,33.82h.43A1.29,1.29,0,0,1,317.68,35.11Z"/><path class="cls-3" d="M323.05,35.11V60.87a1.28,1.28,0,0,1-1.28,1.28h-.44a1.28,1.28,0,0,1-1.28-1.28V35.11a1.28,1.28,0,0,1,1.28-1.29h.44A1.28,1.28,0,0,1,323.05,35.11Z"/><path class="cls-3" d="M328.43,35.11V60.87a1.28,1.28,0,0,1-1.28,1.28h-.44a1.28,1.28,0,0,1-1.28-1.28V35.11a1.28,1.28,0,0,1,1.28-1.29h.44A1.28,1.28,0,0,1,328.43,35.11Z"/></g></g></svg>