<svg xmlns="http://www.w3.org/2000/svg" viewBox="0 0 104.31 104.37"><defs><style>.cls-1{fill:#1f3664;}</style></defs><g id="Livello_2" data-name="Livello 2"><g id="Livello_1-2" data-name="Livello 1"><polygon class="cls-1" points="56.54 0 47.77 0 52.15 51.87 56.54 0"/><polygon class="cls-1" points="52.15 52.5 47.77 104.37 56.54 104.37 52.15 52.5"/><polygon class="cls-1" points="9.18 22.28 4.79 29.88 51.91 52.02 9.18 22.28"/><polygon class="cls-1" points="95.17 82.07 99.56 74.47 52.45 52.33 95.17 82.07"/><polygon class="cls-1" points="9.18 82.07 51.91 52.33 4.79 74.47 9.18 82.07"/><polygon class="cls-1" points="99.56 29.88 95.17 22.28 52.45 52.02 99.56 29.88"/><polygon class="cls-1" points="104.31 56.93 52.46 52.25 102.78 65.57 104.31 56.93"/><polygon class="cls-1" points="1.52 38.81 0 47.45 51.84 52.14 1.52 38.81"/><polygon class="cls-1" points="104.31 47.45 102.78 38.81 52.46 52.14 104.31 47.45"/><polygon class="cls-1" points="51.84 52.25 0 56.93 1.52 65.57 51.84 52.25"/><polygon class="cls-1" points="21.97 9.41 15.25 15.05 51.95 51.97 21.97 9.41"/><polygon class="cls-1" points="82.33 95 89.06 89.36 52.35 52.45 82.33 95"/><polygon class="cls-1" points="51.95 52.45 15.25 89.36 21.97 95 51.95 52.45"/><polygon class="cls-1" points="89.06 15.05 82.33 9.41 52.35 51.97 89.06 15.05"/><polygon class="cls-1" points="38.43 1.64 30.18 4.64 52.05 51.88 38.43 1.64"/><polygon class="cls-1" points="65.88 102.72 74.13 99.71 52.26 52.47 65.88 102.72"/><polygon class="cls-1" points="30.18 99.71 38.43 102.72 52.05 52.47 30.18 99.71"/><polygon class="cls-1" points="74.13 4.64 65.88 1.64 52.26 51.88 74.13 4.64"/></g></g></svg>