<svg xmlns="http://www.w3.org/2000/svg" xmlns:xlink="http://www.w3.org/1999/xlink" width="428" height="428" viewBox="0 0 428 428">
  <defs>
    <clipPath id="clip-path">
      <rect id="Rettangolo_30" data-name="Rettangolo 30" width="428" height="428" transform="translate(0 0)" fill="none"/>
    </clipPath>
  </defs>
  <g id="Raggruppa_24" data-name="Raggruppa 24" transform="translate(-1027 -249)">
    <g id="Rettangolo_59" data-name="Rettangolo 59" transform="translate(1027 249)" fill="#fff" stroke="#707070" stroke-width="1">
      <rect width="428" height="428" stroke="none"/>
      <rect x="0.5" y="0.5" width="427" height="427" fill="none"/>
    </g>
    <g id="Raggruppa_5" data-name="Raggruppa 5" transform="translate(1027 249)">
      <g id="Raggruppa_2" data-name="Raggruppa 2">
        <g id="Raggruppa_1" data-name="Raggruppa 1" clip-path="url(#clip-path)">
          <path id="Tracciato_1" data-name="Tracciato 1" d="M78.758,268.507A13.928,13.928,0,1,1,64.83,254.579a13.928,13.928,0,0,1,13.928,13.928" transform="translate(-15.493 -77.488)" fill="#0d2952"/>
          <rect id="Rettangolo_1" data-name="Rettangolo 1" width="82.817" height="82.817" transform="translate(338.251 172.553)" fill="#5d8bc9"/>
          <path id="Tracciato_2" data-name="Tracciato 2" d="M536,277.748c-17.784-10.433-30.269,8.64-23.167,21.582C515.581,304.336,536,323.948,536,323.948s20.421-19.612,23.167-24.617c7.1-12.942-5.383-32.015-23.167-21.582" transform="translate(-155.478 -83.626)" fill="#fff"/>
          <path id="Tracciato_3" data-name="Tracciato 3" d="M536,277.748c-17.784-10.433-30.269,8.64-23.167,21.582C515.581,304.336,536,323.948,536,323.948s20.421-19.612,23.167-24.617C566.271,286.389,553.786,267.316,536,277.748Z" transform="translate(-155.478 -83.626)" fill="none" stroke="#0d2952" stroke-miterlimit="10" stroke-width="10"/>
          <rect id="Rettangolo_2" data-name="Rettangolo 2" width="78.192" height="78.192" transform="translate(340.563 92.087)" fill="#fff"/>
          <path id="Tracciato_4" data-name="Tracciato 4" d="M569.073,211.873H486.256V129.056h82.817Zm-78.191-4.626h73.566V133.682H490.882Z" transform="translate(-148.005 -39.282)" fill="#0d2952"/>
          <rect id="Rettangolo_3" data-name="Rettangolo 3" width="82.817" height="82.817" transform="translate(6.956 255.409)" fill="#0d2952"/>
          <rect id="Rettangolo_4" data-name="Rettangolo 4" width="82.817" height="82.817" transform="translate(6.964 89.664)" fill="#0d2952"/>
          <rect id="Rettangolo_5" data-name="Rettangolo 5" width="10.496" height="10.496" transform="translate(40.943 286.567) rotate(-45)" fill="none" stroke="#fff" stroke-miterlimit="10" stroke-width="3"/>
          <rect id="Rettangolo_6" data-name="Rettangolo 6" width="19.645" height="19.645" transform="translate(34.474 286.567) rotate(-45)" fill="none" stroke="#fff" stroke-miterlimit="10" stroke-width="3"/>
          <rect id="Rettangolo_7" data-name="Rettangolo 7" width="30.626" height="30.626" transform="translate(26.709 286.567) rotate(-45)" fill="none" stroke="#fff" stroke-miterlimit="10" stroke-width="3"/>
          <path id="Tracciato_5" data-name="Tracciato 5" d="M450.018,406v8.238L367.2,386.3v-8.238Z" transform="translate(-111.767 -115.074)" fill="#5d8bc9"/>
          <path id="Tracciato_6" data-name="Tracciato 6" d="M450.018,386.8v5.344L367.2,364.2v-5.344Z" transform="translate(-111.767 -109.228)" fill="#5d8bc9"/>
          <path id="Tracciato_7" data-name="Tracciato 7" d="M450.018,367.588v5.344L367.2,344.995v-5.344Z" transform="translate(-111.767 -103.382)" fill="#5d8bc9"/>
          <path id="Tracciato_8" data-name="Tracciato 8" d="M450.018,348.381v5.344L367.2,325.788v-5.345Z" transform="translate(-111.767 -97.536)" fill="#5d8bc9"/>
          <path id="Tracciato_9" data-name="Tracciato 9" d="M450.018,329.173v5.345L367.2,306.58v-5.344Z" transform="translate(-111.767 -91.689)" fill="#5d8bc9"/>
          <path id="Tracciato_10" data-name="Tracciato 10" d="M450.018,309.966v5.344L367.2,287.373v-5.345Z" transform="translate(-111.767 -85.843)" fill="#5d8bc9"/>
          <path id="Tracciato_11" data-name="Tracciato 11" d="M450.018,290.759V296.1L367.2,268.166v-5.344Z" transform="translate(-111.767 -79.997)" fill="#5d8bc9"/>
          <path id="Tracciato_12" data-name="Tracciato 12" d="M450.018,271.551V276.9L367.2,248.958v-5.344Z" transform="translate(-111.767 -74.151)" fill="#5d8bc9"/>
          <path id="Tracciato_13" data-name="Tracciato 13" d="M450.018,252.344v5.344L367.2,229.751v-5.344Z" transform="translate(-111.767 -68.304)" fill="#5d8bc9"/>
          <path id="Tracciato_14" data-name="Tracciato 14" d="M450.018,233.137v5.344L367.2,210.544V205.2Z" transform="translate(-111.767 -62.458)" fill="#5d8bc9"/>
          <path id="Tracciato_15" data-name="Tracciato 15" d="M450.018,213.93v5.344L367.2,191.337v-5.345Z" transform="translate(-111.767 -56.612)" fill="#5d8bc9"/>
          <path id="Tracciato_16" data-name="Tracciato 16" d="M450.018,194.722v5.344L367.2,172.129v-5.344Z" transform="translate(-111.767 -50.765)" fill="#5d8bc9"/>
          <path id="Tracciato_17" data-name="Tracciato 17" d="M450.018,175.515v5.344L367.2,152.922v-5.344Z" transform="translate(-111.767 -44.919)" fill="#5d8bc9"/>
          <path id="Tracciato_18" data-name="Tracciato 18" d="M450.018,156.308v5.344L367.2,133.715V128.37Z" transform="translate(-111.767 -39.073)" fill="#5d8bc9"/>
          <path id="Tracciato_19" data-name="Tracciato 19" d="M450.018,137.1v5.344L367.2,114.507v-5.344Z" transform="translate(-111.767 -33.227)" fill="#5d8bc9"/>
          <path id="Tracciato_20" data-name="Tracciato 20" d="M450.018,117.893v5.344L367.2,95.3V89.956Z" transform="translate(-111.767 -27.38)" fill="#5d8bc9"/>
          <path id="Tracciato_21" data-name="Tracciato 21" d="M450.018,98.686v5.344L367.2,76.093V70.748Z" transform="translate(-111.767 -21.534)" fill="#5d8bc9"/>
          <path id="Tracciato_22" data-name="Tracciato 22" d="M450.018,79.478v5.344L367.2,56.885V51.541Z" transform="translate(-111.767 -15.688)" fill="#5d8bc9"/>
          <path id="Tracciato_23" data-name="Tracciato 23" d="M450.018,60.271v5.344L367.2,37.678V32.333Z" transform="translate(-111.767 -9.842)" fill="#5d8bc9"/>
          <path id="Tracciato_24" data-name="Tracciato 24" d="M450.018,41.064v5.344L367.2,18.471V13.126Z" transform="translate(-111.767 -3.995)" fill="#5d8bc9"/>
          <path id="Tracciato_25" data-name="Tracciato 25" d="M390.924,3.929c-2.408.145-4.71.864-7.147.771a50.917,50.917,0,0,0-6.451-.013L453.1,30.248V24.9Z" transform="translate(-114.85 -1.196)" fill="#5d8bc9"/>
          <path id="Tracciato_26" data-name="Tracciato 26" d="M448.264,3.984a3.8,3.8,0,0,1-.83-.126c-4.591-1.212-9.644-.191-14.277.374l36.936,12.46V11.348Z" transform="translate(-131.843 -1.002)" fill="#5d8bc9"/>
          <rect id="Rettangolo_8" data-name="Rettangolo 8" width="46.767" height="152.958" transform="translate(273.239 97.057)" fill="#fff"/>
          <path id="Tracciato_27" data-name="Tracciato 27" d="M322.807,397.606h0l-.077-.166q-.244-.559-.516-1.107l-7.845-16.824H274.531l-7.841,16.817q-.285.571-.539,1.156l-.057.123h0a22.839,22.839,0,0,0-1.861,9.02c0,14.392,13.528,26.059,30.217,26.059s30.216-11.667,30.216-26.059a22.84,22.84,0,0,0-1.861-9.02" transform="translate(-80.427 -115.514)" fill="#0d2952"/>
          <path id="Tracciato_28" data-name="Tracciato 28" d="M321.669,420.019c0,11.852-11.14,21.459-24.882,21.459s-24.878-9.607-24.878-21.459c0-.145,0-.29,0-.435h49.751c0,.145,0,.29,0,.435" transform="translate(-82.763 -127.712)" fill="#5d8bc9"/>
          <rect id="Rettangolo_9" data-name="Rettangolo 9" width="82.817" height="82.817" transform="translate(89.798 338.226)" fill="#fff"/>
          <path id="Tracciato_29" data-name="Tracciato 29" d="M129.09,486.221h82.817l-41.408,41.4Z" transform="translate(-39.292 -147.995)" fill="#5d8bc9"/>
          <path id="Tracciato_30" data-name="Tracciato 30" d="M170.5,545.742l41.409,41.413H129.09Z" transform="translate(-39.292 -166.111)" fill="#0d2952"/>
          <rect id="Rettangolo_10" data-name="Rettangolo 10" width="82.817" height="82.583" transform="translate(338.251 7.074)" fill="#5d8bc9"/>
          <path id="Tracciato_31" data-name="Tracciato 31" d="M229.477,558.527h80.136V516.451H230.224a21.411,21.411,0,0,0-21.411,21.412,20.664,20.664,0,0,0,20.664,20.664" transform="translate(-63.558 -157.196)" fill="#0d2952"/>
          <path id="Tracciato_32" data-name="Tracciato 32" d="M201.284,549.574H143.829V535.081h57.455a6.479,6.479,0,0,1,6.479,6.479v1.535a6.479,6.479,0,0,1-6.479,6.479" transform="translate(-43.778 -162.867)" fill="#0d2952"/>
          <rect id="Rettangolo_11" data-name="Rettangolo 11" width="9.593" height="14.493" transform="translate(100.051 372.215)" fill="#5d8bc9"/>
          <path id="Tracciato_33" data-name="Tracciato 33" d="M35.39,550.468H27.513a3.821,3.821,0,0,1-3.82-3.82V536.618a3.821,3.821,0,0,1,3.82-3.82H35.39Z" transform="translate(-7.212 -162.172)" fill="#5d8bc9"/>
          <path id="Tracciato_34" data-name="Tracciato 34" d="M53.058,549.574H40.508V535.081h12.55a7.246,7.246,0,1,1,0,14.493" transform="translate(-12.33 -162.867)" fill="#0d2952"/>
          <path id="Tracciato_35" data-name="Tracciato 35" d="M173.782,546.984H156.807a3.09,3.09,0,0,1-3.09-3.09v-.147a3.09,3.09,0,0,1,3.09-3.091h16.975l-3.674,3.164Z" transform="translate(-46.788 -164.563)" fill="#fff"/>
          <rect id="Rettangolo_12" data-name="Rettangolo 12" width="30.095" height="42.076" transform="translate(194.9 359.255)" fill="#5d8bc9"/>
          <rect id="Rettangolo_13" data-name="Rettangolo 13" width="1.084" height="42.076" transform="translate(197.702 359.255)" fill="#fff"/>
          <rect id="Rettangolo_14" data-name="Rettangolo 14" width="1.084" height="42.076" transform="translate(209.645 359.255)" fill="#fff"/>
          <rect id="Rettangolo_15" data-name="Rettangolo 15" width="1.084" height="42.076" transform="translate(221.588 359.255)" fill="#fff"/>
          <line id="Linea_1" data-name="Linea 1" x2="23.885" y2="21.038" transform="translate(198.245 380.293)" fill="none" stroke="#fff" stroke-miterlimit="10" stroke-width="2.115"/>
          <line id="Linea_2" data-name="Linea 2" y1="21.038" x2="23.885" transform="translate(198.245 380.293)" fill="none" stroke="#fff" stroke-miterlimit="10" stroke-width="2.115"/>
          <line id="Linea_3" data-name="Linea 3" x2="23.885" y2="21.038" transform="translate(198.245 359.255)" fill="none" stroke="#fff" stroke-miterlimit="10" stroke-width="2.115"/>
          <line id="Linea_4" data-name="Linea 4" y1="21.038" x2="23.885" transform="translate(198.245 359.255)" fill="none" stroke="#fff" stroke-miterlimit="10" stroke-width="2.115"/>
          <path id="Tracciato_36" data-name="Tracciato 36" d="M391.173,272.337h49.464V261.675H391.173Zm11.766-8.305H405.3v5.948h-2.357Zm-2.358,5.948h-2.357v-5.948h2.357Zm7.072-5.948h2.357v5.948h-2.357Zm4.715,0h2.357v5.948h-2.357Zm4.715,0h2.357v5.948h-2.357Zm4.714,0h2.357v5.948H421.8Zm4.715,0h2.357v5.948h-2.357Zm4.714,0h2.357v5.948h-2.357Zm-37.7,0h2.335v5.948H393.53Zm44.748,5.948h-2.337v-5.948h2.337Z" transform="translate(-119.064 -79.648)" fill="#5d8bc9"/>
          <path id="Tracciato_37" data-name="Tracciato 37" d="M391.176,295.647H440.64V149.918H391.176ZM415.9,158.457a8.744,8.744,0,1,1-8.744,8.744,8.741,8.741,0,0,1,8.744-8.744m10.61,79.863H405.294V212.148a10.61,10.61,0,1,1,21.221,0Z" transform="translate(-119.065 -45.632)" fill="#0d2952"/>
          <rect id="Rettangolo_16" data-name="Rettangolo 16" width="49.463" height="2.415" transform="translate(272.109 197.217)" fill="#5d8bc9"/>
          <rect id="Rettangolo_17" data-name="Rettangolo 17" width="49.463" height="2.415" transform="translate(272.109 133.925)" fill="#5d8bc9"/>
          <path id="Tracciato_38" data-name="Tracciato 38" d="M391.173,146.8h49.464V136.136H391.173Zm11.766-8.3H405.3v5.948h-2.357Zm-2.358,5.947h-2.357v-5.948h2.357Zm7.072-5.947h2.357v5.948h-2.357Zm4.715,0h2.357v5.948h-2.357Zm4.715,0h2.357v5.948h-2.357Zm4.714,0h2.357v5.948H421.8Zm4.715,0h2.357v5.948h-2.357Zm4.714,0h2.357v5.948h-2.357Zm-37.7,0h2.335v5.948H393.53Zm44.748,5.947h-2.337v-5.948h2.337Z" transform="translate(-119.064 -41.437)" fill="#5d8bc9"/>
          <path id="Tracciato_39" data-name="Tracciato 39" d="M426.5,171.984v-4.865h-.906v5.771h4.323v-.906Z" transform="translate(-129.541 -50.867)" fill="#5d8bc9"/>
          <path id="Tracciato_40" data-name="Tracciato 40" d="M520.829,42.214l-.064-.049a3.109,3.109,0,0,1-1.436-2.869,1.737,1.737,0,0,1,1.277-1.416,1.947,1.947,0,0,1,2.017.509,2.24,2.24,0,0,1,.431,2.072,2.3,2.3,0,0,1-1.521,1.614,2.794,2.794,0,0,1-.623.132Zm.393-4.012a1.7,1.7,0,0,0-.5.074,1.332,1.332,0,0,0-.986,1.078,2.768,2.768,0,0,0,1.209,2.43,2.352,2.352,0,0,0,.449-.1,1.893,1.893,0,0,0,1.254-1.325,1.854,1.854,0,0,0-.338-1.691,1.455,1.455,0,0,0-1.093-.463" transform="translate(-158.065 -11.502)" fill="#0d2952"/>
          <path id="Tracciato_41" data-name="Tracciato 41" d="M529.357,39.684l-.149-.082a5.538,5.538,0,0,1-.673-.42,6.032,6.032,0,0,1-2.46-4.634,3.114,3.114,0,0,1,.765-2.186,1.91,1.91,0,0,1,2.328-.234,3.453,3.453,0,0,1,1.5,2.314,6,6,0,0,1,.055,2.342h0a5.907,5.907,0,0,1-1.261,2.769Zm-1.264-7.431a1.3,1.3,0,0,0-.956.4,2.705,2.705,0,0,0-.648,1.895,5.609,5.609,0,0,0,2.292,4.3,4.9,4.9,0,0,0,.473.306,5.515,5.515,0,0,0,1.064-2.442h0a5.586,5.586,0,0,0-.051-2.179,3.132,3.132,0,0,0-1.3-2.047,1.838,1.838,0,0,0-.872-.235" transform="translate(-160.125 -9.692)" fill="#0d2952"/>
          <path id="Tracciato_42" data-name="Tracciato 42" d="M565.121,66.726a14.975,14.975,0,0,1-8.662,7.505,14.952,14.952,0,0,0,8.691-7.505,3.279,3.279,0,0,1,2.609-1.873c.116-.013.232-.029.348-.049l-.374.049a3.286,3.286,0,0,0-2.613,1.873" transform="translate(-169.373 -19.725)" fill="#0d2952"/>
          <path id="Tracciato_43" data-name="Tracciato 43" d="M556.539,74.44l-.287-.778a14.632,14.632,0,0,0,8.428-7.287h0a3.675,3.675,0,0,1,2.94-2.113l.37-.049.126.819c-.124.022-.25.04-.376.054a2.878,2.878,0,0,0-2.276,1.631,15.428,15.428,0,0,1-8.926,7.725" transform="translate(-169.31 -19.545)" fill="#fff"/>
          <path id="Tracciato_44" data-name="Tracciato 44" d="M582.323,58.166a13.41,13.41,0,0,0,7.086-8.467h-.025a13.433,13.433,0,0,1-7.061,8.467" transform="translate(-177.246 -15.127)" fill="#0d2952"/>
          <path id="Tracciato_45" data-name="Tracciato 45" d="M582.432,58.351l-.39-.732a13.091,13.091,0,0,0,6.853-8.2l.075-.32h.853l-.1.511a13.878,13.878,0,0,1-7.294,8.737" transform="translate(-177.16 -14.946)" fill="#fff"/>
          <path id="Tracciato_46" data-name="Tracciato 46" d="M553.6,64.242a11.07,11.07,0,0,0,4.5-5.1,2.492,2.492,0,0,1,1.958-1.521c4.962-.675,8.948-3.829,10.155-7.924H546.351V66.248a14.007,14.007,0,0,0,7.251-2.006" transform="translate(-166.297 -15.127)" fill="#0d2952"/>
          <path id="Tracciato_47" data-name="Tracciato 47" d="M545.754,66.483V49.1h24.832l-.157.532c-1.267,4.3-5.386,7.52-10.5,8.217a2.088,2.088,0,0,0-1.63,1.27,11.417,11.417,0,0,1-4.663,5.291h0a14.384,14.384,0,0,1-7.466,2.067Zm.831-16.55V65.645a13.491,13.491,0,0,0,6.618-1.937,10.588,10.588,0,0,0,4.331-4.9,2.923,2.923,0,0,1,2.285-1.772c4.572-.623,8.291-3.382,9.64-7.1Z" transform="translate(-166.115 -14.946)" fill="#fff"/>
          <path id="Tracciato_48" data-name="Tracciato 48" d="M507.841,45.567v-.854h-8.155v1.048a10.162,10.162,0,0,0,.066,1.177h8.193a8.852,8.852,0,0,1-.1-1.372" transform="translate(-152.093 -13.61)" fill="#0d2952"/>
          <path id="Tracciato_49" data-name="Tracciato 49" d="M508.249,47.171H499.2l-.042-.367a10.4,10.4,0,0,1-.069-1.225V44.117h8.985v1.268a8.44,8.44,0,0,0,.1,1.307Zm-8.3-.829h7.345c-.031-.311-.047-.632-.047-.957v-.439H499.92v.634c0,.264.009.515.028.762" transform="translate(-151.912 -13.428)" fill="#fff"/>
          <path id="Tracciato_50" data-name="Tracciato 50" d="M592.85,44.713v1.048a10.015,10.015,0,0,1-.067,1.177h.025a10,10,0,0,0,.067-1.177V44.713Z" transform="translate(-180.43 -13.61)" fill="#0d2952"/>
          <path id="Tracciato_51" data-name="Tracciato 51" d="M592.984,47.171h-.835l.029-.463a9.691,9.691,0,0,0,.063-1.128V44.117h.855V45.58a10.411,10.411,0,0,1-.069,1.225Z" transform="translate(-180.237 -13.428)" fill="#fff"/>
          <path id="Tracciato_52" data-name="Tracciato 52" d="M546.351,46.938H570.49a8.844,8.844,0,0,0,.1-1.372v-.854H546.351Z" transform="translate(-166.297 -13.61)" fill="#0d2952"/>
          <path id="Tracciato_53" data-name="Tracciato 53" d="M570.664,47.171H545.754V44.117h25.073v1.268a9.24,9.24,0,0,1-.109,1.436Zm-24.079-.829h23.361a8.562,8.562,0,0,0,.052-.957v-.439H546.585Z" transform="translate(-166.115 -13.428)" fill="#fff"/>
          <path id="Tracciato_54" data-name="Tracciato 54" d="M533.44,70.832c-.406.025-.813.038-1.228.038h0V66.248c-5.422-.021-10.031-2.98-11.748-7.1a2.49,2.49,0,0,0-1.958-1.521c-4.961-.675-8.948-3.829-10.155-7.924h-8.255c1.286,5.424,6.816,9.681,13.777,10.555a3.283,3.283,0,0,1,2.613,1.873c2.1,4.641,7.421,8.081,13.851,8.653V95.69l-16.583,2.716,37.039-.045-16.648-2.68v-24.9l-.152.012c-.182.017-.361.029-.547.038" transform="translate(-152.216 -15.128)" fill="#0d2952"/>
          <path id="Tracciato_55" data-name="Tracciato 55" d="M513.521,98.64l-.067-.823,16.234-2.659V70.976c-6.275-.673-11.672-4.123-13.813-8.859a2.855,2.855,0,0,0-2.287-1.633c-7.122-.895-12.8-5.263-14.129-10.871l-.121-.51h9.09l.088.3c1.174,3.984,5.026,6.979,9.813,7.631a2.922,2.922,0,0,1,2.285,1.772c1.7,4.076,6.265,6.829,11.366,6.848h.413v4.615c.264-.006.526-.016.792-.033h.007c.18-.008.352-.019.528-.036l.605-.052v25l16.3,2.623-.065.824ZM500.4,49.933c1.467,5.027,6.73,8.905,13.29,9.73a3.674,3.674,0,0,1,2.94,2.114c2.064,4.563,7.367,7.864,13.509,8.411l.378.033v25.64l-11.865,1.944,26.762-.033L533.5,95.854V71.05l-.264.015c-.42.026-.829.038-1.249.038h-.415l0-.415V66.474c-5.263-.165-9.938-3.082-11.716-7.351a2.087,2.087,0,0,0-1.631-1.27c-4.991-.68-9.038-3.773-10.4-7.92Z" transform="translate(-151.987 -14.946)" fill="#fff"/>
          <path id="Tracciato_56" data-name="Tracciato 56" d="M511.514,39.133h24.2V36.907H537l-6.761-17.839-1.163.44,6.594,17.4h-11.44a5.093,5.093,0,0,1-1.955.829,5.38,5.38,0,0,1-3.977-.818,3.49,3.49,0,0,1-.391-.011h-6.5v.854a8.867,8.867,0,0,0,.1,1.372" transform="translate(-155.662 -5.804)" fill="#5d8bc9"/>
          <path id="Tracciato_57" data-name="Tracciato 57" d="M535.949,39.313H510.978l-.056-.35a9.233,9.233,0,0,1-.109-1.436V36.259h6.91a3.388,3.388,0,0,0,.381.012l.134,0,.11.077a4.977,4.977,0,0,0,3.666.752,4.674,4.674,0,0,0,1.8-.763l.106-.074h10.969l-6.529-17.225L530.3,18.3l7.121,18.789h-1.468ZM511.7,38.484h23.424v-1.4H524.174a5.47,5.47,0,0,1-2,.822,5.834,5.834,0,0,1-4.179-.809c-.1,0-.2-.006-.3-.015h-6.044v.44a8.761,8.761,0,0,0,.051.957m24.078-2.225h.443l-6.4-16.89-.388.147Z" transform="translate(-155.48 -5.57)" fill="#fff"/>
          <path id="Tracciato_58" data-name="Tracciato 58" d="M526.535,44.713h-3.389l.02.008a4.828,4.828,0,0,0,3.369-.008" transform="translate(-159.234 -13.61)" fill="#d6bfa4"/>
          <path id="Tracciato_59" data-name="Tracciato 59" d="M523.85,45.255a5.184,5.184,0,0,1-1.82-.326l-2.138-.8,7.9-.008-2.1.8a5.162,5.162,0,0,1-1.843.335" transform="translate(-158.243 -13.429)" fill="#fff"/>
          <path id="Tracciato_60" data-name="Tracciato 60" d="M567.966,49.7h-8.222c-1.207,4.094-5.193,7.248-10.155,7.924a2.489,2.489,0,0,0-1.958,1.521,11.075,11.075,0,0,1-4.5,5.1,14.007,14.007,0,0,1-7.251,2.005V49.7H511.959c1.207,4.094,5.193,7.248,10.155,7.924a2.49,2.49,0,0,1,1.958,1.521c1.718,4.124,6.326,7.082,11.748,7.1v4.621h0c.415,0,.822-.013,1.228-.038.186-.008.364-.02.547-.037l.152-.013h0a20.183,20.183,0,0,0,2.651-.415c.211-.045.415-.1.623-.149s.406-.108.609-.166c.291-.083.577-.174.855-.269.145-.049.286-.1.423-.149a14.978,14.978,0,0,0,8.662-7.506,3.286,3.286,0,0,1,2.613-1.873l.374-.049c.125-.017.249-.038.369-.058a18.907,18.907,0,0,0,2.149-.468c.216-.058.431-.12.643-.191.249-.079.5-.161.738-.244.216-.079.432-.162.643-.245s.431-.178.643-.269c.266-.116.523-.241.776-.369.129-.067.257-.133.382-.195a13.436,13.436,0,0,0,7.061-8.467" transform="translate(-155.829 -15.128)" fill="#5d8bc9"/>
          <path id="Tracciato_61" data-name="Tracciato 61" d="M535.582,71.1h-.415l0-.415V66.474c-5.264-.165-9.938-3.082-11.716-7.351a2.087,2.087,0,0,0-1.631-1.27c-5.11-.7-9.231-3.921-10.5-8.217l-.157-.532h24.893V65.645a13.492,13.492,0,0,0,6.62-1.937,10.6,10.6,0,0,0,4.331-4.9,2.919,2.919,0,0,1,2.284-1.772c4.787-.652,8.64-3.647,9.814-7.631l.088-.3h9.056l-.12.51a13.912,13.912,0,0,1-7.268,8.736c-.134.067-.261.133-.388.2-.262.133-.527.261-.8.38-.217.093-.436.186-.655.275s-.436.169-.654.249c-.252.086-.5.17-.756.25-.214.071-.437.136-.661.2a19.4,19.4,0,0,1-2.191.477c-.119.021-.249.042-.378.06l-.375.05a2.855,2.855,0,0,0-2.291,1.633,15.454,15.454,0,0,1-8.9,7.723c-.142.051-.285.1-.432.152-.285.1-.579.191-.876.276-.208.059-.417.118-.625.17s-.416.105-.634.152a20.6,20.6,0,0,1-2.7.422l-.155.013c-.187.017-.371.03-.565.038-.415.026-.824.038-1.247.038m.411-4.627v3.793c.264-.006.526-.016.792-.033.187-.008.36-.019.535-.036l.154-.013a19.785,19.785,0,0,0,2.6-.406c.211-.045.408-.093.61-.146s.4-.106.6-.163c.284-.081.563-.169.834-.263.143-.049.282-.1.416-.147a14.622,14.622,0,0,0,8.425-7.286,3.676,3.676,0,0,1,2.94-2.114l.37-.049c.118-.017.237-.036.353-.056a18.654,18.654,0,0,0,2.108-.459c.212-.057.419-.117.623-.184q.378-.12.735-.243c.2-.075.417-.157.626-.239s.422-.175.63-.264c.256-.111.506-.232.751-.358l.385-.2a13.286,13.286,0,0,0,6.708-7.681h-7.379c-1.365,4.147-5.412,7.24-10.4,7.92a2.087,2.087,0,0,0-1.631,1.27,11.42,11.42,0,0,1-4.663,5.291,14.335,14.335,0,0,1-7.116,2.062m-23.7-16.543c1.348,3.717,5.067,6.476,9.639,7.1a2.92,2.92,0,0,1,2.285,1.772c1.658,3.982,6.055,6.7,11.013,6.843V49.933Z" transform="translate(-155.586 -14.946)" fill="#fff"/>
          <path id="Tracciato_62" data-name="Tracciato 62" d="M581.053,46.938h8.16a10.015,10.015,0,0,0,.067-1.177V44.713h-8.123v.854a8.852,8.852,0,0,1-.1,1.372" transform="translate(-176.859 -13.61)" fill="#5d8bc9"/>
          <path id="Tracciato_63" data-name="Tracciato 63" d="M589.369,47.171h-9.014l.075-.479a8.349,8.349,0,0,0,.1-1.307V44.117h8.953V45.58a10.458,10.458,0,0,1-.07,1.226Zm-8.057-.829h7.312c.019-.247.029-.5.029-.762v-.634h-7.293v.439a9.555,9.555,0,0,1-.047.957" transform="translate(-176.647 -13.428)" fill="#fff"/>
          <path id="Tracciato_64" data-name="Tracciato 64" d="M522.652,41.65a5.582,5.582,0,0,1-3.068-.906c-.121,0-.232,0-.347-.013l-.1-.007a4.006,4.006,0,0,1-3.288-4.364.452.452,0,0,1,.245-.392.545.545,0,0,1,.534.044.516.516,0,0,1,.238.474A3.417,3.417,0,0,0,517,37.633a3,3,0,0,0,1.2,1.7,3.481,3.481,0,0,1-.552-1.74,2.341,2.341,0,0,1,1.29-2.215,2.743,2.743,0,0,1,2.417.008,2.587,2.587,0,0,1,1.336,2.16,3.035,3.035,0,0,1-.94,2.4,2.769,2.769,0,0,1-.625.433,4.611,4.611,0,0,0,3.113-.045,4,4,0,0,0,.726-.355,4.305,4.305,0,0,0,.46-.346,6.489,6.489,0,0,1-1.788-1.654c-1.117-1.527-1.806-3.867-.824-5.657a2.47,2.47,0,0,1,2.362-1.361,3.141,3.141,0,0,1,2.474,1.726,6.361,6.361,0,0,1,.065,5.575,6.119,6.119,0,0,1-.623,1.064,5.884,5.884,0,0,0,3.073.232.458.458,0,0,1,.442.141.545.545,0,0,1,.092.529.517.517,0,0,1-.4.346,6.564,6.564,0,0,1-1.438.118,6.781,6.781,0,0,1-2.476-.553,5.733,5.733,0,0,1-.688.56,5.28,5.28,0,0,1-2.034.863,5.524,5.524,0,0,1-1.01.093m-2.944-1.322.055.038a5.187,5.187,0,0,0,3.822.785,4.9,4.9,0,0,0,1.875-.8,5.334,5.334,0,0,0,.732-.612l.1-.1.131.058a6.385,6.385,0,0,0,2.447.576,6.1,6.1,0,0,0,1.347-.112.1.1,0,0,0,.086-.073.144.144,0,0,0-.013-.122s-.013-.013-.051-.006a6.315,6.315,0,0,1-3.564-.351l-.255-.105.171-.216a5.775,5.775,0,0,0,.74-1.2,5.941,5.941,0,0,0-.05-5.2,2.732,2.732,0,0,0-2.138-1.511,2.071,2.071,0,0,0-1.97,1.148c-.895,1.629-.245,3.792.8,5.21a6.108,6.108,0,0,0,1.9,1.688l.241.138-.2.191a4.88,4.88,0,0,1-.725.576,4.371,4.371,0,0,1-.8.4,5.039,5.039,0,0,1-3.516.008c-.138-.053-.257-.106-.375-.163l-.461-.224.487-.159a2.565,2.565,0,0,0,.947-.541,2.617,2.617,0,0,0,.806-2.069,2.175,2.175,0,0,0-1.114-1.818,2.31,2.31,0,0,0-2.039,0,1.937,1.937,0,0,0-1.062,1.835,3.356,3.356,0,0,0,.926,2.109l.468.524-.678-.186a3.058,3.058,0,0,1-.63-.248A3.348,3.348,0,0,1,516.6,37.75a3.833,3.833,0,0,1-.145-1.288.107.107,0,0,0-.052-.1.132.132,0,0,0-.12-.019s-.015.008-.017.045a3.592,3.592,0,0,0,2.921,3.928l.09.006a3.521,3.521,0,0,0,.365.01Zm.067-.2-.065-.047a3.11,3.11,0,0,1-1.436-2.869,1.739,1.739,0,0,1,1.277-1.417,1.947,1.947,0,0,1,2.017.509A2.24,2.24,0,0,1,522,38.38a2.3,2.3,0,0,1-1.522,1.612,2.756,2.756,0,0,1-.623.132Zm.392-4.011a1.684,1.684,0,0,0-.5.074,1.331,1.331,0,0,0-.986,1.078A2.772,2.772,0,0,0,519.9,39.7a2.414,2.414,0,0,0,.45-.1,1.893,1.893,0,0,0,1.253-1.326,1.852,1.852,0,0,0-.338-1.69,1.454,1.454,0,0,0-1.093-.463m6.075,3.292-.15-.082a5.528,5.528,0,0,1-.673-.42,6.032,6.032,0,0,1-2.46-4.634,3.115,3.115,0,0,1,.765-2.186,1.91,1.91,0,0,1,2.328-.234,3.453,3.453,0,0,1,1.5,2.314,6,6,0,0,1,.055,2.342,5.905,5.905,0,0,1-1.26,2.77Zm-1.264-7.431a1.3,1.3,0,0,0-.956.4,2.7,2.7,0,0,0-.648,1.895,5.608,5.608,0,0,0,2.292,4.3,4.913,4.913,0,0,0,.473.306,5.516,5.516,0,0,0,1.064-2.442,5.585,5.585,0,0,0-.051-2.178,3.132,3.132,0,0,0-1.3-2.047,1.839,1.839,0,0,0-.872-.235" transform="translate(-157.011 -9.421)" fill="#0d2952"/>
          <path id="Tracciato_65" data-name="Tracciato 65" d="M556.316,47.912H499.782A10.308,10.308,0,0,0,500,49.155h64.287a10.417,10.417,0,0,0,.216-1.243h-8.185Z" transform="translate(-152.122 -14.583)" fill="#fff"/>
          <path id="Tracciato_66" data-name="Tracciato 66" d="M564.411,49.389H499.465l-.074-.321a10.856,10.856,0,0,1-.225-1.292l-.05-.459h65.62l-.025.459a10.844,10.844,0,0,1-.225,1.292Zm-64.283-.829h63.619q.043-.211.076-.414h-63.77c.022.136.047.273.076.414" transform="translate(-151.92 -14.402)" fill="#fff"/>
          <rect id="Rettangolo_18" data-name="Rettangolo 18" width="13.803" height="82.817" transform="translate(172.615 6.754)" fill="#fff"/>
          <rect id="Rettangolo_19" data-name="Rettangolo 19" width="13.803" height="82.817" transform="translate(186.406 6.754)" fill="#5d8bc9"/>
          <rect id="Rettangolo_20" data-name="Rettangolo 20" width="13.803" height="82.817" transform="translate(200.221 6.754)" fill="#0d2952"/>
          <rect id="Rettangolo_21" data-name="Rettangolo 21" width="13.803" height="82.817" transform="translate(214.024 6.754)" fill="#5d8bc9"/>
          <rect id="Rettangolo_22" data-name="Rettangolo 22" width="13.803" height="82.817" transform="translate(227.827 6.754)" fill="#fff"/>
          <rect id="Rettangolo_23" data-name="Rettangolo 23" width="13.803" height="82.817" transform="translate(241.63 6.754)" fill="#0d2952"/>
          <path id="Tracciato_67" data-name="Tracciato 67" d="M540.53,200.6s-14.753-5.63-9.408-25.015c0,0-4.632,9.265-2.138,15.679S536.823,199.531,540.53,200.6Z" transform="translate(-160.786 -53.444)" fill="none" stroke="#fff" stroke-miterlimit="10" stroke-width="2"/>
          <path id="Tracciato_68" data-name="Tracciato 68" d="M559.039,198.483a21.684,21.684,0,0,1-43,0,21.682,21.682,0,1,0,43,0" transform="translate(-157.014 -60.414)" fill="#5d8bc9"/>
          <path id="Tracciato_69" data-name="Tracciato 69" d="M539.941,195.514a15.338,15.338,0,0,0,2.5-.2A17.2,17.2,0,0,0,555.783,183.3c1.121-4.026.852-8.348-.822-13.213-2.437-7.081-7.035-12.9-11.176-19.021q-1.052-1.555-2.1-3.115c-.2-.3-2.133-2.821-2-3.016-2.7,4.1-5.541,8.106-8.247,12.2-2.717,4.116-5.414,8.259-7.028,12.948-1.674,4.865-1.944,9.188-.822,13.213a17.375,17.375,0,0,0,16.356,12.217M529.5,166.255c-5.345,19.385,9.408,25.015,9.408,25.015-3.706-1.069-9.051-2.922-11.546-9.336s2.138-15.679,2.138-15.679" transform="translate(-159.161 -44.114)" fill="#0d2952"/>
          <path id="Tracciato_70" data-name="Tracciato 70" d="M539.941,195.514a15.338,15.338,0,0,0,2.5-.2A17.2,17.2,0,0,0,555.783,183.3c1.121-4.026.852-8.348-.822-13.213-2.437-7.081-7.035-12.9-11.176-19.021q-1.052-1.555-2.1-3.115c-.2-.3-2.133-2.821-2-3.016-2.7,4.1-5.541,8.106-8.247,12.2-2.717,4.116-5.414,8.259-7.028,12.948-1.674,4.865-1.944,9.188-.822,13.213A17.375,17.375,0,0,0,539.941,195.514ZM529.5,166.255c-5.345,19.385,9.408,25.015,9.408,25.015-3.706-1.069-9.051-2.922-11.546-9.336S529.5,166.255,529.5,166.255Z" transform="translate(-159.161 -44.114)" fill="none" stroke="#fff" stroke-miterlimit="10" stroke-width="2"/>
          <path id="Tracciato_71" data-name="Tracciato 71" d="M80.034,508.967a15.321,15.321,0,0,0,3.5,4.875,33.46,33.46,0,0,0,4.924,3.791c1.674,1.124,3.357,2.19,5.03,3.317a10.747,10.747,0,0,1-.272-1.46q-.139-.758-.275-1.513A46.3,46.3,0,0,0,90.872,509a15.334,15.334,0,0,0-3.1-5.136c-1.919-2.026-4.471-3.028-6.207-2.436a2.875,2.875,0,0,0-.651.319c-1.774,1.17-2.151,4.274-.876,7.219" transform="translate(-24.131 -152.572)" fill="#0d2952"/>
          <path id="Tracciato_72" data-name="Tracciato 72" d="M58.635,523.182a12.5,12.5,0,0,0,4.424,2.121,24.9,24.9,0,0,0,4.877.712c1.585.12,3.152.193,4.738.314a9.846,9.846,0,0,1-.819-.966q-.423-.5-.844-1a42.427,42.427,0,0,0-5.293-5.769,12.8,12.8,0,0,0-4.281-2.483c-2.142-.685-4.246-.339-5.118.839a2.238,2.238,0,0,0-.285.513c-.643,1.622.476,4.082,2.6,5.721" transform="translate(-17 -156.985)" fill="#0d2952"/>
          <path id="Tracciato_73" data-name="Tracciato 73" d="M80.91,581.152a2.878,2.878,0,0,0,.651.319c1.736.592,4.289-.41,6.207-2.436a15.322,15.322,0,0,0,3.1-5.136,46.3,46.3,0,0,0,2.067-8.976q.137-.757.275-1.513a10.745,10.745,0,0,1,.272-1.46c-1.673,1.126-3.356,2.193-5.03,3.317a33.488,33.488,0,0,0-4.924,3.791,15.32,15.32,0,0,0-3.5,4.875c-1.274,2.945-.9,6.049.876,7.219" transform="translate(-24.131 -171.045)" fill="#0d2952"/>
          <path id="Tracciato_74" data-name="Tracciato 74" d="M56.034,569.43a2.279,2.279,0,0,0,.285.513c.872,1.178,2.977,1.523,5.118.839a12.79,12.79,0,0,0,4.281-2.483,42.431,42.431,0,0,0,5.294-5.769q.42-.5.844-1a9.962,9.962,0,0,1,.819-.966c-1.586.121-3.153.195-4.738.315a24.933,24.933,0,0,0-4.876.711,12.518,12.518,0,0,0-4.425,2.122c-2.125,1.639-3.243,4.1-2.6,5.722" transform="translate(-17.001 -170.622)" fill="#0d2952"/>
          <path id="Tracciato_75" data-name="Tracciato 75" d="M87.938,299.811v0H22.474v0l32.22,37.715v39.91H38.58c-.207,0-.375.229-.375.512s.168.513.375.513H71.831c.207,0,.375-.23.375-.513s-.168-.512-.375-.512H55.718v-39.91Z" transform="translate(-6.841 -91.254)" fill="#5d8bc9"/>
          <path id="Tracciato_76" data-name="Tracciato 76" d="M33.764,299.807l20.929,37.719-32.22-37.715Z" transform="translate(-6.84 -91.254)" fill="#0d2952"/>
          <path id="Tracciato_77" data-name="Tracciato 77" d="M91.193,299.807,70.264,337.526l32.22-37.715Z" transform="translate(-21.387 -91.254)" fill="#0d2952"/>
          <path id="Tracciato_78" data-name="Tracciato 78" d="M41.458,299.807l17.825,37.087L38.7,299.807Z" transform="translate(-11.781 -91.254)" fill="#fff"/>
          <path id="Tracciato_79" data-name="Tracciato 79" d="M34.431,456.49v.168h-1.11a.935.935,0,0,0-.7.293.99.99,0,0,0-.282.712v13.49h-.189a2.378,2.378,0,0,1-1.236-.524,16.674,16.674,0,0,1-1.665-1.351q-.911-.827-1.916-1.9T25.361,465.2q-2.283-2.6-4.86-5.907V469.98a.991.991,0,0,0,.283.713.935.935,0,0,0,.7.293H22.6v.168H18.239v-.168h1.089a1,1,0,0,0,1.005-1.006V459.15l-.858-.879a9.4,9.4,0,0,0-.911-.776,7.785,7.785,0,0,0-.764-.5,3.231,3.231,0,0,0-.712-.335v-.168h4.524a4.067,4.067,0,0,1,1.006.189,8.2,8.2,0,0,1,1.047.429,5.617,5.617,0,0,1,1.215.828q.628.545,1.372,1.267t1.5,1.529q.754.807,1.477,1.634t1.32,1.55q.6.722,1.016,1.3a8.42,8.42,0,0,1,.586.89v-8.442a.99.99,0,0,0-.283-.712.935.935,0,0,0-.7-.293H30.053v-.168h4.378Z" transform="translate(-5.201 -138.945)" fill="#5d8bc9"/>
          <path id="Tracciato_80" data-name="Tracciato 80" d="M53.171,471.153a4.962,4.962,0,0,1-1.958-.346,4.184,4.184,0,0,1-1.4-.974,6.124,6.124,0,0,1-1.037-1.519q-.439-.889-.879-1.979H43.264l-1.089,3.833a.434.434,0,0,0-.021.136v.136a.6.6,0,0,0,.125.387.506.506,0,0,0,.419.157h1.11v.168H39.43v-.168h1.194a1.392,1.392,0,0,0,.786-.262,1.234,1.234,0,0,0,.513-.7l3.205-10.578q-.231-.4-.534-.89a7.45,7.45,0,0,0-.66-.911,4.558,4.558,0,0,0-.733-.7,1.23,1.23,0,0,0-.733-.282v-.168h3.792a3.17,3.17,0,0,1,1.372.282,4,4,0,0,1,1.048.712,4.573,4.573,0,0,1,.764.953,7.355,7.355,0,0,1,.5.985q.314.753.68,1.654t.776,1.875q.408.974.827,1.958t.8,1.886q.9,2.136,1.843,4.357Zm-9.845-4.986h4.483L45.253,459.8Z" transform="translate(-12.002 -138.945)" fill="#5d8bc9"/>
          <path id="Tracciato_81" data-name="Tracciato 81" d="M70.586,471.153h-8.9v-.168h1.864V456.658H61.683v-.168H74.838v4.88h-.189c0-.307-.007-.586-.021-.837a3.661,3.661,0,0,0-.115-.733,4.13,4.13,0,0,0-.282-.744,6.744,6.744,0,0,0-.524-.87,3.992,3.992,0,0,0-.775-.859,2.744,2.744,0,0,0-.849-.461,3.879,3.879,0,0,0-.963-.178q-.513-.031-1.079-.031H68.365v6.871h.9q.377,0,.712-.021a2.555,2.555,0,0,0,.628-.116,1.847,1.847,0,0,0,.545-.282,2.236,2.236,0,0,0,.482-.524,5.525,5.525,0,0,0,.566-1.048,3.084,3.084,0,0,0,.209-1.152h.168v6.452h-.168a3.177,3.177,0,0,0-.2-1.132,5.06,5.06,0,0,0-.576-1.068,1.841,1.841,0,0,0-1.016-.775,4.994,4.994,0,0,0-1.351-.168h-.9v7.269l2.22.021Z" transform="translate(-18.775 -138.945)" fill="#5d8bc9"/>
          <path id="Tracciato_82" data-name="Tracciato 82" d="M95.492,456.49v5.467H95.3a4.751,4.751,0,0,0-.335-1.78,10.29,10.29,0,0,0-1.005-1.843,5.178,5.178,0,0,0-.733-.87,3.441,3.441,0,0,0-.691-.5,2.13,2.13,0,0,0-.649-.231,3.723,3.723,0,0,0-.608-.052v14.307h2.095v.168h-8.8v-.168h2.1V456.679a4.509,4.509,0,0,0-.65.052,2.82,2.82,0,0,0-.733.22,3.69,3.69,0,0,0-.775.482,3.554,3.554,0,0,0-.754.859,6.762,6.762,0,0,0-.911,1.843,6.41,6.41,0,0,0-.241,1.78H82.4V456.49Z" transform="translate(-25.081 -138.945)" fill="#5d8bc9"/>
          <path id="Tracciato_83" data-name="Tracciato 83" d="M113.516,471.153a4.962,4.962,0,0,1-1.958-.346,4.184,4.184,0,0,1-1.4-.974,6.124,6.124,0,0,1-1.037-1.519q-.439-.889-.879-1.979h-4.629l-1.089,3.833a.434.434,0,0,0-.021.136v.136a.6.6,0,0,0,.125.387.506.506,0,0,0,.419.157h1.11v.168H99.775v-.168h1.194a1.392,1.392,0,0,0,.786-.262,1.234,1.234,0,0,0,.513-.7l3.205-10.578q-.231-.4-.534-.89a7.451,7.451,0,0,0-.66-.911,4.558,4.558,0,0,0-.733-.7,1.23,1.23,0,0,0-.733-.282v-.168H106.6a3.17,3.17,0,0,1,1.372.282,4,4,0,0,1,1.048.712,4.572,4.572,0,0,1,.764.953,7.354,7.354,0,0,1,.5.985q.314.753.68,1.654t.776,1.875q.408.974.827,1.958t.8,1.886q.9,2.136,1.843,4.357Zm-9.845-4.986h4.483L105.6,459.8Z" transform="translate(-30.369 -138.945)" fill="#5d8bc9"/>
          <path id="Tracciato_84" data-name="Tracciato 84" d="M315.011,470h-24.09l-2-.006c4.377-2.252,9.016-5.16,9.016-8.326,0-3.142-2.6-6.032-6.922-8.278h21.9c-4.325,2.246-6.922,5.136-6.922,8.278,0,3.166,4.643,6.08,9.026,8.332" transform="translate(-87.94 -138.002)" fill="#0d2952"/>
          <rect id="Rettangolo_24" data-name="Rettangolo 24" width="8.867" height="8.867" transform="matrix(0.954, -0.3, 0.3, 0.954, 194.705, 287.685)" fill="#c8d1dc"/>
          <rect id="Rettangolo_25" data-name="Rettangolo 25" width="11.196" height="11.196" transform="translate(220.086 298.275) rotate(-73.074)" fill="#c8d1dc"/>
          <rect id="Rettangolo_26" data-name="Rettangolo 26" width="10.15" height="10.151" transform="translate(205.9 297.251) rotate(-55.586)" fill="#c8d1dc"/>
          <rect id="Rettangolo_27" data-name="Rettangolo 27" width="10.099" height="10.099" transform="translate(195.484 296.863) rotate(-5.284)" fill="#c8d1dc"/>
          <path id="Tracciato_85" data-name="Tracciato 85" d="M450.018,453.666H367.2v-74.4l82.817,30.917Z" transform="translate(-111.767 -115.44)" fill="#5d8bc9"/>
          <path id="Tracciato_86" data-name="Tracciato 86" d="M444.153,44.614A34.434,34.434,0,1,1,400.972,22.1a34.434,34.434,0,0,1,43.181,22.51" transform="translate(-114.709 -6.242)" fill="#fff"/>
          <path id="Tracciato_87" data-name="Tracciato 87" d="M444.153,44.614A34.434,34.434,0,1,1,400.972,22.1,34.434,34.434,0,0,1,444.153,44.614Z" transform="translate(-114.709 -6.242)" fill="none" stroke="#0d2952" stroke-miterlimit="10" stroke-width="1"/>
          <path id="Tracciato_88" data-name="Tracciato 88" d="M411.178,83.743a.054.054,0,0,0-.04.077l3.717,11.813-1.462.46L409.675,84.28a.054.054,0,0,0-.077-.04l-1.6.5a.054.054,0,0,0-.04.077q.909,2.89,1.8,5.753t1.8,5.751c.045.143.1.292.151.447a1.361,1.361,0,0,0,.223.4,1.763,1.763,0,0,0,.953.645,2.031,2.031,0,0,0,1.145-.039l1.423-.447a1.564,1.564,0,0,0,.767-.52,1.852,1.852,0,0,0,.386-.851,1.276,1.276,0,0,0-.016-.6c-.052-.212-.108-.41-.165-.591l-3.612-11.479a.053.053,0,0,0-.076-.04Z" transform="translate(-124.172 -25.339)" fill="#5d8bc9"/>
          <path id="Tracciato_89" data-name="Tracciato 89" d="M415.569,105.593l.032.017-.034-.024Z" transform="translate(-126.489 -32.138)" fill="#fff"/>
          <path id="Tracciato_90" data-name="Tracciato 90" d="M441.368,33.648a2.358,2.358,0,0,0-.38-.715,2.451,2.451,0,0,0-.616-.579,2.8,2.8,0,0,0-.762-.347,2.2,2.2,0,0,0-.8-.088,3.06,3.06,0,0,0-.6.126l-.579.182-1.864.587a1.636,1.636,0,0,0-.6.359,2.83,2.83,0,0,0-.5.589,3.244,3.244,0,0,0-.336.708,2.108,2.108,0,0,0-.125.689,3.084,3.084,0,0,0,.149.819c.1.359.184.633.243.819q1.107,3.517,2.2,6.958t2.2,6.957a2.4,2.4,0,0,0,.979,1.283,2.334,2.334,0,0,0,1.574.417,3.028,3.028,0,0,0,.582-.122l.565-.177,1.892-.6a2,2,0,0,0,1.2-1.059,2.764,2.764,0,0,0,.325-1.586,2.85,2.85,0,0,0-.149-.618q-.107-.29-.2-.6Zm-4.53,1.518,1.688-.531,1.818,11.67Zm6.729,14.018-1.631.513q-.464-2.852-.9-5.667t-.874-5.676Z" transform="translate(-132.163 -9.713)" fill="#5d8bc9"/>
          <path id="Tracciato_91" data-name="Tracciato 91" d="M440.286,80.433a.033.033,0,0,0,.024-.047l-.3-.954a.033.033,0,0,0-.047-.024l-1.32.415-2.247-7.14a.033.033,0,0,0-.047-.024l-.966.3a.033.033,0,0,0-.025.047l2.559,8.13a.033.033,0,0,0,.047.024Z" transform="translate(-132.513 -22.115)" fill="#5d8bc9"/>
          <path id="Tracciato_92" data-name="Tracciato 92" d="M401.571,90.559l.091.014,1.481-.465.047-.058a.082.082,0,0,1-.006-.052.076.076,0,0,0-.006-.051c-.036-.116-.077-.257-.122-.422s-.1-.335-.15-.511-.111-.343-.168-.5a2.622,2.622,0,0,0-.181-.4,1.654,1.654,0,0,0-.623-.618,1.992,1.992,0,0,0-.829-.253,1.355,1.355,0,0,0-.447.045c-.152.04-.3.083-.442.128s-.289.094-.435.148-.292.1-.435.147a2.5,2.5,0,0,0-1.333.87,1.7,1.7,0,0,0-.111,1.556l1.134,3.606c.041.13.085.259.133.387a1.076,1.076,0,0,0,.2.342,1.847,1.847,0,0,0,.609.473,1.788,1.788,0,0,0,.737.2,1.744,1.744,0,0,0,.463-.061c.192-.047.354-.09.483-.131q.292-.092.582-.194c.193-.067.387-.132.582-.193l-.052.038,1.448,4.6-1.462.46-1.092-3.469c-.06-.053-.1-.075-.128-.067L400,96.6a.055.055,0,0,0-.04.077l1.123,3.567a1.692,1.692,0,0,0,.824,1.016,1.585,1.585,0,0,0,1.291.119l1.188-.374a5.626,5.626,0,0,0,.82-.323,1.39,1.39,0,0,0,.592-.636,1.531,1.531,0,0,0,.208-.836,3.982,3.982,0,0,0-.179-.844l-1.258-4c-.057-.182-.129-.377-.216-.584a1.61,1.61,0,0,0-.321-.51,1.666,1.666,0,0,0-.816-.451,1.767,1.767,0,0,0-.941.04l-1.5.472-.006-.02-1.2-3.82-.006-.019L401,89.024l.026.014.466,1.481a.054.054,0,0,0,.077.04" transform="translate(-121.073 -26.552)" fill="#5d8bc9"/>
          <path id="Tracciato_93" data-name="Tracciato 93" d="M429.115,68.265l.045.047.038.006a.424.424,0,0,0-.083-.054" transform="translate(-130.613 -20.778)" fill="#fff"/>
          <path id="Tracciato_94" data-name="Tracciato 94" d="M391.792,56.728l-.027.051q.033,1.483.068,2.931t.088,2.926l-3.227-4.891-.071-.022-1.594.5a.055.055,0,0,0-.041.078l4.262,13.543a.054.054,0,0,0,.077.041l1.6-.5a.054.054,0,0,0,.04-.077l-2.3-7.3,3.111,4.711c.008.026.032.033.072.021s.055-.032.047-.058l-.159-5.662,2.3,7.324c.013.039.031.054.058.046l1.615-.508a.055.055,0,0,0,.04-.078L393.484,56.26a.054.054,0,0,0-.077-.04Z" transform="translate(-117.789 -17.111)" fill="#5d8bc9"/>
          <path id="Tracciato_95" data-name="Tracciato 95" d="M455.942,82.321l-.016.031q.02.89.04,1.759t.053,1.756l-1.936-2.935-.042-.013-.957.3a.033.033,0,0,0-.024.047l2.557,8.126a.033.033,0,0,0,.047.024l.957-.3a.032.032,0,0,0,.024-.046l-1.382-4.382,1.866,2.827c0,.015.019.019.042.013s.033-.019.029-.035l-.1-3.4,1.383,4.394c.008.024.019.033.035.028l.968-.3a.032.032,0,0,0,.024-.047l-2.556-8.126a.033.033,0,0,0-.047-.024Z" transform="translate(-137.9 -24.963)" fill="#5d8bc9"/>
          <path id="Tracciato_96" data-name="Tracciato 96" d="M427.418,45.1a1.95,1.95,0,0,0-1.31-.529,4.967,4.967,0,0,0-1.409.241l-1.771.557-1.743-5.541,3.881-1.222a.078.078,0,0,0,.058-.111l-.717-2.278a.078.078,0,0,0-.111-.058l-6.244,1.964a.078.078,0,0,0-.058.111l3.23,10.267a.078.078,0,0,0,.111.056l4.473-1.407,2.1,6.667-2.109.664-.691-2.194a.078.078,0,0,0-.111-.058l-2.279.717a.079.079,0,0,0-.058.111l.691,2.194a2.381,2.381,0,0,0,1.3,1.615,2.979,2.979,0,0,0,2.089.008l1.716-.54a2.715,2.715,0,0,0,1.813-1.359,3.175,3.175,0,0,0-.017-2.267l-1.938-6.159a3.811,3.811,0,0,0-.342-.789,2.95,2.95,0,0,0-.549-.663" transform="translate(-127.226 -11.004)" fill="#5d8bc9"/>
          <path id="Tracciato_97" data-name="Tracciato 97" d="M424.2,93.28l-3.717-11.813a.053.053,0,0,0-.077-.04l-1.6.5a.054.054,0,0,0-.04.077L423,95.457a.054.054,0,0,0,.077.04l3.84-1.208a.054.054,0,0,0,.04-.077l-.5-1.578a.055.055,0,0,0-.077-.04Z" transform="translate(-127.461 -24.783)" fill="#5d8bc9"/>
          <path id="Tracciato_98" data-name="Tracciato 98" d="M409.831,42.593a2.3,2.3,0,0,0-1.344-.783,3.669,3.669,0,0,0-1.565.184l-1.688.531a2.572,2.572,0,0,0-1.813,1.405,3.57,3.57,0,0,0,.082,2.324l.557,1.772a.079.079,0,0,0,.111.057l2.306-.726a.078.078,0,0,0,.058-.11l-.7-2.223,2.11-.664,2.1,6.665-1.66.522-.591.186a2.371,2.371,0,0,0-.564.271,2.538,2.538,0,0,0-.949,1.21,2.6,2.6,0,0,0-.1,1.561l.195.618,2.336,7.425a.078.078,0,0,0,.111.058l6.862-2.159a.079.079,0,0,0,.058-.111l-.717-2.277a.077.077,0,0,0-.111-.058l-4.472,1.407L408.7,54.138q.224-.07.623-.181t.834-.247c.291-.092.574-.191.849-.3a2.916,2.916,0,0,0,.639-.326,2.034,2.034,0,0,0,.89-1.346,3.37,3.37,0,0,0-.1-1.652l-1.921-6.1q-.124-.394-.268-.751a1.965,1.965,0,0,0-.418-.641" transform="translate(-122.744 -12.719)" fill="#5d8bc9"/>
          <path id="Tracciato_99" data-name="Tracciato 99" d="M393.664,55.583a.433.433,0,0,0-.319-.257.907.907,0,0,0-.422.035l-2.048.644q0,.758,0,1.514c0,.5.007,1.008.021,1.508l-.623-.951-1.313-.885a.778.778,0,0,0-.363-.265.663.663,0,0,0-.45-.063l-1.586.5a.6.6,0,0,0-.442.853l4.268,13.563a.929.929,0,0,0,.18.333.476.476,0,0,0,.339.153l1.146.7a.622.622,0,0,0,.525.03l1.587-.5a.546.546,0,0,0,.4-.776l-.75-2.382a2.458,2.458,0,0,1,.229.144c.1.07.209.136.323.2a2.055,2.055,0,0,0,.353.159.488.488,0,0,0,.3.024c.021.066.044.152.071.259a2.482,2.482,0,0,0,.1.315.827.827,0,0,0,.158.264.317.317,0,0,0,.25.106l1.176.712a.436.436,0,0,0,.283.04,2.1,2.1,0,0,0,.271-.063l1.615-.508a.547.547,0,0,0,.4-.776l-4.268-13.565a.712.712,0,0,0-.326-.416Zm3.8,13.947a.054.054,0,0,1-.04.078l-1.615.508c-.026.008-.045-.007-.058-.046l-2.3-7.324.159,5.662c.008.026-.008.046-.047.058s-.063.006-.072-.02l-3.11-4.712,2.3,7.3a.054.054,0,0,1-.04.077l-1.6.5a.055.055,0,0,1-.078-.04L386.71,58.031a.054.054,0,0,1,.04-.078l1.6-.5.07.021,3.228,4.891q-.054-1.476-.088-2.926t-.068-2.932l.026-.051,1.615-.508a.055.055,0,0,1,.078.041Z" transform="translate(-117.511 -16.837)" fill="#0d2952"/>
          <path id="Tracciato_100" data-name="Tracciato 100" d="M411.76,42.71a4.7,4.7,0,0,0-.764-.563c-.292-.176-.646-.394-1.057-.657a.493.493,0,0,1-.152-.138.5.5,0,0,0-.152-.138,3.151,3.151,0,0,0-1.6-.67,4.512,4.512,0,0,0-1.785.221l-1.688.531a4.214,4.214,0,0,0-1.9,1.138,3.428,3.428,0,0,0-.655,2.879c.066.31.149.623.249.942s.2.627.306.924.186.54.246.728a1.273,1.273,0,0,0,.258.474.782.782,0,0,0,.493.246l1.615,1.007a.9.9,0,0,0,.755.04l2.25-.708.345,1.1-1.125.354a4.726,4.726,0,0,0-1.089.467,3.019,3.019,0,0,0-.759.732,4.346,4.346,0,0,0-.524.938,3.322,3.322,0,0,0-.232,1.032,2.892,2.892,0,0,0,.127,1.042l2.54,8.072a1.622,1.622,0,0,0,.248.494.547.547,0,0,0,.495.2l1.625,1.034a.9.9,0,0,0,.755.041l6.862-2.159a.781.781,0,0,0,.578-1.109l-.717-2.279a1.922,1.922,0,0,0-.12-.287.708.708,0,0,0-.234-.251l-1.624-1.034a.726.726,0,0,0-.479-.343,1.194,1.194,0,0,0-.607.036l-2.306.726-.716-2.279c.356-.112.765-.234,1.228-.371a3.919,3.919,0,0,0,1.174-.54,2.812,2.812,0,0,0,1.2-1.752,4.135,4.135,0,0,0-.1-2.147l-1.92-6.1a6.1,6.1,0,0,0-.47-1.151,2.974,2.974,0,0,0-.567-.719m.27,6.994a3.388,3.388,0,0,1,.1,1.652,2.031,2.031,0,0,1-.89,1.347,2.921,2.921,0,0,1-.639.325c-.275.108-.558.206-.849.3s-.569.174-.835.247-.474.134-.623.182l1.743,5.541,4.472-1.407a.079.079,0,0,1,.111.058l.716,2.278a.078.078,0,0,1-.058.111l-6.862,2.16a.078.078,0,0,1-.111-.058l-2.337-7.425-.195-.618a2.612,2.612,0,0,1,.1-1.561,2.541,2.541,0,0,1,.949-1.21,2.372,2.372,0,0,1,.564-.271l.591-.186,1.66-.522-2.1-6.665-2.11.664.7,2.223a.078.078,0,0,1-.058.111l-2.306.726a.078.078,0,0,1-.111-.057l-.558-1.772a3.58,3.58,0,0,1-.081-2.324,2.573,2.573,0,0,1,1.814-1.4l1.687-.531a3.667,3.667,0,0,1,1.565-.183,2.291,2.291,0,0,1,1.343.782,1.954,1.954,0,0,1,.418.641c.1.238.186.489.268.751Z" transform="translate(-122.336 -12.336)" fill="#0d2952"/>
          <path id="Tracciato_101" data-name="Tracciato 101" d="M429.564,45.422a5.474,5.474,0,0,0-.76-.55l-.993-.6a.513.513,0,0,1-.115-.119.478.478,0,0,0-.114-.118,2.63,2.63,0,0,0-.97-.529,3.945,3.945,0,0,0-1.059-.223,2.677,2.677,0,0,0-.556.051l-.566.116-.716-2.277,3.121-.982a.781.781,0,0,0,.578-1.109L426.7,36.8a1.778,1.778,0,0,0-.121-.287.7.7,0,0,0-.234-.251l-1.624-1.034a.734.734,0,0,0-.479-.343,1.2,1.2,0,0,0-.607.036l-6.244,1.964a.86.86,0,0,0-.636,1.221l3.23,10.266a1.3,1.3,0,0,0,.257.474.793.793,0,0,0,.5.246l1.615,1.007a.9.9,0,0,0,.754.04l2.223-.7.717,2.279-.619-.394a.792.792,0,0,0-.483-.358,1.111,1.111,0,0,0-.611.022l-2.279.717a.86.86,0,0,0-.636,1.22l.637,2.025c.065.207.138.425.222.657a2.292,2.292,0,0,0,.335.62,5.856,5.856,0,0,0,.551.569,3.03,3.03,0,0,0,.635.449l.223.069a.641.641,0,0,1,.2.106q.306.183.577.359t.577.36l-.045-.047a.425.425,0,0,1,.083.054l-.038-.006.149.078a2.364,2.364,0,0,0,1.465.481,5.338,5.338,0,0,0,1.514-.245l1.716-.54a4.4,4.4,0,0,0,1.742-1,2.88,2.88,0,0,0,.842-1.795l-.038-.019a2.63,2.63,0,0,0-.006-.956q-.092-.435-.241-.913l-1.921-6.1a4.486,4.486,0,0,0-.444-1.019,3.057,3.057,0,0,0-.591-.695m.285,6.9a3.175,3.175,0,0,1,.018,2.267,2.719,2.719,0,0,1-1.813,1.359l-1.716.54a2.981,2.981,0,0,1-2.09-.008,2.379,2.379,0,0,1-1.3-1.615l-.69-2.194a.078.078,0,0,1,.058-.111l2.279-.717a.079.079,0,0,1,.111.058l.69,2.194,2.11-.664-2.1-6.667-4.473,1.407a.077.077,0,0,1-.111-.056L417.6,37.843a.078.078,0,0,1,.058-.111l6.244-1.964a.078.078,0,0,1,.111.058l.716,2.278a.078.078,0,0,1-.058.111l-3.881,1.221,1.744,5.541,1.771-.557a4.958,4.958,0,0,1,1.408-.241,1.949,1.949,0,0,1,1.31.529,2.956,2.956,0,0,1,.549.663,3.849,3.849,0,0,1,.341.789Z" transform="translate(-126.829 -10.612)" fill="#0d2952"/>
          <path id="Tracciato_102" data-name="Tracciato 102" d="M437.989,36.357l3.5,11.138-1.817-11.669Z" transform="translate(-133.314 -10.905)" fill="#0d2952"/>
          <path id="Tracciato_103" data-name="Tracciato 103" d="M443.675,34.255a2.755,2.755,0,0,0-.62-1.088,4.731,4.731,0,0,0-.989-.787l.009.029a14.417,14.417,0,0,1-1.314-.884,4.7,4.7,0,0,0-1.011-.609,2.9,2.9,0,0,0-1.121-.22,5.57,5.57,0,0,0-1.632.313l-1.913.6a2.144,2.144,0,0,0-.806.486,4.207,4.207,0,0,0-.676.8,4.59,4.59,0,0,0-.473.953,2.573,2.573,0,0,0-.17.934,2.248,2.248,0,0,0,.062.492q.065.3.152.632t.185.637q.1.31.159.506,1.072,3.4,2.147,6.773t2.147,6.775a3.111,3.111,0,0,0,.61,1.106,3.591,3.591,0,0,0,.98.8,1.039,1.039,0,0,0,.258.135,1.828,1.828,0,0,1,.25.107c.253.147.509.3.766.47a6.593,6.593,0,0,0,.8.442,6.177,6.177,0,0,0,.843.323,2.183,2.183,0,0,0,.9.071,3.682,3.682,0,0,0,.65-.143l.633-.2,1.913-.6a2.406,2.406,0,0,0,.913-.534,3.587,3.587,0,0,0,.686-.865,3.744,3.744,0,0,0,.4-1.037,3.023,3.023,0,0,0,.055-1.053,3.189,3.189,0,0,0-.17-.688c-.087-.241-.162-.465-.227-.671ZM445.748,48.5a2.77,2.77,0,0,1-.324,1.586,1.994,1.994,0,0,1-1.2,1.058l-1.891.6-.565.178a3.093,3.093,0,0,1-.582.122,2.331,2.331,0,0,1-1.575-.418,2.389,2.389,0,0,1-.978-1.283q-1.107-3.515-2.205-6.957t-2.2-6.957c-.058-.186-.14-.46-.243-.819a3.144,3.144,0,0,1-.149-.819,2.108,2.108,0,0,1,.125-.689,3.3,3.3,0,0,1,.336-.709,2.812,2.812,0,0,1,.5-.588,1.628,1.628,0,0,1,.6-.359l1.864-.587.579-.182a3.1,3.1,0,0,1,.6-.125,2.217,2.217,0,0,1,.8.087,2.816,2.816,0,0,1,.761.348,2.44,2.44,0,0,1,.616.579,2.348,2.348,0,0,1,.38.714l4.407,14.008c.065.207.133.406.2.6a2.848,2.848,0,0,1,.149.618" transform="translate(-131.783 -9.343)" fill="#0d2952"/>
          <path id="Tracciato_104" data-name="Tracciato 104" d="M444.54,52.516,446.171,52l-3.407-10.829q.437,2.862.874,5.676t.9,5.667" transform="translate(-134.767 -12.532)" fill="#0d2952"/>
          <path id="Tracciato_105" data-name="Tracciato 105" d="M402.286,91.635a.62.62,0,0,0,.523.029l.09.015,1.481-.467a.534.534,0,0,0,.279-.236.794.794,0,0,0,.138-.344l.026.013a1.763,1.763,0,0,0-.119-.583c-.075-.191-.141-.377-.2-.56l-.172-.545a2.727,2.727,0,0,0-.23-.527l.019-.006a1.927,1.927,0,0,0-.724-.769l-.127-.077-.047-.029h0c-.249-.149-.5-.3-.742-.453a.5.5,0,0,1-.143-.116,1.019,1.019,0,0,0-.15-.134,2.382,2.382,0,0,0-1.33-.481,1.881,1.881,0,0,0-.553.045c-.179.043-.361.093-.543.15-.143.045-.289.093-.435.147s-.293.1-.435.148a4.733,4.733,0,0,0-.963.41,2.1,2.1,0,0,0-.718.783,2.311,2.311,0,0,0-.311.987,2.9,2.9,0,0,0,.147,1.014l1.135,3.607q.086.272.179.5a1.833,1.833,0,0,0,.271.451,2.131,2.131,0,0,0,.849.654.42.42,0,0,0,.141.073,1.033,1.033,0,0,1,.135.054,1.059,1.059,0,0,0,.16.1,1.446,1.446,0,0,1,.159.1q-.214.068-.422.122a1.215,1.215,0,0,0-.358.154.562.562,0,0,0-.215.271.731.731,0,0,0,.028.463l1.123,3.567a2.369,2.369,0,0,0,1.1,1.389.965.965,0,0,0,.218.081.558.558,0,0,1,.2.087,2.913,2.913,0,0,1,.386.243,4.505,4.505,0,0,0,.394.262l-.032-.033a2.06,2.06,0,0,0,1.934.291l1.189-.374a5.612,5.612,0,0,0,1.016-.416,1.879,1.879,0,0,0,.719-.815,2.683,2.683,0,0,0,.222-.552,1.906,1.906,0,0,0,.06-.49,2.256,2.256,0,0,0-.06-.5c-.038-.166-.089-.354-.154-.561l-1.258-4a5.192,5.192,0,0,0-.385-.918,1.911,1.911,0,0,0-.686-.716c-.034-.018-.1-.056-.186-.113s-.186-.116-.291-.176-.2-.116-.278-.169a.473.473,0,0,1-.127-.1,2.287,2.287,0,0,0-1.108-.625,2.363,2.363,0,0,0-1.281.049l-.264-.839Zm-1.548-2.876-1.442.454.006.02,1.2,3.82.006.019,1.5-.472a1.774,1.774,0,0,1,.941-.04,1.66,1.66,0,0,1,.816.451,1.606,1.606,0,0,1,.321.509c.087.208.159.4.216.585l1.258,4a4.024,4.024,0,0,1,.179.844,1.537,1.537,0,0,1-.209.836,1.39,1.39,0,0,1-.592.636,5.692,5.692,0,0,1-.819.322l-1.189.374a1.588,1.588,0,0,1-1.291-.119,1.692,1.692,0,0,1-.824-1.016L399.7,96.413a.053.053,0,0,1,.04-.076l1.541-.486c.026-.008.068.015.128.067l1.091,3.469,1.462-.461-1.448-4.6.052-.038c-.2.061-.389.127-.582.194s-.387.132-.582.194c-.129.04-.291.083-.483.13a1.681,1.681,0,0,1-.463.06,1.772,1.772,0,0,1-.736-.2,1.856,1.856,0,0,1-.61-.472,1.108,1.108,0,0,1-.2-.342c-.048-.129-.092-.257-.133-.387l-1.135-3.607a1.7,1.7,0,0,1,.111-1.556,2.5,2.5,0,0,1,1.333-.868c.143-.045.289-.094.435-.148s.292-.1.435-.148.291-.088.442-.127a1.339,1.339,0,0,1,.447-.045,1.992,1.992,0,0,1,.829.253,1.656,1.656,0,0,1,.623.618,2.579,2.579,0,0,1,.181.4c.057.161.113.328.168.5s.106.346.15.511.086.3.122.422a.077.077,0,0,1,0,.051.09.09,0,0,0,.006.053l-.047.056-1.481.467-.09-.014a.055.055,0,0,1-.077-.04l-.466-1.482Z" transform="translate(-120.808 -26.286)" fill="#0d2952"/>
          <path id="Tracciato_106" data-name="Tracciato 106" d="M414.383,83.707a1.2,1.2,0,0,0-.084-.2.485.485,0,0,0-.161-.175l-1.121-.718a.511.511,0,0,0-.33-.239.821.821,0,0,0-.419.025l-1.552.488c-.284.089-.44.217-.465.381a1.385,1.385,0,0,0,.077.618l-.428-.272a.547.547,0,0,0-.335-.248.779.779,0,0,0-.424.016l-1.6.5a.6.6,0,0,0-.441.845q.908,2.885,1.8,5.744t1.8,5.744a6.021,6.021,0,0,0,.225.615,1.84,1.84,0,0,0,.264.431,2.167,2.167,0,0,0,.364.346q.211.158.53.358l.9.552,0-.008.034.024a3.572,3.572,0,0,0,.993.422,1.99,1.99,0,0,0,1.11-.039,1.391,1.391,0,0,0,.152-.058,1.188,1.188,0,0,1,.152-.058l.962-.3a3.659,3.659,0,0,0,.815-.363,2.074,2.074,0,0,0,.609-.577,2.45,2.45,0,0,0,.363-.95l.026.013a1.827,1.827,0,0,0,0-.707,5.583,5.583,0,0,0-.165-.7q-.914-2.9-1.823-5.757t-1.823-5.757M416.151,94.5c.057.182.113.38.166.591a1.3,1.3,0,0,1,.016.6,1.86,1.86,0,0,1-.386.851,1.566,1.566,0,0,1-.768.52l-1.423.448a2.037,2.037,0,0,1-1.145.038,1.757,1.757,0,0,1-.952-.644,1.368,1.368,0,0,1-.223-.4q-.083-.231-.151-.446-.909-2.888-1.8-5.751t-1.8-5.753a.054.054,0,0,1,.04-.077l1.6-.5a.054.054,0,0,1,.077.04l3.717,11.813,1.462-.46L410.863,83.55a.054.054,0,0,1,.04-.077l1.56-.49a.054.054,0,0,1,.077.04Z" transform="translate(-123.897 -25.069)" fill="#0d2952"/>
          <path id="Tracciato_107" data-name="Tracciato 107" d="M415.573,105.607l.159.1-.131-.093c-.01-.007-.022-.01-.032-.017Z" transform="translate(-126.49 -32.141)" fill="#0d2952"/>
          <path id="Tracciato_108" data-name="Tracciato 108" d="M427.8,92.666l-1.126-.717a.511.511,0,0,0-.332-.239.837.837,0,0,0-.421.025l-.682.215-3.171-10.078a1.2,1.2,0,0,0-.084-.2.487.487,0,0,0-.162-.175l-1.125-.716a.505.505,0,0,0-.331-.238.829.829,0,0,0-.421.025l-1.6.5a.6.6,0,0,0-.441.845l4.232,13.451a.911.911,0,0,0,.179.33.471.471,0,0,0,.337.151l1.125.716a.622.622,0,0,0,.524.029l3.84-1.208a.543.543,0,0,0,.4-.769l-.5-1.579a1.358,1.358,0,0,0-.084-.2.485.485,0,0,0-.162-.173m-1.12,1.273a.054.054,0,0,1-.04.077l-3.84,1.208a.054.054,0,0,1-.077-.04L418.49,81.734a.053.053,0,0,1,.04-.076l1.6-.5a.054.054,0,0,1,.077.039l3.717,11.814,2.183-.687a.054.054,0,0,1,.077.04Z" transform="translate(-127.186 -24.511)" fill="#0d2952"/>
          <path id="Tracciato_109" data-name="Tracciato 109" d="M437.71,81.377l.68.433a.377.377,0,0,0,.317.017l2.322-.73a.328.328,0,0,0,.241-.465l-.3-.955a.752.752,0,0,0-.051-.12.3.3,0,0,0-.1-.105l-.68-.433a.312.312,0,0,0-.2-.144.5.5,0,0,0-.255.015l-.412.129-1.918-6.092a.659.659,0,0,0-.051-.12.3.3,0,0,0-.1-.106l-.68-.433a.31.31,0,0,0-.2-.143.5.5,0,0,0-.255.015l-.966.3a.361.361,0,0,0-.267.511l2.558,8.13a.563.563,0,0,0,.108.2.29.29,0,0,0,.2.091m-2.515-8.532a.032.032,0,0,1,.024-.047l.966-.3a.034.034,0,0,1,.047.024l2.246,7.141,1.32-.415a.033.033,0,0,1,.047.024l.3.954a.032.032,0,0,1-.024.046L437.8,81a.033.033,0,0,1-.047-.024Z" transform="translate(-132.347 -21.951)" fill="#0d2952"/>
          <path id="Tracciato_110" data-name="Tracciato 110" d="M457.066,81.635a.26.26,0,0,0-.191-.154.555.555,0,0,0-.253.022l-1.228.387V82.8q0,.454.013.905l-.374-.57-.787-.531a.471.471,0,0,0-.218-.159.4.4,0,0,0-.27-.038l-.952.3a.36.36,0,0,0-.266.512l2.561,8.138a.564.564,0,0,0,.108.2.289.289,0,0,0,.2.092l.687.419a.375.375,0,0,0,.316.018l.952-.3a.328.328,0,0,0,.241-.465l-.45-1.429a1.317,1.317,0,0,1,.137.087c.061.042.126.081.194.121a1.311,1.311,0,0,0,.212.1.292.292,0,0,0,.18.015c.012.04.027.091.043.155a1.483,1.483,0,0,0,.059.189.5.5,0,0,0,.1.159.189.189,0,0,0,.15.063l.705.427a.264.264,0,0,0,.17.024,1.289,1.289,0,0,0,.163-.038l.968-.3a.328.328,0,0,0,.243-.466l-2.561-8.139a.428.428,0,0,0-.2-.25ZM459.349,90a.033.033,0,0,1-.024.047l-.969.3c-.015,0-.027,0-.034-.027l-1.383-4.395.1,3.4c0,.016,0,.027-.029.035s-.038,0-.043-.013L455.1,86.525l1.382,4.382a.032.032,0,0,1-.024.046l-.957.3a.033.033,0,0,1-.047-.024L452.893,83.1a.033.033,0,0,1,.025-.047l.956-.3.042.013,1.936,2.935q-.032-.886-.052-1.756t-.041-1.759l.017-.031.968-.3a.033.033,0,0,1,.047.024Z" transform="translate(-137.734 -24.799)" fill="#0d2952"/>
          <path id="Tracciato_111" data-name="Tracciato 111" d="M451.08,75.392a.426.426,0,0,0,.032-.31l.28-1.188a.281.281,0,0,0-.1-.317l-.684-.483q-.266-.189-.659.366l-8.993,12.717c-.043.062-.086.128-.128.2a.866.866,0,0,0-.092.225l-.281,1.188a.7.7,0,0,0-.1.371.289.289,0,0,0,.113.218l.684.484q.293.207.724-.4l8.993-12.717a2.317,2.317,0,0,0,.209-.351m-.476.163-8.993,12.717c-.026.037-.048.049-.065.037l-.684-.484c-.018-.013-.013-.038.013-.074l8.993-12.717c.026-.037.047-.049.065-.037l.685.483c.017.013.013.038-.013.074" transform="translate(-134.034 -22.234)" fill="#0d2952"/>
          <path id="Tracciato_112" data-name="Tracciato 112" d="M450.084,75.886,441.091,88.6c-.026.037-.031.061-.013.074l.684.484c.017.013.04,0,.065-.037l8.993-12.717c.026-.037.031-.061.013-.074l-.685-.484c-.017-.013-.039,0-.065.037" transform="translate(-134.251 -23.085)" fill="#5d8bc9"/>
          <path id="Tracciato_113" data-name="Tracciato 113" d="M518.1,565.439l-12.873-53.26h55.351l-12.711,53.26Z" transform="translate(-153.779 -155.896)" fill="#5d8bc9"/>
          <path id="Tracciato_114" data-name="Tracciato 114" d="M523.92,555.41l-7.243-30.08H556.1l-7.145,30.051a10.418,10.418,0,0,1-10.126,8.023h-4.79a10.416,10.416,0,0,1-10.118-7.993" transform="translate(-157.265 -159.899)" fill="#0d2952"/>
          <path id="Tracciato_115" data-name="Tracciato 115" d="M523.92,555.41l-7.243-30.08H556.1l-7.145,30.051a10.418,10.418,0,0,1-10.126,8.023h-4.79A10.416,10.416,0,0,1,523.92,555.41Z" transform="translate(-157.265 -159.899)" fill="none" stroke="#fff" stroke-miterlimit="10" stroke-width="2.664"/>
          <path id="Tracciato_116" data-name="Tracciato 116" d="M428,428H0V0H428ZM6.956,421.044H421.044V6.956H6.956Z" fill="#0d2952"/>
          <path id="Tracciato_117" data-name="Tracciato 117" d="M381.46,573.535c.33,1.451,1.543,1.853,3.555,2.031H372.671c2.066-.178,3.251-.58,3.582-2.075v-49.07c-.358-1.406-1.543-2.209-3.555-2.365h8.845V524.4q-.042,23.8-.083,47.731Z" transform="translate(-113.433 -158.902)" fill="#0d2952"/>
          <path id="Tracciato_118" data-name="Tracciato 118" d="M409.8,529.932l.027,38.158a6.4,6.4,0,0,1-2.067,4.619,9.978,9.978,0,0,1-5.07,2.656,15.556,15.556,0,0,1-3.031.312,24.083,24.083,0,0,1-2.837-.246,9.47,9.47,0,0,1-3.858-1.54,5.388,5.388,0,0,1-2.783-4.351l.027-5.288h8.762c-2.067.267-3.251,1.2-3.582,2.789v4.4c0,1.584,1.24,2.677,2.893,3.146a6.115,6.115,0,0,0,1.681.246,5.177,5.177,0,0,0,3.279-1.049,3.511,3.511,0,0,0,1.185-2.3,20.657,20.657,0,0,0,.165-2.566V556.063a11.972,11.972,0,0,1-4.6.87,11.44,11.44,0,0,1-6.916-2.209,6.843,6.843,0,0,1-2.893-5.378V529.932a6.8,6.8,0,0,1,2.893-5.356,11.874,11.874,0,0,1,13.859,0,6.774,6.774,0,0,1,2.866,5.356m-5.18-3.37a2.893,2.893,0,0,0-1.378-2.365,5.563,5.563,0,0,0-6.5,0,2.862,2.862,0,0,0-1.35,2.365v25.929a3.076,3.076,0,0,0,1.35,2.522,5.563,5.563,0,0,0,6.5,0,3.381,3.381,0,0,0,1.349-2.142Z" transform="translate(-118.761 -158.99)" fill="#5d8bc9"/>
          <path id="Tracciato_119" data-name="Tracciato 119" d="M443.71,529.921v4.195a7.008,7.008,0,0,1-2.893,5.468,10.237,10.237,0,0,1-3.665,1.829,10.155,10.155,0,0,1,3.665,1.785,6.87,6.87,0,0,1,2.893,5.356v19.391a6.869,6.869,0,0,1-2.893,5.356,11.874,11.874,0,0,1-13.859,0,6.869,6.869,0,0,1-2.893-5.356V548.554a6.87,6.87,0,0,1,2.893-5.356,10.383,10.383,0,0,1,3.665-1.785,10.471,10.471,0,0,1-3.665-1.829,7.008,7.008,0,0,1-2.893-5.468v-4.195a6.967,6.967,0,0,1,2.893-5.445,11.686,11.686,0,0,1,13.859,0,6.967,6.967,0,0,1,2.893,5.445M438.5,526.73a3.155,3.155,0,0,0-1.35-2.566,5.514,5.514,0,0,0-6.53,0,3.155,3.155,0,0,0-1.35,2.566v10.823a2.966,2.966,0,0,0,1.35,2.41,5.617,5.617,0,0,0,3.279,1.026,5.535,5.535,0,0,0,3.251-1.026,2.966,2.966,0,0,0,1.35-2.41Zm0,18.678a3.078,3.078,0,0,0-1.35-2.522,5.707,5.707,0,0,0-6.53,0,3.078,3.078,0,0,0-1.35,2.522v25.885a2.928,2.928,0,0,0,1.35,2.387,5.605,5.605,0,0,0,6.53,0,2.928,2.928,0,0,0,1.35-2.387Z" transform="translate(-129.076 -158.946)" fill="#0d2952"/>
          <path id="Tracciato_120" data-name="Tracciato 120" d="M472.5,522.169q-3.431,17.706-6.144,35.815-1.2,7.732-2.452,15.375v.179c-.11,1.2,2.177,1.807,3.5,1.9H455.089c.744-.045,3.2-.558,3.637-2.075l8.432-50.364H461.4a10.535,10.535,0,0,0-5.346,1.495,4.641,4.641,0,0,0-2.479,3.839v-6.159Z" transform="translate(-138.058 -158.936)" fill="#5d8bc9"/>
          <path id="Tracciato_121" data-name="Tracciato 121" d="M408.493,494.824a2.306,2.306,0,0,1,.713-1.645,2.52,2.52,0,0,1,3.454,0,2.306,2.306,0,0,1,.713,1.645l-.007,2.858h-2.172a.927.927,0,0,0,.884-.808V493.8a.955.955,0,0,0-.336-.734,1.177,1.177,0,0,0-1.618,0,.954.954,0,0,0-.336.734v3.879c0,.391.549.754,1.241,1.159,1.042.63,2.372,1.48,2.372,2.913v3.413a2.293,2.293,0,0,1-.713,1.652,2.512,2.512,0,0,1-3.448,0,2.3,2.3,0,0,1-.72-1.652v-4h2.187a.934.934,0,0,0-.891.815V506.2a.958.958,0,0,0,.336.733,1.174,1.174,0,0,0,1.617,0,.965.965,0,0,0,.343-.733v-4.448a1.576,1.576,0,0,0-.569-1.008,6.766,6.766,0,0,0-1.124-.781,6.954,6.954,0,0,1-1.316-.933,1.9,1.9,0,0,1-.61-1.344Z" transform="translate(-124.336 -149.904)" fill="#0d2952"/>
          <path id="Tracciato_122" data-name="Tracciato 122" d="M418.965,492.494c-.514.062-.8.26-.891.72q0,5.542-.007,10.666c-.007.959-.007,1.96-.007,3,.083.445.384.569.884.624h-3.07c.514-.055.809-.179.891-.638v-13.64a.886.886,0,0,0-.884-.727Z" transform="translate(-126.583 -149.904)" fill="#0d2952"/>
          <path id="Tracciato_123" data-name="Tracciato 123" d="M420.374,507.508c.514-.048.8-.178.884-.624v-13.64c-.082-.466-.37-.665-.891-.72h2.241l3.311,13.935V493.25a.858.858,0,0,0-.884-.726h2.035a.871.871,0,0,0-.891.726l-.02,14.258h-1.323l-3.317-14.045v13.421c.082.46.377.576.891.624Z" transform="translate(-127.95 -149.913)" fill="#0d2952"/>
          <path id="Tracciato_124" data-name="Tracciato 124" d="M432.932,495.877a.927.927,0,0,0,.884-.809v-1.275a.985.985,0,0,0-.356-.76,1.2,1.2,0,0,0-.782-.281h-.02a1.166,1.166,0,0,0-.8.322,1.023,1.023,0,0,0-.336.774v12.339a.963.963,0,0,0,.336.733,1.188,1.188,0,0,0,.582.3l.268.02a1.212,1.212,0,0,0,.74-.329.926.926,0,0,0,.336-.726v-1.351a.941.941,0,0,0-.891-.8l2.207-.006V505.6a1.684,1.684,0,0,1-.686,1.344,2.671,2.671,0,0,1-1.638.555c-.089,0-.171-.007-.26-.014a2.459,2.459,0,0,1-1.57-.679,2.274,2.274,0,0,1-.72-1.651V494.815a2.3,2.3,0,0,1,.72-1.652,2.506,2.506,0,0,1,1.131-.6,2.83,2.83,0,0,1,.665-.082,2.949,2.949,0,0,1,.644.076,2.465,2.465,0,0,1,1.028.486,1.752,1.752,0,0,1,.693,1.337l.006,1.5Z" transform="translate(-130.953 -149.901)" fill="#0d2952"/>
          <path id="Tracciato_125" data-name="Tracciato 125" d="M439.312,501.391c-.007.555-.007,1.124-.007,1.693,0,1.323,0,2.707-.007,4.167h1.33a2.29,2.29,0,0,0,1.35-.473,1.541,1.541,0,0,0,.6-1.165v1.892H439.3v.007h-.061l-2.118-.007c.514-.048.8-.171.884-.617V493.3a.92.92,0,0,0-.884-.781l1.179-.007h1.021c1.083,0,2.166,0,3.256.007v1.892a1.542,1.542,0,0,0-.6-1.166,2.3,2.3,0,0,0-1.35-.473h-1.309q0,4.442-.007,8.377v.007l.7.007a1.306,1.306,0,0,0,.987-.411,2.129,2.129,0,0,0,.261-1.207v-.041c.006.583.013,1.172.013,1.755s-.007,1.172-.013,1.754v-.041a1.959,1.959,0,0,0-.268-1.185,1.273,1.273,0,0,0-.973-.384l-.706-.007Z" transform="translate(-133.049 -149.91)" fill="#0d2952"/>
          <path id="Tracciato_126" data-name="Tracciato 126" d="M399.883,461.406a44.531,44.531,0,0,0,7.281-.125c1.144-.079,4.236-.053,10.419,0,6.728.057,6.151.156,9.917.125,5.463-.044,5.481-.243,7.406,0,3.394.427,5.008,1.253,5.9.376.969-.953.675-3.513-.5-5.147-2.626-3.647-8.124-.562-20.839-1.883-6.6-.685-9.429-1.965-15.441-1.13-2,.278-1.312.367-7.155,1.507-4.812.938-7.133,1.24-9.415,3.138-1.343,1.118-2.568,2.7-2.259,3.139.2.279.919-.037,2.385-.251a31.407,31.407,0,0,1,3.515-.125c1.618-.016,3.484-.031,5.9.125,1.5.1,1.8.168,2.888.251" transform="translate(-117.23 -137.989)" fill="#0d2952"/>
          <path id="Tracciato_127" data-name="Tracciato 127" d="M376.873,458.967c-.078,1.268-.116,1.9.125,2.259.54.8,2.355.464,3.39.251a60.066,60.066,0,0,0,8.787-2.636,51.5,51.5,0,0,1,6.277-1.758,74.805,74.805,0,0,1,20.085-1.381,71.222,71.222,0,0,1,10.168,1.757c5.4,1.188,8.094,1.781,10.169,2.636a33.215,33.215,0,0,0,5.523,1.632c3.26.675,3.939.317,4.268,0,1.01-.972.621-3.37-.376-4.9-1.692-2.587-5.127-2.661-9.541-3.264-10.547-1.441-9.457-3.548-19.207-4.519a67.067,67.067,0,0,0-13.056,0c-9.017.876-7.539,2.574-19.332,4.9,0,0-6.723,1.324-7.156,3.766-.023.13-.088.65-.125,1.256" transform="translate(-114.693 -136.584)" fill="#fff"/>
          <path id="Tracciato_128" data-name="Tracciato 128" d="M445.272,438.181a12.015,12.015,0,0,0-1.169-1.612,11.288,11.288,0,0,0-3.139-2.344c-.446-.319-.942-.666-1.5-1.046-5.218-3.56-8.021-5.472-12.554-7.281-.908-.362-1.792-.683-2.645-.968a31.116,31.116,0,0,0-6.777-1.919,47.286,47.286,0,0,0-14.43,0,31.116,31.116,0,0,0-6.777,1.919c-.853.285-1.737.605-2.645.968-4.532,1.809-7.335,3.722-12.553,7.281-.557.38-1.052.726-1.5,1.046a11.288,11.288,0,0,0-3.139,2.344,11.9,11.9,0,0,0-1.169,1.612c-2.257,3.352-3.746,8.643-1.474,10.941,1.516,1.534,4.254,1.274,5.774,1.13,1.439-.136,2.1-.48,5.9-1.883,2.768-1.023,4.151-1.534,5.273-1.883a57.151,57.151,0,0,1,8.662-1.883c2.608-.413,4.593-.6,6.277-.753,1.779-.163,3.133-.287,4.586-.344,1.452.056,2.806.18,4.586.344,1.683.154,3.669.34,6.277.753a57.17,57.17,0,0,1,8.662,1.883c1.121.349,2.5.861,5.273,1.883,3.8,1.4,4.461,1.747,5.9,1.883,1.521.145,4.259.4,5.775-1.13a3.421,3.421,0,0,0,.594-.822c.082,0,.137-.02.152-.056a5.245,5.245,0,0,0,.381-2.231,14.7,14.7,0,0,0-2.6-7.831" transform="translate(-113.433 -128.583)" fill="#0d2952"/>
          <path id="Tracciato_129" data-name="Tracciato 129" d="M540.652,374.123h6.1L543.7,410.206Z" transform="translate(-164.562 -113.875)" fill="#0d2952"/>
          <path id="Tracciato_130" data-name="Tracciato 130" d="M540.652,462.7h6.1L543.7,426.62Z" transform="translate(-164.562 -129.853)" fill="#0d2952"/>
          <path id="Tracciato_131" data-name="Tracciato 131" d="M497.675,401.693l3.052-5.287,29.723,20.685Z" transform="translate(-151.481 -120.657)" fill="#0d2952"/>
          <path id="Tracciato_132" data-name="Tracciato 132" d="M575.055,447.14l3.052-5.287-32.775-15.4Z" transform="translate(-165.987 -129.803)" fill="#0d2952"/>
          <path id="Tracciato_133" data-name="Tracciato 133" d="M497.675,441.854l3.052,5.287,29.723-20.685Z" transform="translate(-151.481 -129.803)" fill="#0d2952"/>
          <path id="Tracciato_134" data-name="Tracciato 134" d="M575.055,396.407l3.052,5.287-32.775,15.4Z" transform="translate(-165.987 -120.657)" fill="#0d2952"/>
          <path id="Tracciato_135" data-name="Tracciato 135" d="M580.352,435.641l1.06-6.012-36.065-3.26Z" transform="translate(-165.991 -129.777)" fill="#0d2952"/>
          <path id="Tracciato_136" data-name="Tracciato 136" d="M492.886,418.944l1.06-6.012,35,9.271Z" transform="translate(-150.023 -125.687)" fill="#0d2952"/>
          <path id="Tracciato_137" data-name="Tracciato 137" d="M580.352,412.932l1.06,6.012-36.065,3.26Z" transform="translate(-165.991 -125.687)" fill="#0d2952"/>
          <path id="Tracciato_138" data-name="Tracciato 138" d="M492.886,429.629l1.06,6.012,35-9.271Z" transform="translate(-150.023 -129.777)" fill="#0d2952"/>
          <path id="Tracciato_139" data-name="Tracciato 139" d="M508.135,387.459l4.676-3.924,20.855,29.6Z" transform="translate(-154.665 -116.739)" fill="#0d2952"/>
          <path id="Tracciato_140" data-name="Tracciato 140" d="M566.1,456.174l4.676-3.924L545.24,426.571Z" transform="translate(-165.959 -129.839)" fill="#0d2952"/>
          <path id="Tracciato_141" data-name="Tracciato 141" d="M508.135,452.25l4.676,3.924,20.855-29.6Z" transform="translate(-154.665 -129.838)" fill="#0d2952"/>
          <path id="Tracciato_142" data-name="Tracciato 142" d="M566.1,383.535l4.676,3.924L545.24,413.138Z" transform="translate(-165.959 -116.739)" fill="#0d2952"/>
          <path id="Tracciato_143" data-name="Tracciato 143" d="M523.068,377.851l5.736-2.088,9.473,34.951Z" transform="translate(-159.21 -114.374)" fill="#0d2952"/>
          <path id="Tracciato_144" data-name="Tracciato 144" d="M554.619,461.545l5.736-2.088-15.209-32.863Z" transform="translate(-165.93 -129.846)" fill="#0d2952"/>
          <path id="Tracciato_145" data-name="Tracciato 145" d="M523.068,459.457l5.736,2.088,9.473-34.951Z" transform="translate(-159.21 -129.845)" fill="#0d2952"/>
          <path id="Tracciato_146" data-name="Tracciato 146" d="M554.619,375.763l5.736,2.088-15.209,32.863Z" transform="translate(-165.93 -114.374)" fill="#0d2952"/>
          <path id="Tracciato_147" data-name="Tracciato 147" d="M145.555,205.453c1.9-.2,2.963-.658,3.267-2.355V147.542a3.253,3.253,0,0,0-3.267-2.659h11.4c-1.849.2-2.963.937-3.267,2.634q-.038,26.74-.076,53.708v1.924c.329,1.621,1.393,2.1,3.292,2.3Z" transform="translate(-44.304 -44.099)" fill="#0d2952"/>
          <path id="Tracciato_148" data-name="Tracciato 148" d="M174.962,145.82a8.493,8.493,0,0,0-4.913,1.722,5.447,5.447,0,0,0-2.253,4.33v-6.989h28.892v6.989a5.473,5.473,0,0,0-2.28-4.33,8.489,8.489,0,0,0-4.912-1.722h-4.811q0,24.841-.051,49.656c-.026,2.557-.026,5.089-.026,7.647.3,1.646,1.418,2.127,3.267,2.33H176.557c1.848-.2,2.962-.684,3.267-2.38V145.82Z" transform="translate(-51.073 -44.099)" fill="#0d2952"/>
          <path id="Tracciato_149" data-name="Tracciato 149" d="M207.942,203.221a1.212,1.212,0,0,0-.026.3c0,1.139,1.317,1.772,2.836,1.949H203.84c1.747-.2,2.709-.81,3.114-2.253q2.925-14.851,6.052-31.1,2.7-14.092,5.292-27.17h1.038l10.18,58.215a3.419,3.419,0,0,0,3.114,2.3H221.843a4.891,4.891,0,0,0,2.051-.835,1.616,1.616,0,0,0,.81-1.266.5.5,0,0,0-.025-.177q-1.9-11.053-3.773-22.03a13.222,13.222,0,0,0-5.9,2.076,11.781,11.781,0,0,0-4.2,5.646c-.937,4.761-1.874,9.547-2.861,14.333M220.7,179.976q-1.937-11.4-3.824-22.815-2.127,11.47-4.33,22.815l-.177.962-.835,4.254a11.08,11.08,0,0,1,2.886-2.862,13.133,13.133,0,0,1,6.305-2.127Z" transform="translate(-62.044 -44.121)" fill="#0d2952"/>
          <path id="Tracciato_150" data-name="Tracciato 150" d="M253.222,205.453c1.9-.2,2.988-.608,3.292-2.3V147.542a3.252,3.252,0,0,0-3.267-2.659h11.4q-2.811.266-3.267,2.659-.038,24.727-.076,49.606v7.369h4.912a8.378,8.378,0,0,0,4.988-1.772,5.576,5.576,0,0,0,2.178-4.279v6.989Z" transform="translate(-77.075 -44.099)" fill="#0d2952"/>
          <path id="Tracciato_151" data-name="Tracciato 151" d="M290.219,205.453c1.9-.2,2.963-.658,3.267-2.355V147.542a3.253,3.253,0,0,0-3.267-2.659h11.4c-1.849.2-2.963.937-3.267,2.634q-.038,26.74-.076,53.708v1.924c.329,1.621,1.393,2.1,3.292,2.3Z" transform="translate(-88.336 -44.099)" fill="#0d2952"/>
          <path id="Tracciato_152" data-name="Tracciato 152" d="M315.429,203.221a1.213,1.213,0,0,0-.026.3c0,1.139,1.317,1.772,2.836,1.949h-6.912c1.747-.2,2.709-.81,3.114-2.253q2.925-14.851,6.052-31.1,2.7-14.092,5.292-27.17h1.038L337,203.171a3.418,3.418,0,0,0,3.114,2.3H329.33a4.892,4.892,0,0,0,2.051-.835,1.616,1.616,0,0,0,.81-1.266.5.5,0,0,0-.025-.177q-1.9-11.053-3.773-22.03a13.222,13.222,0,0,0-5.9,2.076,11.781,11.781,0,0,0-4.2,5.646c-.937,4.761-1.874,9.547-2.861,14.333m12.762-23.246q-1.938-11.4-3.824-22.815-2.126,11.47-4.33,22.815l-.177.962-.835,4.254a11.08,11.08,0,0,1,2.886-2.862,13.134,13.134,0,0,1,6.305-2.127Z" transform="translate(-94.761 -44.121)" fill="#0d2952"/>
          <path id="Tracciato_153" data-name="Tracciato 153" d="M294.69,211.6H129.055V128.935H294.69ZM133.68,207H290.065V133.528H133.68Z" transform="translate(-39.281 -39.245)" fill="#0d2952"/>
          <rect id="Rettangolo_28" data-name="Rettangolo 28" width="82.786" height="82.786" transform="translate(89.662 6.918)" fill="#5d8bc9"/>
          <rect id="Rettangolo_29" data-name="Rettangolo 29" width="83.313" height="82.786" transform="translate(6.956 6.918)" fill="#5d8bc9"/>
          <path id="Tracciato_154" data-name="Tracciato 154" d="M69.118,54.181A23.076,23.076,0,1,1,46.042,31.1,23.077,23.077,0,0,1,69.118,54.181" transform="translate(-6.99 -9.467)" fill="#fff"/>
          <path id="Tracciato_155" data-name="Tracciato 155" d="M141.952,54.181A23.076,23.076,0,1,1,118.876,31.1a23.077,23.077,0,0,1,23.077,23.077" transform="translate(-29.159 -9.467)" fill="#0d2952"/>
          <path id="Tracciato_156" data-name="Tracciato 156" d="M215.534,54.181A23.076,23.076,0,1,1,192.457,31.1a23.077,23.077,0,0,1,23.077,23.077" transform="translate(-51.556 -9.467)" fill="#fff"/>
        </g>
      </g>
      <path id="Tracciato_157" data-name="Tracciato 157" d="M44.518,73.735V40.063h7.96c5.721,0,8.486,2.477,8.486,7.682v1.338c0,4.563-1.7,6-3.288,6.6,1.555.641,3.841,1.89,3.841,6.584v2.68c0,5.881-2.455,8.785-8.607,8.785Zm7.307-20.417c2.185,0,2.937-.7,2.937-3.277V48.3c0-2.158-.694-3.134-2.746-3.134H50.8v8.151ZM50.8,68.683h1.3c2.312,0,2.859-1.069,2.859-3.565V62.029c0-2.611-.618-3.726-3.275-3.726H50.8Z" transform="translate(-13.55 -12.194)" fill="#0d2952"/>
      <path id="Tracciato_158" data-name="Tracciato 158" d="M122.525,65.722l-.829,8.014h-6.6l4.761-33.672h9.657l4.874,33.672h-6.736l-.928-8.014Zm3.646-5.712c-.479-4.308-1.15-10.862-1.464-14.086h-.255c-.116,2.347-.915,9.923-1.361,14.086Z" transform="translate(-35.032 -12.194)" fill="#fff"/>
      <path id="Tracciato_159" data-name="Tracciato 159" d="M197.507,59.1V73.735H191.04V40.063h8.4c5.644,0,8.432,2.48,8.432,8.367v1.211c0,4.8-1.916,6.226-3.361,6.908,2.1,1.011,3.078,2.552,3.078,7.25,0,3.251-.05,8.166.232,9.936h-6.265c-.419-1.522-.388-5.906-.388-10.2,0-3.789-.434-4.434-2.9-4.434Zm.018-5.1h.8c2.163,0,3.045-.684,3.045-3.818V48.55c0-2.26-.454-3.384-2.837-3.384h-1.011Z" transform="translate(-58.148 -12.194)" fill="#5d8bc9"/>
      <g id="Raggruppa_4" data-name="Raggruppa 4">
        <g id="Raggruppa_3" data-name="Raggruppa 3" clip-path="url(#clip-path)">
          <path id="Tracciato_160" data-name="Tracciato 160" d="M211.688,375.847v10.442l-16.444-16.424-17.578,17.593-17.6-17.621L142.5,387.4,128.87,373.754v-6.588h3.847l9.794,9.8,9.787-9.8h15.533l9.842,9.851,9.842-9.851h15.478Z" transform="translate(-39.225 -111.757)" fill="#0d2952"/>
          <path id="Tracciato_161" data-name="Tracciato 161" d="M211.688,399.19v10.435l-16.444-16.417-17.578,17.586-17.6-17.621L142.5,410.738,128.87,397.089V386.654l13.64,13.642,17.557-17.558,17.606,17.614,17.571-17.579Z" transform="translate(-39.225 -116.497)" fill="#0d2952"/>
          <path id="Tracciato_162" data-name="Tracciato 162" d="M147.808,367.417h3.219l-1.61,1.61Z" transform="translate(-44.989 -111.833)" fill="#0d2952"/>
          <path id="Tracciato_163" data-name="Tracciato 163" d="M195.873,367.417H199.2l-1.663,1.663Z" transform="translate(-59.619 -111.833)" fill="#0d2952"/>
          <path id="Tracciato_164" data-name="Tracciato 164" d="M244.6,367.417v.55l-.55-.55Z" transform="translate(-74.284 -111.833)" fill="#0d2952"/>
          <path id="Tracciato_165" data-name="Tracciato 165" d="M211.688,424.671v10.442l-16.444-16.424-17.578,17.593-17.6-17.621L142.5,436.219,128.87,422.577V412.142l13.64,13.642,17.557-17.565,17.606,17.621,17.571-17.586Z" transform="translate(-39.225 -124.252)" fill="#0d2952"/>
          <path id="Tracciato_166" data-name="Tracciato 166" d="M211.688,449.332v10.442l-16.444-16.424-17.578,17.593-17.6-17.621L142.5,460.887,128.87,447.238V436.8l13.64,13.642,17.557-17.565L177.673,450.5l17.571-17.586Z" transform="translate(-39.225 -131.759)" fill="#0d2952"/>
          <path id="Tracciato_167" data-name="Tracciato 167" d="M211.688,474.423V477.8h-7.074l-9.37-9.356L185.9,477.8H169.438l-9.37-9.384-9.39,9.384H134.331l-5.461-5.468V461.894l13.64,13.642,17.557-17.565,17.606,17.621,17.571-17.586Z" transform="translate(-39.225 -139.396)" fill="#0d2952"/>
          <path id="Tracciato_168" data-name="Tracciato 168" d="M118.467,546.329H75.875a1.043,1.043,0,1,1,0-2.087h42.592a1.043,1.043,0,1,1,0,2.087" transform="translate(-22.777 -165.655)" fill="#0d2951"/>
          <path id="Tracciato_169" data-name="Tracciato 169" d="M114.165,539.743H71.392a1.043,1.043,0,0,1,0-2.087h42.772a1.043,1.043,0,0,1,0,2.087" transform="translate(-21.413 -163.65)" fill="#0d2951"/>
          <path id="Tracciato_170" data-name="Tracciato 170" d="M114.165,552.655H71.392a1.043,1.043,0,1,1,0-2.087h42.772a1.043,1.043,0,1,1,0,2.087" transform="translate(-21.413 -167.58)" fill="#0d2951"/>
          <path id="Tracciato_171" data-name="Tracciato 171" d="M34.665,181.737c-.642,4.167-7.019,6.914-8.368,9.5l-.056.1-.054-.1c-1.35-2.581-7.728-5.328-8.37-9.5-.4-2.628.631-5.378,3.742-5.952,3.335-.353,4.41,1.823,4.682,2.54.273-.716,1.348-2.892,4.682-2.54,3.113.575,4.148,3.324,3.742,5.952" transform="translate(-5.398 -53.493)" fill="#fff"/>
          <path id="Tracciato_172" data-name="Tracciato 172" d="M30.213,178.325a3.98,3.98,0,0,1,3.905-2.576,4.009,4.009,0,0,0-4.007,2.333c.042.092.076.174.1.243" transform="translate(-9.165 -53.494)" fill="#a80011"/>
          <path id="Tracciato_173" data-name="Tracciato 173" d="M38.548,181.737c-.642,4.167-7.019,6.914-8.368,9.5l-.056.1V178.324c.273-.716,1.348-2.892,4.682-2.54,3.113.575,4.148,3.324,3.742,5.952" transform="translate(-9.169 -53.493)" fill="#5d8bc9"/>
          <path id="Tracciato_174" data-name="Tracciato 174" d="M113.283,185.931a4.158,4.158,0,0,1-8.23.84c-.069,1.934-.231,3.153,2.082,5.308h-5.4c2.267-2.107,2.135-3.342,2.079-5.294a4.158,4.158,0,1,1-4.068-5.013,4.112,4.112,0,0,1,1.519.291,4.159,4.159,0,1,1,6.334,0,4.153,4.153,0,0,1,5.679,3.868" transform="translate(-29.096 -53.331)" fill="#fff"/>
          <path id="Tracciato_175" data-name="Tracciato 175" d="M113.152,184.933a4.142,4.142,0,0,1,1.416-.288l-.1,0a4.13,4.13,0,0,0-1.236.191c-.026.033-.053.067-.081.1" transform="translate(-34.441 -56.201)" fill="#040405"/>
          <path id="Tracciato_176" data-name="Tracciato 176" d="M109.475,191.829c-.008.219-.017.428-.024.632a4.139,4.139,0,0,0,3.891,2.687l.095,0a4.135,4.135,0,0,1-3.962-3.317" transform="translate(-33.314 -58.388)" fill="#040405"/>
          <path id="Tracciato_177" data-name="Tracciato 177" d="M117.314,185.931a4.158,4.158,0,0,1-8.23.84c-.069,1.934-.231,3.153,2.082,5.308h-2.7V175.212a4.156,4.156,0,0,1,3.166,6.851,4.153,4.153,0,0,1,5.679,3.868" transform="translate(-33.015 -53.331)" fill="#5d8bc9"/>
          <path id="Tracciato_178" data-name="Tracciato 178" d="M73.035,221.961A36.98,36.98,0,0,0,66.1,231.4a37.036,37.036,0,0,0-6.937-9.437,37.061,37.061,0,0,0,6.937-9.437,37.006,37.006,0,0,0,6.935,9.437" transform="translate(-18.008 -64.687)" fill="#fff"/>
          <path id="Tracciato_179" data-name="Tracciato 179" d="M76.232,221.961A36.948,36.948,0,0,0,69.3,231.4V212.524a36.973,36.973,0,0,0,6.935,9.437" transform="translate(-21.092 -64.687)" fill="#5d8bc9"/>
          <path id="Tracciato_180" data-name="Tracciato 180" d="M74.247,144.594a4.456,4.456,0,0,1-1.359,3.237,4.777,4.777,0,0,1-3.326,1.359h-.046a4.61,4.61,0,0,1-3.385-1.464,18.457,18.457,0,0,0,.45,1.916,6.951,6.951,0,0,0,1.766,2.68H62.542a6.955,6.955,0,0,0,1.765-2.68,18.453,18.453,0,0,0,.451-1.916,4.614,4.614,0,0,1-3.384,1.464h-.047A4.774,4.774,0,0,1,58,147.831a4.458,4.458,0,0,1-1.359-3.237c.017-2.065,1.393-3.152,3.134-4.526.337-.263.683-.537,1.039-.832a30.564,30.564,0,0,0,4.629-5.021,30.607,30.607,0,0,0,4.63,5.021c.354.295.7.569,1.036.832,1.742,1.374,3.118,2.461,3.137,4.526" transform="translate(-17.241 -40.852)" fill="#fff"/>
          <path id="Tracciato_181" data-name="Tracciato 181" d="M70.513,153.638c.024.106.047.216.07.327a4.581,4.581,0,0,0,3.043,1.137h.047l.077,0a4.607,4.607,0,0,1-3.237-1.461" transform="translate(-21.463 -46.764)" fill="#040405"/>
          <path id="Tracciato_182" data-name="Tracciato 182" d="M77.937,144.594a4.458,4.458,0,0,1-1.359,3.237,4.777,4.777,0,0,1-3.326,1.359h-.046a4.612,4.612,0,0,1-3.386-1.464,18.627,18.627,0,0,0,.451,1.916,6.942,6.942,0,0,0,1.766,2.68h-2.9V134.215a30.607,30.607,0,0,0,4.63,5.021c.354.295.7.569,1.036.832,1.742,1.374,3.118,2.461,3.136,4.526" transform="translate(-21.043 -40.852)" fill="#5d8bc9"/>
          <line id="Linea_5" data-name="Linea 5" y1="22.818" x2="0.83" transform="translate(48.831 179.657)" fill="none" stroke="#5d8bc9" stroke-miterlimit="10" stroke-width="2"/>
          <path id="Tracciato_183" data-name="Tracciato 183" d="M66.214,258.265a11.416,11.416,0,1,0,10.994,11.823A11.416,11.416,0,0,0,66.214,258.265Z" transform="translate(-16.553 -78.608)" fill="none" stroke="#5d8bc9" stroke-miterlimit="10" stroke-width="2"/>
          <line id="Linea_6" data-name="Linea 6" x2="22.818" y2="0.83" transform="translate(37.837 190.651)" fill="none" stroke="#5d8bc9" stroke-miterlimit="10" stroke-width="2"/>
          <line id="Linea_7" data-name="Linea 7" x1="15.548" y1="16.721" transform="translate(41.472 182.705)" fill="none" stroke="#5d8bc9" stroke-miterlimit="10" stroke-width="2"/>
          <line id="Linea_8" data-name="Linea 8" x1="16.721" y2="15.548" transform="translate(40.886 183.292)" fill="none" stroke="#5d8bc9" stroke-miterlimit="10" stroke-width="2"/>
          <line id="Linea_9" data-name="Linea 9" x2="54.497" y2="54.497" transform="translate(20.844 102.8)" fill="none" stroke="#5d8bc9" stroke-miterlimit="10" stroke-width="3.29"/>
          <line id="Linea_10" data-name="Linea 10" x2="54.497" y2="54.497" transform="translate(20.955 102.8)" fill="none" stroke="#fff" stroke-miterlimit="10" stroke-width="3.29"/>
          <line id="Linea_11" data-name="Linea 11" y1="54.497" x2="54.497" transform="translate(20.844 102.8)" fill="none" stroke="#fff" stroke-miterlimit="10" stroke-width="3.29"/>
          <rect id="Rettangolo_31" data-name="Rettangolo 31" width="82.817" height="82.817" transform="translate(172.673 172.377)" fill="#5d8bc9"/>
          <path id="Tracciato_184" data-name="Tracciato 184" d="M288.885,310.261H269.607a.99.99,0,0,0-.911.966l-1.609,21.9a1.034,1.034,0,0,0,.911,1.207h22.39a1.034,1.034,0,0,0,.912-1.2l-1.5-21.9a.99.99,0,0,0-.912-.97" transform="translate(-81.293 -94.436)" fill="#0d2952"/>
          <path id="Tracciato_185" data-name="Tracciato 185" d="M300.306,300.352c-.155-1.363-.326-2.725-.461-4.092-.337-3.393-.675-6.785-.976-10.183-.136-1.545-.372-3.079-.39-4.638a8.769,8.769,0,0,1,4.329-3.809c2.51-.882,4.74-.122,6.72,1.832a16.821,16.821,0,0,1,1.817,2.329c-.04,1.814-.3,3.6-.46,5.4q-.52,5.738-1.1,11.468a10.715,10.715,0,0,1-.257,2.083,8.166,8.166,0,0,0-2.574-2.63c-1.948-1.105-4.087-.669-5.8,1.21-.295.323-.561.683-.84,1.026m2.965-12.587c0,1.512-.006,3.025,0,4.536.006,1.24.708,2.115,1.669,2.108s1.649-.88,1.653-2.129q.011-4.5,0-9c0-1.248-.693-2.1-1.669-2.1s-1.648.859-1.655,2.116c-.007,1.487,0,2.974,0,4.46" transform="translate(-90.85 -84.394)" fill="#0d2952"/>
          <path id="Tracciato_186" data-name="Tracciato 186" d="M288.885,277.267H269.607a.99.99,0,0,0-.911.966l-1.609,21.9a1.034,1.034,0,0,0,.911,1.207h22.39a1.034,1.034,0,0,0,.912-1.2l-1.5-21.9a.99.99,0,0,0-.912-.97" transform="translate(-81.293 -84.394)" fill="#fff"/>
          <path id="Tracciato_187" data-name="Tracciato 187" d="M287.984,274.33l-6.432-.034-6.631-.033c-.125-1.966-.031-3.934-.051-5.9a.856.856,0,0,1,.586-.85,2.269,2.269,0,0,1,.918-.138q5.188.009,10.377.007a2.222,2.222,0,0,1,.918.135.891.891,0,0,1,.6.917c-.02,1.942-.022,3.884-.03,5.825l-.249.072" transform="translate(-83.66 -81.383)" fill="#0d2952"/>
          <path id="Tracciato_188" data-name="Tracciato 188" d="M270.943,299.464a.868.868,0,0,1,.006-.195c.175-1.573.36-3.187.531-4.8.1-.9.157-1.81.249-2.715.17-1.676.353-3.352.525-5.029q.185-1.8.355-3.6.115-1.184.22-2.369a.57.57,0,0,1,.658-.567.5.5,0,0,1,.536.621c-.117,1.184-.227,2.368-.349,3.552-.135,1.3-.285,2.6-.422,3.894-.219,2.088-.44,4.176-.648,6.265-.164,1.66-.311,3.322-.457,4.983a.638.638,0,0,1-.463.662.62.62,0,0,1-.6-.1c-.216-.154-.12-.367-.141-.6" transform="translate(-82.468 -85.282)" fill="#0d2952"/>
          <path id="Tracciato_189" data-name="Tracciato 189" d="M291.7,340.442v6.079a1.425,1.425,0,0,1-1.292,1.529H267.352a1.426,1.426,0,0,1-1.292-1.529v-6.079a1.426,1.426,0,0,1,1.292-1.53h23.061a1.426,1.426,0,0,1,1.292,1.53" transform="translate(-80.983 -103.157)" fill="#fff"/>
          <path id="Tracciato_190" data-name="Tracciato 190" d="M335.666,310.261H316.388a.99.99,0,0,0-.912.966l-1.608,21.9a1.034,1.034,0,0,0,.911,1.207h22.39a1.034,1.034,0,0,0,.912-1.2l-1.5-21.9a.99.99,0,0,0-.912-.97" transform="translate(-95.532 -94.436)" fill="#0d2952"/>
          <path id="Tracciato_191" data-name="Tracciato 191" d="M335.666,277.267H316.388a.99.99,0,0,0-.912.966l-1.608,21.9a1.034,1.034,0,0,0,.911,1.207h22.39a1.034,1.034,0,0,0,.912-1.2l-1.5-21.9a.99.99,0,0,0-.912-.97" transform="translate(-95.532 -84.394)" fill="#fff"/>
          <path id="Tracciato_192" data-name="Tracciato 192" d="M334.765,274.33l-6.432-.034-6.631-.033c-.125-1.966-.031-3.934-.052-5.9a.856.856,0,0,1,.586-.85,2.269,2.269,0,0,1,.917-.138q5.188.009,10.377.007a2.222,2.222,0,0,1,.918.135.892.892,0,0,1,.6.917c-.02,1.942-.022,3.884-.03,5.825l-.249.072" transform="translate(-97.899 -81.383)" fill="#0d2952"/>
          <path id="Tracciato_193" data-name="Tracciato 193" d="M342.127,280.923a.915.915,0,0,0,.006.195c.175,1.573.36,3.187.531,4.8.1.9.157,1.81.249,2.715.17,1.676.353,3.352.525,5.029.123,1.2.239,2.4.355,3.6q.114,1.184.22,2.369a.57.57,0,0,0,.659.567.5.5,0,0,0,.535-.621c-.116-1.184-.226-2.368-.349-3.552-.135-1.3-.285-2.6-.422-3.894-.22-2.088-.441-4.176-.648-6.265-.164-1.66-.311-3.322-.457-4.983a.638.638,0,0,0-.463-.662.619.619,0,0,0-.6.1c-.216.154-.12.367-.142.6" transform="translate(-104.135 -85.282)" fill="#0d2952"/>
          <path id="Tracciato_194" data-name="Tracciato 194" d="M338.485,340.442v6.079a1.425,1.425,0,0,1-1.292,1.529H314.133a1.426,1.426,0,0,1-1.292-1.529v-6.079a1.426,1.426,0,0,1,1.292-1.53h23.061a1.426,1.426,0,0,1,1.292,1.53" transform="translate(-95.222 -103.157)" fill="#fff"/>
          <path id="Tracciato_195" data-name="Tracciato 195" d="M151.954,273.794v44.189a7.7,7.7,0,0,0,7.7,7.7H192.7a7.7,7.7,0,0,0,7.7-7.7V280.474a3.274,3.274,0,0,0-.959-2.316l-1.789-1.79,2.085-2.085a.344.344,0,0,0,0-.486L192.7,266.76a.343.343,0,0,0-.484,0l-2.088,2.088-1.789-1.792a3.278,3.278,0,0,0-2.316-.959H159.65a7.7,7.7,0,0,0-7.7,7.7m5.99,0a1.711,1.711,0,0,1,1.709-1.706h18.465a1.708,1.708,0,0,1,0,3.415H159.653a1.712,1.712,0,0,1-1.709-1.709" transform="translate(-46.251 -80.994)" fill="#3a3b3e"/>
          <path id="Tracciato_196" data-name="Tracciato 196" d="M191.2,269.575l6.323,6.325.851-.853-6.323-6.323ZM157.022,274.1a2.935,2.935,0,0,0,2.931,2.931h18.465a2.93,2.93,0,0,0,0-5.861H159.954a2.935,2.935,0,0,0-2.931,2.929m.535,0a2.4,2.4,0,0,1,2.4-2.394h18.465a2.4,2.4,0,0,1,0,4.79H159.954a2.4,2.4,0,0,1-2.4-2.4m-4.616,0v44.188a7.012,7.012,0,0,0,7.01,7.01h33.055a7.012,7.012,0,0,0,7.01-7.01V280.775a2.575,2.575,0,0,0-.758-1.829l-11.1-11.1a2.578,2.578,0,0,0-1.829-.758H159.951a7.012,7.012,0,0,0-7.01,7.01m.536,0a6.482,6.482,0,0,1,6.474-6.475h26.375a2.015,2.015,0,0,1,1.137.345,1.8,1.8,0,0,1,.313.257l1.078,1.075,10.027,10.027a2.038,2.038,0,0,1,.6,1.45v37.509a6.482,6.482,0,0,1-6.474,6.475H159.951a6.482,6.482,0,0,1-6.474-6.475Zm3.546,0a2.935,2.935,0,0,0,2.931,2.931h18.465a2.93,2.93,0,0,0,0-5.861H159.954a2.935,2.935,0,0,0-2.931,2.929m.535,0a2.4,2.4,0,0,1,2.4-2.394h18.465a2.4,2.4,0,0,1,0,4.79H159.954a2.4,2.4,0,0,1-2.4-2.4m1.573,8.584a1.114,1.114,0,0,0-.328.792v34.842a1.119,1.119,0,0,0,1.122,1.119h33.11a1.122,1.122,0,0,0,1.122-1.119V283.472a1.128,1.128,0,0,0-.33-.792,1.114,1.114,0,0,0-.792-.328h-33.11a1.118,1.118,0,0,0-.794.328m.5.792a.292.292,0,0,1,.294-.291h33.11a.292.292,0,0,1,.294.291v34.842a.294.294,0,0,1-.294.293h-33.11a.258.258,0,0,1-.088-.015.224.224,0,0,1-.076-.036.29.29,0,0,1-.129-.242Zm-2.609-9.376a2.935,2.935,0,0,0,2.931,2.931h18.465a2.93,2.93,0,0,0,0-5.861H159.954a2.935,2.935,0,0,0-2.931,2.929m.535,0a2.4,2.4,0,0,1,2.4-2.394h18.465a2.4,2.4,0,0,1,0,4.79H159.954a2.4,2.4,0,0,1-2.4-2.4m1.573,8.584a1.114,1.114,0,0,0-.328.792v34.842a1.119,1.119,0,0,0,1.122,1.119h33.11a1.122,1.122,0,0,0,1.122-1.119V283.472a1.128,1.128,0,0,0-.33-.792,1.114,1.114,0,0,0-.792-.328h-33.11a1.118,1.118,0,0,0-.794.328m.5.792a.292.292,0,0,1,.294-.291h33.11a.292.292,0,0,1,.294.291v34.842a.294.294,0,0,1-.294.293h-33.11a.258.258,0,0,1-.088-.015.224.224,0,0,1-.076-.036.29.29,0,0,1-.129-.242Zm-.828,0v34.842a1.119,1.119,0,0,0,1.122,1.119h33.11a1.122,1.122,0,0,0,1.122-1.119V283.472a1.128,1.128,0,0,0-.33-.792,1.114,1.114,0,0,0-.792-.328h-33.11a1.119,1.119,0,0,0-1.122,1.12m.828,0a.292.292,0,0,1,.294-.291h33.11a.292.292,0,0,1,.294.291v34.842a.294.294,0,0,1-.294.293h-33.11a.258.258,0,0,1-.088-.015.224.224,0,0,1-.076-.036.29.29,0,0,1-.129-.242Z" transform="translate(-46.552 -81.295)" fill="#4e5155"/>
          <path id="Tracciato_197" data-name="Tracciato 197" d="M151.954,273.794v44.189a7.7,7.7,0,0,0,7.7,7.7H192.7a7.7,7.7,0,0,0,7.7-7.7V280.474a3.274,3.274,0,0,0-.959-2.316l-1.789-1.79,2.085-2.085a.344.344,0,0,0,0-.486L192.7,266.76a.343.343,0,0,0-.484,0l-2.088,2.088-1.789-1.792a3.278,3.278,0,0,0-2.316-.959H159.65a7.7,7.7,0,0,0-7.7,7.7m5.99,0a1.711,1.711,0,0,1,1.709-1.706h18.465a1.708,1.708,0,0,1,0,3.415H159.653a1.712,1.712,0,0,1-1.709-1.709" transform="translate(-46.251 -80.994)" fill="#0d2952"/>
          <path id="Tracciato_198" data-name="Tracciato 198" d="M152.941,274.095v44.189a7.013,7.013,0,0,0,7.01,7.01h33.055a7.013,7.013,0,0,0,7.01-7.01V280.775a2.58,2.58,0,0,0-.758-1.829l-11.1-11.1a2.575,2.575,0,0,0-1.829-.758H159.951a7.012,7.012,0,0,0-7.01,7.01m5.3,0a1.711,1.711,0,0,1,1.709-1.706h18.465a1.708,1.708,0,0,1,0,3.415H159.954a1.712,1.712,0,0,1-1.709-1.709" transform="translate(-46.552 -81.295)" fill="#0d2952"/>
          <path id="Tracciato_199" data-name="Tracciato 199" d="M160.378,289.851v34.842a1.807,1.807,0,0,0,1.809,1.807H195.3a1.807,1.807,0,0,0,1.807-1.807V289.851a1.808,1.808,0,0,0-1.807-1.807h-33.11a1.808,1.808,0,0,0-1.809,1.807" transform="translate(-48.815 -87.674)" fill="#3b3c3e"/>
          <path id="Tracciato_200" data-name="Tracciato 200" d="M161.366,290.152a1.119,1.119,0,0,1,1.122-1.12H195.6a1.113,1.113,0,0,1,.792.328,1.128,1.128,0,0,1,.33.792v34.842a1.125,1.125,0,0,1-.33.792,1.113,1.113,0,0,1-.792.328h-33.11a1.119,1.119,0,0,1-1.122-1.119Z" transform="translate(-49.116 -87.975)" fill="#3b3c3e"/>
          <path id="Tracciato_201" data-name="Tracciato 201" d="M160.378,289.851v34.842a1.807,1.807,0,0,0,1.809,1.807H195.3a1.807,1.807,0,0,0,1.807-1.807V289.851a1.808,1.808,0,0,0-1.807-1.807h-33.11a1.808,1.808,0,0,0-1.809,1.807" transform="translate(-48.815 -87.674)" fill="#3b3c3e"/>
          <path id="Tracciato_202" data-name="Tracciato 202" d="M161.366,290.152a1.119,1.119,0,0,1,1.122-1.12H195.6a1.113,1.113,0,0,1,.792.328,1.128,1.128,0,0,1,.33.792v34.842a1.125,1.125,0,0,1-.33.792,1.113,1.113,0,0,1-.792.328h-33.11a1.119,1.119,0,0,1-1.122-1.119Z" transform="translate(-49.116 -87.975)" fill="#3b3c3e"/>
          <path id="Tracciato_203" data-name="Tracciato 203" d="M160.378,289.851v34.842a1.807,1.807,0,0,0,1.809,1.807H195.3a1.807,1.807,0,0,0,1.807-1.807V289.851a1.808,1.808,0,0,0-1.807-1.807h-33.11a1.808,1.808,0,0,0-1.809,1.807" transform="translate(-48.815 -87.674)" fill="#5d8bc9"/>
          <path id="Tracciato_204" data-name="Tracciato 204" d="M160.378,289.851v34.842a1.807,1.807,0,0,0,1.809,1.807H195.3a1.807,1.807,0,0,0,1.807-1.807V289.851a1.808,1.808,0,0,0-1.807-1.807h-33.11A1.808,1.808,0,0,0,160.378,289.851Z" transform="translate(-48.815 -87.674)" fill="none" stroke="#0d2951" stroke-miterlimit="10" stroke-width="1.757"/>
          <path id="Tracciato_205" data-name="Tracciato 205" d="M161.366,290.152a1.119,1.119,0,0,1,1.122-1.12H195.6a1.113,1.113,0,0,1,.792.328,1.128,1.128,0,0,1,.33.792v34.842a1.125,1.125,0,0,1-.33.792,1.113,1.113,0,0,1-.792.328h-33.11a1.119,1.119,0,0,1-1.122-1.119Z" transform="translate(-49.116 -87.975)" fill="#5d8bc9"/>
          <path id="Tracciato_206" data-name="Tracciato 206" d="M161.366,290.152a1.119,1.119,0,0,1,1.122-1.12H195.6a1.113,1.113,0,0,1,.792.328,1.128,1.128,0,0,1,.33.792v34.842a1.125,1.125,0,0,1-.33.792,1.113,1.113,0,0,1-.792.328h-33.11a1.119,1.119,0,0,1-1.122-1.119Z" transform="translate(-49.116 -87.975)" fill="none" stroke="#0d2951" stroke-miterlimit="10" stroke-width="1.757"/>
          <path id="Tracciato_207" data-name="Tracciato 207" d="M207.534,269.941l6.55,6.553m1.843-1.846-6.55-6.55" transform="translate(-63.169 -81.603)" fill="#5d8bc9"/>
          <path id="Tracciato_208" data-name="Tracciato 208" d="M207.534,269.941l6.55,6.553m1.843-1.846-6.55-6.55" transform="translate(-63.169 -81.603)" fill="none" stroke="#0d2951" stroke-miterlimit="10" stroke-width="1.757"/>
          <path id="Tracciato_209" data-name="Tracciato 209" d="M153.71,274.329v44.189a6.482,6.482,0,0,0,6.475,6.474h33.054a6.482,6.482,0,0,0,6.474-6.474V281.009a2.04,2.04,0,0,0-.6-1.45l-10.027-10.027-1.078-1.076a1.893,1.893,0,0,0-.313-.257,2.024,2.024,0,0,0-1.137-.344H160.185a6.482,6.482,0,0,0-6.475,6.474m4.638,9.376a1.808,1.808,0,0,1,1.809-1.806h33.11a1.807,1.807,0,0,1,1.807,1.806v34.842a1.807,1.807,0,0,1-1.807,1.807h-33.11a1.808,1.808,0,0,1-1.809-1.807Zm-1.093-9.376a2.935,2.935,0,0,1,2.931-2.929h18.465a2.93,2.93,0,0,1,0,5.861H160.187a2.935,2.935,0,0,1-2.931-2.931" transform="translate(-46.786 -81.529)" fill="#5d8bc9"/>
          <rect id="Rettangolo_32" data-name="Rettangolo 32" width="14.317" height="14.317" transform="translate(122.873 212.545)" fill="none" stroke="#0d2951" stroke-miterlimit="10" stroke-width="1.757"/>
          <line id="Linea_12" data-name="Linea 12" x1="6.043" y1="6.043" transform="translate(116.726 206.398)" fill="none" stroke="#0d2951" stroke-miterlimit="10" stroke-width="1.757"/>
          <line id="Linea_13" data-name="Linea 13" x1="5.836" y1="5.836" transform="translate(137.291 226.962)" fill="none" stroke="#0d2951" stroke-miterlimit="10" stroke-width="1.757"/>
          <line id="Linea_14" data-name="Linea 14" x1="6.043" y2="5.836" transform="translate(116.726 226.963)" fill="none" stroke="#0d2951" stroke-miterlimit="10" stroke-width="1.757"/>
          <line id="Linea_15" data-name="Linea 15" x1="5.836" y2="6.043" transform="translate(137.291 206.398)" fill="none" stroke="#0d2951" stroke-miterlimit="10" stroke-width="1.757"/>
          <path id="Tracciato_210" data-name="Tracciato 210" d="M221.506,269.118l-8.777-8.777a.648.648,0,0,0-.917,0l-3.45,3.45a.648.648,0,0,0,0,.917l8.777,8.777a.649.649,0,0,0,.918,0l3.449-3.449a.649.649,0,0,0,0-.918" transform="translate(-63.363 -79.184)" fill="#5d8bc9"/>
          <path id="Rettangolo_33" data-name="Rettangolo 33" d="M.933,0h4.31a.932.932,0,0,1,.932.932V12.778a.932.932,0,0,1-.932.932H.933A.933.933,0,0,1,0,12.777V.933A.933.933,0,0,1,.933,0Z" transform="translate(144.541 185.065) rotate(-45)" fill="none" stroke="#0d2951" stroke-miterlimit="10" stroke-width="1.757"/>
          <rect id="Rettangolo_34" data-name="Rettangolo 34" width="4.109" height="0.245" transform="translate(153.708 192.771) rotate(-44.996)" fill="#0d2952"/>
          <rect id="Rettangolo_35" data-name="Rettangolo 35" width="4.109" height="0.245" transform="translate(152.973 192.036) rotate(-44.996)" fill="#0d2952"/>
          <rect id="Rettangolo_36" data-name="Rettangolo 36" width="4.109" height="0.245" transform="translate(152.237 191.301) rotate(-44.996)" fill="#0d2952"/>
          <rect id="Rettangolo_37" data-name="Rettangolo 37" width="4.109" height="0.245" transform="translate(151.502 190.565) rotate(-44.996)" fill="#0d2952"/>
          <rect id="Rettangolo_38" data-name="Rettangolo 38" width="4.109" height="0.245" transform="translate(150.767 189.83) rotate(-44.996)" fill="#0d2952"/>
          <rect id="Rettangolo_39" data-name="Rettangolo 39" width="4.109" height="0.245" transform="translate(150.032 189.095) rotate(-44.996)" fill="#0d2952"/>
          <rect id="Rettangolo_40" data-name="Rettangolo 40" width="4.109" height="0.245" transform="translate(149.297 188.36) rotate(-44.996)" fill="#0d2952"/>
          <rect id="Rettangolo_41" data-name="Rettangolo 41" width="4.109" height="0.245" transform="translate(148.562 187.625) rotate(-44.996)" fill="#0d2952"/>
          <rect id="Rettangolo_42" data-name="Rettangolo 42" width="4.109" height="0.245" transform="translate(147.827 186.89) rotate(-44.996)" fill="#0d2952"/>
          <rect id="Rettangolo_43" data-name="Rettangolo 43" width="4.109" height="0.245" transform="translate(147.092 186.155) rotate(-44.996)" fill="#0d2952"/>
          <rect id="Rettangolo_44" data-name="Rettangolo 44" width="4.109" height="0.245" transform="translate(146.357 185.42) rotate(-44.996)" fill="#0d2952"/>
          <rect id="Rettangolo_45" data-name="Rettangolo 45" width="1.802" height="9.013" transform="matrix(0.707, -0.707, 0.707, 0.707, 144.492, 188.356)" fill="#5d8bc9"/>
        </g>
      </g>
    </g>
  </g>
</svg>
